STARTFONT 2.1
COMMENT
COMMENT Converted from OpenType font "CONSOLAI.TTF" by "otf2bdf 3.0".
COMMENT
FONT -FreeType-Consolas-Medium-0-Normal--100-120-600-600-P-480-ISO10646-1
SIZE 12 600 600
FONTBOUNDINGBOX 78 118 -9 -23
STARTPROPERTIES 19
FOUNDRY "FreeType"
FAMILY_NAME "Consolas"
WEIGHT_NAME "Medium"
SLANT "0"
SETWIDTH_NAME "Normal"
ADD_STYLE_NAME ""
PIXEL_SIZE 100
POINT_SIZE 120
RESOLUTION_X 600
RESOLUTION_Y 600
SPACING "P"
AVERAGE_WIDTH 480
CHARSET_REGISTRY "ISO10646"
CHARSET_ENCODING "1"
FONT_ASCENT 74
FONT_DESCENT 25
COPYRIGHT "© 2005 Microsoft Corporation. All Rights Reserved."
_OTF_FONTFILE "CONSOLAI.TTF"
_OTF_PSNAME "Consolas-Italic"
ENDPROPERTIES
CHARS 598
STARTCHAR 0020
ENCODING 32
SWIDTH 550 0
DWIDTH 55 0
BBX 0 0 0 0
BITMAP
ENDCHAR
STARTCHAR 0021
ENCODING 33
SWIDTH 550 0
DWIDTH 55 0
BBX 24 70 17 -1
BITMAP
0003FF
0003FF
0003FF
0007FF
0007FE
0007FE
0007FE
0007FE
0007FC
000FFC
000FFC
000FFC
000FF8
000FF8
000FF8
001FF8
001FF8
001FF0
001FF0
001FF0
003FF0
003FE0
003FE0
003FE0
003FE0
003FE0
007FC0
007FC0
007FC0
007FC0
007F80
007F80
00FF80
00FF80
00FF00
00FF00
00FF00
00FF00
01FF00
01FE00
01FE00
01FE00
01FE00
01FC00
03FC00
03FC00
03FC00
03FC00
03F800
03F800
000000
000000
000000
000000
000000
000000
000000
0F8000
3FE000
7FF000
7FF000
FFF800
FFF800
FFF800
FFF800
FFF800
7FF000
7FE000
3FC000
0F0000
ENDCHAR
STARTCHAR 0022
ENCODING 34
SWIDTH 550 0
DWIDTH 55 0
BBX 33 23 18 46
BITMAP
1FFC03FF80
1FFC03FF80
1FFC03FF80
1FF803FF00
1FF803FF00
1FF803FF00
3FF807FF00
3FF007FE00
3FF007FE00
3FF007FE00
3FE007FC00
3FE007FC00
3FE007FC00
3FE00FFC00
7FC00FF800
7FC00FF800
7FC00FF800
7FC00FF800
7F800FF000
7F800FF000
7F800FF000
FF801FF000
FF001FE000
ENDCHAR
STARTCHAR 0023
ENCODING 35
SWIDTH 550 0
DWIDTH 55 0
BBX 56 64 1 0
BITMAP
000000FE001FE0
000001FE001FC0
000001FC001FC0
000001FC001FC0
000001FC003FC0
000003FC003F80
000003F8003F80
000003F8007F80
000007F8007F00
000007F0007F00
000007F000FF00
00000FF000FE00
00000FE000FE00
00000FE000FE00
00000FE001FE00
00001FE001FC00
00FFFFFFFFFFFF
00FFFFFFFFFFFF
00FFFFFFFFFFFF
01FFFFFFFFFFFF
01FFFFFFFFFFFF
01FFFFFFFFFFFE
01FFFFFFFFFFFE
00007F0007F000
00007F000FF000
0000FF000FE000
0000FE000FE000
0000FE001FE000
0001FE001FC000
0001FC001FC000
0001FC003FC000
0003FC003F8000
0003F8003F8000
0003F8003F8000
0003F8007F0000
0007F8007F0000
0007F0007F0000
0007F000FF0000
000FF000FE0000
000FE000FE0000
7FFFFFFFFFFF80
7FFFFFFFFFFF80
FFFFFFFFFFFF80
FFFFFFFFFFFF00
FFFFFFFFFFFF00
FFFFFFFFFFFF00
003F8003F80000
003F8007F80000
007F8007F00000
007F0007F00000
007F000FF00000
00FF000FE00000
00FE000FE00000
00FE000FE00000
00FE001FC00000
01FE001FC00000
01FC001FC00000
01FC003FC00000
03FC003F800000
03F8003F800000
03F8007F800000
07F8007F000000
07F0007F000000
07F0007F000000
ENDCHAR
STARTCHAR 0024
ENCODING 36
SWIDTH 550 0
DWIDTH 55 0
BBX 51 85 1 -12
BITMAP
0000000007F800
0000000007F000
000000000FF000
000000000FF000
000000000FE000
000000001FE000
000000001FE000
000000001FC000
000000003FC000
00000001FFE000
0000007FFFFF00
000003FFFFFFE0
00000FFFFFFFE0
00003FFFFFFFC0
0000FFFFFFFFC0
0001FFFFFFFFC0
0003FFFFFFFFC0
0007FFC1FE07C0
000FFF01FE0000
000FFC01FC0000
001FF803FC0000
001FF003FC0000
003FE003F80000
003FE007F80000
003FE007F80000
007FC007F00000
007FC00FF00000
007FC00FF00000
007FE00FE00000
007FE01FE00000
007FE01FE00000
003FF01FC00000
003FF83FC00000
003FFC3FC00000
001FFF3F800000
000FFFFF800000
000FFFFF800000
0007FFFF000000
0003FFFFC00000
0000FFFFE00000
00007FFFF80000
00001FFFFE0000
000007FFFF0000
000001FFFFC000
000003FFFFE000
000003FFFFF000
000003F9FFF000
000007F87FF800
000007F83FFC00
000007F01FFC00
00000FF00FFC00
00000FF007FC00
00000FE007FC00
00001FE007FE00
00001FE007FC00
00001FC007FC00
00003FC007FC00
00003FC007FC00
00003F800FFC00
00007F800FF800
00007F801FF800
00007F003FF800
0000FF007FF000
6000FF01FFE000
7E00FE07FFE000
7FFFFFFFFFC000
7FFFFFFFFF8000
FFFFFFFFFE0000
FFFFFFFFFC0000
FFFFFFFFF00000
FFFFFFFFC00000
1FFFFFFE000000
00FFFFC0000000
0007F000000000
000FF000000000
000FF000000000
000FE000000000
001FE000000000
001FE000000000
001FC000000000
003FC000000000
003FC000000000
003F8000000000
007F8000000000
007F8000000000
ENDCHAR
STARTCHAR 0025
ENCODING 37
SWIDTH 550 0
DWIDTH 55 0
BBX 67 71 -4 -1
BITMAP
000000780000000000
000007FF8000003FE0
00001FFFC000007FC0
00003FFFE00000FF80
00007FFFF00000FF00
0000FFFFF80001FE00
0001FFFFF80003FC00
0003FE07F80007F800
0003FC03FC000FF800
0007F803FC001FF000
0007F001FC003FE000
000FF001FC003FC000
000FE001FC007F8000
000FE003FC00FF0000
001FE003FC01FF0000
001FE003F803FE0000
001FC003F807FC0000
001FC003F80FF80000
001FC007F80FF00000
001FC007F01FE00000
001FE00FF03FC00000
001FE01FE07FC00000
000FF03FE0FF800000
000FFFFFC1FF000000
000FFFFF83FE000000
0007FFFF03FC000000
0003FFFE07F8000000
0001FFFC0FF0000000
00007FF01FF0000000
000000003FE0000000
000000007FC0000000
000000007F80000000
00000000FF00000000
00000001FE00000000
00000003FC00000000
00000007FC00000000
0000000FF800000000
0000001FF000000000
0000001FE000000000
0000003FC000000000
0000007F8000000000
000000FF8000000000
000001FF01FFC00000
000003FE07FFF00000
000007FC0FFFF80000
000007F81FFFFC0000
00000FF03FFFFC0000
00001FE07FFFFE0000
00003FE0FF81FE0000
00007FC0FF00FE0000
0000FF81FE00FE0000
0000FF01FC00FF0000
0001FE03FC00FF0000
0003FC03F800FF0000
0007F803F800FF0000
000FF807F800FE0000
001FF007F000FE0000
003FE007F000FE0000
003FC007F001FE0000
007F8007F001FC0000
00FF0007F003FC0000
01FE0007F003FC0000
03FE0007F807F80000
07FC0007F80FF00000
0FF80003FFFFF00000
0FF00003FFFFE00000
1FE00001FFFFC00000
3FC00001FFFF800000
7FC00000FFFF000000
FF8000003FFC000000
0000000007C0000000
ENDCHAR
STARTCHAR 0026
ENCODING 38
SWIDTH 550 0
DWIDTH 55 0
BBX 50 69 1 -1
BITMAP
00000001800000
0000007FFC0000
000003FFFF0000
00000FFFFFC000
00001FFFFFE000
00003FFFFFF000
00007FFFFFF000
0000FFFFFFF800
0001FFE03FF800
0001FF800FFC00
0003FF000FFC00
0003FE0007FC00
0007FC0007FC00
0007FC0007FC00
0007FC0007FC00
0007F80007FC00
000FF80007FC00
000FF80007FC00
000FF8000FF800
000FF8000FF800
000FF8001FF800
000FFC003FF000
0007FC007FE000
0007FC00FFE000
0007FE03FFC000
0007FE07FF8000
0003FF1FFF0000
0003FF7FFC0000
0001FFFFF80000
0001FFFFE00000
0000FFFF800000
0000FFFF000000
0001FFFC000000
0007FFF0000000
001FFFF0000000
003FFFF8003FC0
007FFFFC003FC0
01FFFFFC007FC0
03FFC7FE007FC0
07FF07FE007FC0
0FFE03FF007F80
0FFC03FF80FF80
1FF801FF80FF80
3FF001FFC0FF00
3FE000FFC1FF00
7FC0007FE1FF00
7FC0007FF3FE00
7FC0003FF3FE00
FF80003FFFFC00
FF80001FFFFC00
FF80000FFFF800
FF80000FFFF800
FF800007FFF000
FF800007FFE000
FF800003FFE000
FF800001FFC000
FFC00001FFC000
FFC00003FFC000
7FE0000FFFE000
7FF0001FFFF000
7FFC00FFFFF000
3FFFFFFFFFF800
1FFFFFFFFFF800
1FFFFFFFDFFC00
0FFFFFFF0FFE00
03FFFFFE07FE00
01FFFFF807FF00
003FFFC003FF00
0001F000000000
ENDCHAR
STARTCHAR 0027
ENCODING 39
SWIDTH 550 0
DWIDTH 55 0
BBX 14 23 28 46
BITMAP
1FFC
3FFC
3FF8
3FF8
3FF8
3FF0
3FF0
3FF0
3FF0
7FE0
7FE0
7FE0
7FE0
7FC0
7FC0
7FC0
FFC0
FF80
FF80
FF80
FF80
FF00
FF00
ENDCHAR
STARTCHAR 0028
ENCODING 40
SWIDTH 550 0
DWIDTH 55 0
BBX 37 92 14 -20
BITMAP
0000000180
00000003C0
00000007E0
0000000FF0
0000003FF8
0000007FF0
000000FFE0
000001FF80
000003FF00
000007FE00
00000FFC00
00001FF800
00003FF000
00007FE000
00007FC000
0000FF8000
0001FF8000
0003FF0000
0007FE0000
0007FC0000
000FF80000
001FF80000
003FF00000
003FE00000
007FE00000
00FFC00000
00FF800000
01FF800000
01FF000000
03FE000000
03FE000000
07FC000000
07FC000000
0FF8000000
0FF8000000
0FF8000000
1FF0000000
1FF0000000
1FE0000000
3FE0000000
3FE0000000
3FC0000000
7FC0000000
7FC0000000
7FC0000000
7F80000000
7F80000000
FF80000000
FF80000000
FF80000000
FF80000000
FF80000000
FF80000000
FF00000000
FF00000000
FF00000000
FF00000000
FF00000000
FF00000000
FF00000000
FF80000000
FF80000000
FF80000000
FF80000000
FF80000000
7F80000000
7FC0000000
7FC0000000
7FC0000000
7FC0000000
3FE0000000
3FE0000000
3FE0000000
1FF0000000
1FF0000000
1FF8000000
0FF8000000
0FFC000000
07FC000000
07FE000000
03FE000000
03FF000000
01FF000000
00FF800000
00FFC00000
007FC00000
003FE00000
003FF00000
001FE00000
000FC00000
0007800000
0007000000
ENDCHAR
STARTCHAR 0029
ENCODING 41
SWIDTH 550 0
DWIDTH 55 0
BBX 37 92 5 -20
BITMAP
0000060000
00001F0000
00003F0000
00007F8000
0000FFC000
00007FE000
00003FE000
00003FF000
00001FF800
00000FF800
00000FFC00
000007FC00
000003FE00
000003FE00
000001FF00
000001FF00
000000FF80
000000FF80
000000FFC0
0000007FC0
0000007FC0
0000003FC0
0000003FE0
0000003FE0
0000003FE0
0000001FF0
0000001FF0
0000001FF0
0000001FF0
0000001FF0
0000000FF0
0000000FF0
0000000FF0
0000000FF0
0000000FF8
0000000FF8
0000000FF8
0000000FF8
0000000FF0
0000000FF0
0000000FF0
0000000FF0
0000001FF0
0000001FF0
0000001FF0
0000001FF0
0000001FF0
0000001FE0
0000003FE0
0000003FE0
0000003FE0
0000007FC0
0000007FC0
0000007FC0
000000FF80
000000FF80
000000FF80
000001FF00
000001FF00
000003FE00
000003FE00
000007FC00
000007FC00
00000FF800
00000FF800
00001FF000
00003FF000
00003FE000
00007FC000
0000FFC000
0000FF8000
0001FF0000
0003FF0000
0007FE0000
0007FC0000
000FF80000
001FF80000
003FF00000
007FE00000
00FFC00000
01FF800000
03FF000000
07FE000000
0FFC000000
1FF8000000
3FF0000000
FFE0000000
FFC0000000
FF80000000
7E00000000
3C00000000
1800000000
ENDCHAR
STARTCHAR 002A
ENCODING 42
SWIDTH 550 0
DWIDTH 55 0
BBX 38 41 13 28
BITMAP
0000FE0000
0000FE0000
0000FE0000
0000FC0000
0000FC0000
0000FC0000
0000FC0000
0000FC0000
3800FC0030
3C00FC00F8
7F007C01F8
7F807C07FC
FFE07C0FFC
FFF07C3FFC
3FFC7C7FF0
0FFE7DFFC0
03FFFFFF00
00FFFFFC00
003FFFF000
000FFFC000
0003FF0000
0007FF8000
001FFFE000
007FFFF800
01FFFFFE00
07FF7DFF80
1FFC7CFFF0
7FF87C3FFC
FFE07C1FFC
FF80FC07FC
7F00FC03F8
3C00FC00F8
3800FC0070
0000FC0000
0000FC0000
0000FC0000
0000FC0000
0000FC0000
0000FE0000
0000FE0000
0000FE0000
ENDCHAR
STARTCHAR 002B
ENCODING 43
SWIDTH 550 0
DWIDTH 55 0
BBX 48 47 4 3
BITMAP
000000FF8000
000000FF0000
000000FF0000
000000FF0000
000001FF0000
000001FF0000
000001FE0000
000001FE0000
000001FE0000
000003FE0000
000003FE0000
000003FC0000
000003FC0000
000003FC0000
000007FC0000
000007FC0000
000007F80000
000007F80000
000007F80000
00000FF80000
7FFFFFFFFFFF
7FFFFFFFFFFF
7FFFFFFFFFFE
FFFFFFFFFFFE
FFFFFFFFFFFE
FFFFFFFFFFFE
FFFFFFFFFFFE
00001FE00000
00001FE00000
00003FE00000
00003FE00000
00003FC00000
00003FC00000
00003FC00000
00007FC00000
00007FC00000
00007F800000
00007F800000
00007F800000
0000FF800000
0000FF800000
0000FF000000
0000FF000000
0000FF000000
0001FF000000
0001FF000000
0001FE000000
ENDCHAR
STARTCHAR 002C
ENCODING 44
SWIDTH 550 0
DWIDTH 55 0
BBX 27 33 4 -17
BITMAP
00001C00
0000FF00
0001FF80
0003FFC0
0007FFE0
0007FFE0
0007FFE0
0007FFE0
0007FFE0
0007FFE0
0007FFE0
0003FFE0
0003FFE0
0001FFE0
0001FFC0
0001FFC0
0001FFC0
0001FF80
0001FF80
0003FF00
0003FF00
0007FE00
000FFC00
003FFC00
00FFF800
07FFF000
FFFFE000
FFFF8000
FFFF0000
FFFC0000
FFF00000
FF800000
E0000000
ENDCHAR
STARTCHAR 002D
ENCODING 45
SWIDTH 550 0
DWIDTH 55 0
BBX 30 8 13 23
BITMAP
7FFFFFFC
7FFFFFFC
7FFFFFFC
FFFFFFFC
FFFFFFF8
FFFFFFF8
FFFFFFF8
FFFFFFF8
ENDCHAR
STARTCHAR 002E
ENCODING 46
SWIDTH 550 0
DWIDTH 55 0
BBX 17 16 15 -1
BITMAP
07F000
0FFC00
3FFE00
3FFF00
7FFF00
7FFF00
7FFF80
FFFF80
FFFF80
FFFF00
7FFF00
7FFF00
3FFE00
1FFC00
0FF800
03E000
ENDCHAR
STARTCHAR 002F
ENCODING 47
SWIDTH 550 0
DWIDTH 55 0
BBX 57 79 -1 -10
BITMAP
000000000000FF80
000000000000FF00
000000000001FF00
000000000003FE00
000000000003FE00
000000000007FC00
000000000007F800
00000000000FF800
00000000001FF000
00000000001FE000
00000000003FE000
00000000007FC000
00000000007FC000
0000000000FF8000
0000000000FF0000
0000000001FF0000
0000000003FE0000
0000000003FC0000
0000000007FC0000
000000000FF80000
000000000FF80000
000000001FF00000
000000001FE00000
000000003FE00000
000000007FC00000
000000007F800000
00000000FF800000
00000001FF000000
00000001FF000000
00000003FE000000
00000003FC000000
00000007FC000000
0000000FF8000000
0000000FF0000000
0000001FF0000000
0000003FE0000000
0000003FE0000000
0000007FC0000000
0000007F80000000
000000FF80000000
000001FF00000000
000001FE00000000
000003FE00000000
000003FC00000000
000007FC00000000
00000FF800000000
00000FF000000000
00001FF000000000
00003FE000000000
00003FC000000000
00007FC000000000
00007F8000000000
0000FF8000000000
0001FF0000000000
0001FE0000000000
0003FE0000000000
0007FC0000000000
0007F80000000000
000FF80000000000
000FF00000000000
001FF00000000000
003FE00000000000
003FC00000000000
007FC00000000000
00FF800000000000
00FF800000000000
01FF000000000000
01FE000000000000
03FE000000000000
07FC000000000000
07F8000000000000
0FF8000000000000
1FF0000000000000
1FF0000000000000
3FE0000000000000
3FC0000000000000
7FC0000000000000
FF80000000000000
FF00000000000000
ENDCHAR
STARTCHAR 0030
ENCODING 48
SWIDTH 550 0
DWIDTH 55 0
BBX 48 66 5 -1
BITMAP
0000000F8000
000003FFF800
00000FFFFF00
00003FFFFF80
0000FFFFFFC0
0001FFFFFFE0
0003FFFFFFF0
0007FFFFFFF8
000FFF003FF8
001FFC001FFC
003FF8000FFC
007FE00007FE
00FFC00003FE
00FF800003FE
01FF800001FF
01FF000001FF
03FE000001FF
03FE000001FF
07FC000001FF
07FC000003FF
0FF800000FFF
0FF800001FFF
1FF000007FFF
1FF00000FFFF
1FF00003FFFF
3FE00007FFFF
3FE0001FFFFF
3FE0007FFFFF
3FC000FFF9FF
7FC003FFF1FF
7FC007FFC1FF
7FC01FFF81FE
7F803FFE01FE
7F80FFF803FE
FF81FFF003FE
FF87FFC003FE
FF9FFF8003FC
FF3FFE0003FC
FFFFFC0007FC
FFFFF00007FC
FFFFE00007F8
FFFF80000FF8
FFFF00000FF8
FFFC00000FF0
FFF000001FF0
FFE000001FF0
FF8000003FE0
FF0000003FE0
FF0000007FC0
FF8000007FC0
FF800000FF80
FF800001FF80
FF800003FF00
7FC00003FE00
7FC00007FE00
7FE0001FFC00
3FF0003FF800
3FFC00FFF000
1FFF07FFE000
0FFFFFFFC000
0FFFFFFF8000
07FFFFFF0000
03FFFFFC0000
00FFFFF00000
003FFFC00000
0007FC000000
ENDCHAR
STARTCHAR 0031
ENCODING 49
SWIDTH 550 0
DWIDTH 55 0
BBX 41 64 4 0
BITMAP
00000007FC00
0000001FFC00
0000007FFC00
000001FFF800
000007FFF800
00001FFFF800
00007FFFF800
0001FFFFF800
000FFFFFF000
003FFFFFF000
00FFFFDFF000
00FFFF1FF000
007FFC3FF000
007FF03FE000
007FC03FE000
007F003FE000
0038003FE000
0020007FE000
0000007FC000
0000007FC000
0000007FC000
000000FFC000
000000FFC000
000000FF8000
000000FF8000
000000FF8000
000001FF8000
000001FF8000
000001FF8000
000001FF0000
000001FF0000
000003FF0000
000003FF0000
000003FF0000
000003FE0000
000003FE0000
000007FE0000
000007FE0000
000007FE0000
000007FC0000
000007FC0000
00000FFC0000
00000FFC0000
00000FFC0000
00000FF80000
00000FF80000
00001FF80000
00001FF80000
00001FF80000
00001FF00000
00001FF00000
00003FF00000
00003FF00000
00003FF00000
00003FE00000
00003FE00000
7FFFFFFFFF80
7FFFFFFFFF80
7FFFFFFFFF80
FFFFFFFFFF80
FFFFFFFFFF00
FFFFFFFFFF00
FFFFFFFFFF00
FFFFFFFFFF00
ENDCHAR
STARTCHAR 0032
ENCODING 50
SWIDTH 550 0
DWIDTH 55 0
BBX 48 65 2 0
BITMAP
0000000FC000
000001FFFE00
000007FFFF80
00001FFFFFC0
00007FFFFFF0
0001FFFFFFF8
0003FFFFFFF8
0007FFFFFFFC
001FFF803FFE
000FFE000FFE
000FF80007FE
0007E00003FF
0003C00003FF
0001000001FF
0000000001FF
0000000001FF
0000000001FF
0000000001FF
0000000001FF
0000000001FF
0000000001FF
0000000003FE
0000000003FE
0000000007FE
0000000007FE
000000000FFC
000000000FFC
000000001FF8
000000003FF0
000000007FF0
00000000FFE0
00000000FFC0
00000001FF80
00000003FF80
00000007FF00
0000001FFE00
0000003FFC00
0000007FF800
000000FFF000
000001FFC000
000003FF8000
000007FF0000
00001FFE0000
00003FFC0000
00007FF80000
0000FFE00000
0001FFC00000
0007FF800000
000FFF000000
001FFC000000
003FF8000000
007FF0000000
00FFE0000000
03FF80000000
07FF00000000
0FFE00000000
1FFC00000000
3FFFFFFFFFF0
7FFFFFFFFFE0
7FFFFFFFFFE0
7FFFFFFFFFE0
7FFFFFFFFFE0
7FFFFFFFFFE0
FFFFFFFFFFC0
FFFFFFFFFFC0
ENDCHAR
STARTCHAR 0033
ENCODING 51
SWIDTH 550 0
DWIDTH 55 0
BBX 47 66 3 -1
BITMAP
0000007F8000
00003FFFFC00
0003FFFFFF00
0007FFFFFFC0
0007FFFFFFE0
0007FFFFFFF0
0007FFFFFFF8
0007FFFFFFFC
0007F0007FFC
000700001FFC
000000000FFE
0000000007FE
0000000007FE
0000000003FE
0000000003FE
0000000003FE
0000000003FE
0000000003FC
0000000007FC
0000000007FC
0000000007F8
000000000FF8
000000001FF0
000000001FF0
000000003FE0
00000000FFC0
00000001FF80
0000000FFF00
000000FFFE00
0001FFFFF800
0001FFFFF000
0001FFFFC000
0003FFFFF000
0003FFFFFC00
0003FFFFFF00
0003FFFFFF80
0000000FFFC0
00000001FFC0
00000000FFE0
000000007FE0
000000003FF0
000000001FF0
000000001FF0
000000001FF0
000000001FF0
000000001FF0
000000001FF0
000000001FF0
000000003FE0
000000003FE0
000000007FE0
000000007FC0
00000000FFC0
00000001FF80
00000003FF00
0000000FFF00
0000003FFE00
400001FFFC00
7FFFFFFFF800
7FFFFFFFF000
7FFFFFFFC000
7FFFFFFF8000
FFFFFFFE0000
FFFFFFF00000
FFFFFF800000
07FFE0000000
ENDCHAR
STARTCHAR 0034
ENCODING 52
SWIDTH 550 0
DWIDTH 55 0
BBX 52 64 0 0
BITMAP
000000000FFF80
000000001FFF80
000000003FFF80
000000003FFF80
000000007FFF00
00000000FFFF00
00000001FFFF00
00000003FFFF00
00000007FFFF00
00000007FDFE00
0000000FFBFE00
0000001FF3FE00
0000003FF3FE00
0000007FE3FE00
000000FFC3FC00
000000FF87FC00
000001FF07FC00
000003FE07FC00
000007FE07FC00
00000FFC07F800
00000FF80FF800
00001FF00FF800
00003FE00FF800
00007FC00FF800
0000FFC00FF000
0001FF801FF000
0001FF001FF000
0003FE001FF000
0007FC001FF000
000FF8001FE000
001FF8003FE000
003FF0003FE000
003FE0003FE000
007FC0003FE000
00FF80003FC000
01FF00007FC000
03FF00007FC000
07FE00007FC000
07FC00007FC000
0FF800007F8000
1FF00000FF8000
3FE00000FF8000
7FFFFFFFFFFFF0
7FFFFFFFFFFFF0
7FFFFFFFFFFFE0
7FFFFFFFFFFFE0
7FFFFFFFFFFFE0
FFFFFFFFFFFFE0
FFFFFFFFFFFFC0
FFFFFFFFFFFFC0
00000003FE0000
00000003FE0000
00000003FE0000
00000003FE0000
00000003FC0000
00000007FC0000
00000007FC0000
00000007FC0000
00000007FC0000
00000007F80000
0000000FF80000
0000000FF80000
0000000FF80000
0000000FF80000
ENDCHAR
STARTCHAR 0035
ENCODING 53
SWIDTH 550 0
DWIDTH 55 0
BBX 48 65 4 -1
BITMAP
0003FFFFFFFF
0007FFFFFFFF
0007FFFFFFFF
0007FFFFFFFE
0007FFFFFFFE
000FFFFFFFFE
000FFFFFFFFE
000FFFFFFFFE
000FF0000000
000FF0000000
001FF0000000
001FE0000000
001FE0000000
001FE0000000
001FE0000000
003FE0000000
003FC0000000
003FC0000000
003FC0000000
003FC0000000
007FC0000000
007F80000000
007F80000000
007F80000000
007F80000000
00FF80000000
00FFFFFC0000
00FFFFFFC000
00FFFFFFF000
00FFFFFFF800
01FFFFFFFE00
01FFFFFFFF00
01FFFFFFFF00
0000003FFF80
00000007FFC0
00000001FFC0
00000000FFC0
000000007FE0
000000007FE0
000000003FE0
000000003FE0
000000003FE0
000000003FE0
000000003FE0
000000007FE0
000000007FC0
000000007FC0
00000000FFC0
00000000FF80
00000001FF80
00000003FF00
00000003FF00
0000000FFE00
0000001FFC00
0000003FFC00
000001FFF800
400007FFF000
7FFFFFFFE000
7FFFFFFF8000
7FFFFFFF0000
FFFFFFFC0000
FFFFFFF00000
FFFFFFC00000
FFFFFE000000
0FFF80000000
ENDCHAR
STARTCHAR 0036
ENCODING 54
SWIDTH 550 0
DWIDTH 55 0
BBX 47 65 6 -1
BITMAP
000000001FFE
00000007FFFE
0000007FFFFC
000001FFFFFC
000007FFFFFC
00001FFFFFFC
00007FFFFFFC
0000FFFFFFF8
0001FFFC0000
0007FFE00000
000FFF800000
001FFE000000
001FF8000000
003FF0000000
007FE0000000
00FFC0000000
00FF80000000
01FF00000000
03FF00000000
03FE00000000
07FC00000000
07FC00000000
0FF800000000
0FF800000000
1FF800000000
1FF00FFF8000
1FF0FFFFF000
3FF3FFFFF800
3FFFFFFFFE00
3FFFFFFFFF00
7FFFFFFFFF80
7FFFFFFFFF80
7FFFC003FFC0
7FFE0000FFC0
7FF000007FE0
FFC000007FE0
FF8000003FE0
FF8000003FE0
FF8000003FE0
FF8000003FE0
FF8000003FE0
FF8000003FE0
FF0000003FE0
FF0000003FE0
FF0000003FE0
FF0000003FE0
FF0000007FC0
FF0000007FC0
FF0000007FC0
FF000000FF80
FF800001FF80
FF800001FF00
FF800003FF00
FFC00007FE00
7FC0000FFC00
7FE0003FFC00
7FF0007FF800
3FFE03FFF000
1FFFFFFFE000
1FFFFFFF8000
0FFFFFFF0000
07FFFFFC0000
01FFFFF00000
007FFFC00000
0007FC000000
ENDCHAR
STARTCHAR 0037
ENCODING 55
SWIDTH 550 0
DWIDTH 55 0
BBX 49 64 8 0
BITMAP
07FFFFFFFFFF80
07FFFFFFFFFF00
07FFFFFFFFFF00
07FFFFFFFFFF00
07FFFFFFFFFF00
0FFFFFFFFFFF00
0FFFFFFFFFFE00
0FFFFFFFFFFE00
0000000003FE00
0000000007FC00
000000000FF800
000000001FF800
000000001FF000
000000003FE000
000000007FE000
000000007FC000
00000000FF8000
00000001FF8000
00000001FF0000
00000003FE0000
00000007FE0000
00000007FC0000
0000000FF80000
0000001FF80000
0000001FF00000
0000003FE00000
0000007FE00000
000000FFC00000
000000FF800000
000001FF800000
000003FF000000
000003FE000000
000007FE000000
00000FFC000000
00000FF8000000
00001FF8000000
00003FF0000000
00003FE0000000
00007FE0000000
0000FFC0000000
0000FF80000000
0001FF80000000
0003FF00000000
0007FE00000000
0007FE00000000
000FFC00000000
001FF800000000
001FF800000000
003FF000000000
007FE000000000
007FE000000000
00FFC000000000
01FF8000000000
01FF8000000000
03FF0000000000
07FE0000000000
07FE0000000000
0FFC0000000000
1FF80000000000
3FF80000000000
3FF00000000000
7FE00000000000
FFE00000000000
FFC00000000000
ENDCHAR
STARTCHAR 0038
ENCODING 56
SWIDTH 550 0
DWIDTH 55 0
BBX 49 66 4 -1
BITMAP
0000000FE00000
000003FFFF0000
00001FFFFFC000
00007FFFFFF000
0000FFFFFFF800
0003FFFFFFFC00
0007FFFFFFFE00
000FFFF1FFFF00
001FFE000FFF00
003FF80003FF00
003FF00001FF80
007FE00001FF80
007FC00000FF80
00FFC00000FF80
00FF800000FF80
00FF800000FF80
00FF800000FF80
00FF800001FF00
00FF800001FF00
00FF800003FF00
00FF800007FE00
00FF80000FFE00
00FFC0001FFC00
00FFE0007FF800
007FF000FFF000
007FF803FFE000
003FFE0FFFC000
001FFFBFFF0000
000FFFFFFE0000
0007FFFFF80000
0003FFFFF00000
0001FFFFC00000
0000FFFFE00000
0003FFFFF00000
000FFFFFF80000
001FFFFFFE0000
007FFE7FFF0000
00FFF81FFF0000
01FFE007FF8000
07FFC003FFC000
0FFF0001FFC000
0FFC0000FFE000
1FF800007FE000
3FF000007FE000
7FE000003FE000
7FC000003FF000
7FC000003FF000
FF8000003FF000
FF8000003FE000
FF8000003FE000
FF8000003FE000
FF8000007FE000
FF8000007FC000
FF800000FFC000
FFC00001FFC000
FFC00003FF8000
FFE00007FF0000
7FF8003FFF0000
7FFFC7FFFE0000
3FFFFFFFFC0000
1FFFFFFFF00000
0FFFFFFFE00000
07FFFFFF800000
01FFFFFE000000
007FFFF0000000
0007FF00000000
ENDCHAR
STARTCHAR 0039
ENCODING 57
SWIDTH 550 0
DWIDTH 55 0
BBX 48 65 4 0
BITMAP
0000001F8000
000003FFFC00
00000FFFFF00
00007FFFFFC0
0000FFFFFFE0
0003FFFFFFF0
0007FFFFFFF8
000FFFE0FFF8
001FFE001FFC
003FF8000FFC
007FF00007FE
007FE00003FE
00FFC00003FE
01FF800001FE
01FF000001FF
03FF000001FF
03FE000001FF
03FE000001FF
07FC000001FF
07FC000001FF
07FC000001FF
07FC000001FF
0FF8000001FF
0FF8000001FF
0FF8000001FF
0FF8000001FF
0FF8000001FF
0FF8000003FE
07FC000003FE
07FC000003FE
07FE00000FFE
07FF00003FFE
03FFC001FFFE
03FFFCFFFFFC
01FFFFFFFFFC
00FFFFFFFFFC
007FFFFFFFFC
003FFFFFEFF8
000FFFFF0FF8
0003FFF80FF8
000000001FF0
000000001FF0
000000003FE0
000000003FE0
000000007FC0
000000007FC0
00000000FF80
00000001FF80
00000003FF00
00000007FE00
0000000FFE00
0000001FFC00
0000003FF800
000000FFF000
000003FFE000
00000FFFC000
0000FFFF8000
01FFFFFE0000
7FFFFFFC0000
7FFFFFF00000
7FFFFFE00000
7FFFFF000000
FFFFFC000000
FFFFC0000000
FFF800000000
ENDCHAR
STARTCHAR 003A
ENCODING 58
SWIDTH 550 0
DWIDTH 55 0
BBX 22 51 16 -1
BITMAP
0007C0
001FE0
003FF8
007FF8
00FFFC
00FFFC
00FFFC
01FFFC
00FFFC
00FFFC
00FFFC
00FFF8
007FF0
003FE0
000FC0
000000
000000
000000
000000
000000
000000
000000
000000
000000
000000
000000
000000
000000
000000
000000
000000
000000
000000
000000
000000
000000
07E000
1FF800
3FFC00
3FFC00
7FFE00
7FFE00
FFFE00
FFFE00
FFFE00
7FFE00
7FFC00
7FFC00
3FF800
1FF000
07C000
ENDCHAR
STARTCHAR 003B
ENCODING 59
SWIDTH 550 0
DWIDTH 55 0
BBX 33 67 5 -17
BITMAP
000000F800
000003FC00
000007FF00
00000FFF00
00001FFF80
00001FFF80
00001FFF80
00003FFF80
00001FFF80
00001FFF80
00001FFF80
00001FFF00
00000FFE00
000007FC00
000001F800
0000000000
0000000000
0000000000
0000000000
0000000000
0000000000
0000000000
0000000000
0000000000
0000000000
0000000000
0000000000
0000000000
0000000000
0000000000
0000000000
0000000000
0000000000
0000000000
0000380000
0000FF0000
0003FF8000
0003FFC000
0007FFC000
0007FFC000
000FFFE000
000FFFE000
000FFFE000
000FFFE000
0007FFE000
0007FFE000
0003FFE000
0003FFC000
0001FFC000
0001FFC000
0001FF8000
0001FF8000
0003FF0000
0003FF0000
0007FE0000
0007FE0000
001FFC0000
003FF80000
00FFF00000
07FFE00000
FFFFC00000
FFFF800000
FFFE000000
FFFC000000
FFE0000000
FF80000000
E000000000
ENDCHAR
STARTCHAR 003C
ENCODING 60
SWIDTH 550 0
DWIDTH 55 0
BBX 42 55 7 -1
BITMAP
000000000400
000000000E00
000000003F00
000000007F80
00000000FF80
00000003FFC0
00000007FFC0
0000001FFF00
0000003FFE00
0000007FF800
000001FFF000
000003FFC000
00000FFF8000
00001FFF0000
00003FFC0000
0000FFF80000
0001FFE00000
0007FFC00000
000FFF000000
001FFE000000
007FFC000000
00FFF0000000
03FFE0000000
07FF80000000
0FFF00000000
3FFC00000000
7FF800000000
FFF000000000
7FF000000000
3FF800000000
1FFC00000000
0FFE00000000
07FF00000000
03FF80000000
01FFC0000000
00FFE0000000
007FF0000000
003FF8000000
001FFC000000
000FFE000000
0007FF000000
0003FF800000
0001FFC00000
0000FFE00000
00007FF00000
00003FF80000
00001FFC0000
00000FFE0000
000007FF0000
000003FF8000
000001FF8000
000000FF0000
0000007C0000
000000380000
000000100000
ENDCHAR
STARTCHAR 003D
ENCODING 61
SWIDTH 550 0
DWIDTH 55 0
BBX 46 24 5 15
BITMAP
0FFFFFFFFFFC
0FFFFFFFFFFC
0FFFFFFFFFFC
0FFFFFFFFFFC
1FFFFFFFFFF8
1FFFFFFFFFF8
1FFFFFFFFFF8
000000000000
000000000000
000000000000
000000000000
000000000000
000000000000
000000000000
000000000000
000000000000
000000000000
7FFFFFFFFFE0
7FFFFFFFFFE0
FFFFFFFFFFC0
FFFFFFFFFFC0
FFFFFFFFFFC0
FFFFFFFFFFC0
FFFFFFFFFFC0
ENDCHAR
STARTCHAR 003E
ENCODING 62
SWIDTH 550 0
DWIDTH 55 0
BBX 42 55 6 -1
BITMAP
000200000000
000700000000
000F80000000
001FC0000000
007FE0000000
007FF0000000
003FF8000000
001FFC000000
000FFE000000
0007FF000000
0003FF800000
0001FFC00000
0000FFE00000
00007FF00000
00003FF80000
00001FFC0000
00000FFE0000
000007FF0000
000003FF8000
000001FFC000
000000FFE000
0000007FF000
0000003FF800
0000001FFC00
0000000FFE00
00000007FF00
00000003FF80
00000001FFC0
00000007FF80
0000000FFF00
0000003FFE00
0000007FF800
000000FFF000
000003FFC000
000007FF8000
00001FFF0000
00003FFC0000
0000FFF80000
0001FFE00000
0003FFC00000
000FFF800000
001FFE000000
007FFC000000
00FFF0000000
01FFE0000000
07FFC0000000
0FFF00000000
3FFE00000000
7FF800000000
FFF000000000
7FE000000000
3F8000000000
1F0000000000
0C0000000000
080000000000
ENDCHAR
STARTCHAR 003F
ENCODING 63
SWIDTH 550 0
DWIDTH 55 0
BBX 37 70 13 -1
BITMAP
003FC00000
003FFC0000
003FFF8000
003FFFE000
003FFFF800
007FFFFC00
007FFFFE00
007FFFFF00
00003FFF80
000007FFC0
000003FFE0
000000FFE0
0000007FE0
0000003FF0
0000003FF0
0000001FF0
0000001FF8
0000001FF8
0000001FF8
0000001FF8
0000001FF8
0000001FF8
0000001FF8
0000001FF0
0000001FF0
0000003FF0
0000003FF0
0000007FE0
000000FFE0
000001FFC0
000007FF80
0001FFFF80
007FFFFF00
007FFFFC00
007FFFF800
00FFFFE000
00FFFF8000
00FFFC0000
00FF000000
00FF000000
00FE000000
01FE000000
01FE000000
01FE000000
01FE000000
01FC000000
01FC000000
03FC000000
03FC000000
03FC000000
0000000000
0000000000
0000000000
0000000000
0000000000
0000000000
0000000000
07C0000000
1FE0000000
3FF0000000
7FF8000000
7FF8000000
7FF8000000
FFF8000000
7FF8000000
7FF8000000
7FF8000000
3FF0000000
1FE0000000
0780000000
ENDCHAR
STARTCHAR 0040
ENCODING 64
SWIDTH 550 0
DWIDTH 55 0
BBX 59 90 -2 -20
BITMAP
0000000001C00000
000000003FFF0000
00000001FFFFC000
00000007FFFFF000
0000000FFFFFF800
0000003FFFFFFC00
0000007FFC7FFE00
000000FFC007FE00
000001FF0001FF00
000007FE0000FF00
00000FF800007F80
00000FF000003F80
00001FE000003F80
00003FC000003FC0
00007F8000001FC0
0000FF0000001FC0
0001FE0000001FC0
0001FE0000000FE0
0003FC0000000FE0
0007F80000000FE0
0007F00000000FE0
000FF00000000FE0
000FE00000000FE0
001FE00000000FE0
001FC00000000FE0
003F8001FE0E0FE0
007F800FFFFE0FE0
007F001FFFFC0FE0
007F007FFFFC0FE0
00FE00FFFFFC0FE0
00FE01FFFFF80FE0
01FC01FF1FF80FC0
01FC03FE07F80FC0
03FC07FC07F01FC0
03F80FF80FF01FC0
03F80FF00FF01FC0
07F01FE00FE01FC0
07F01FE01FE01FC0
07F03FC01FE01FC0
0FE03FC01FC03F80
0FE03F803FC03F80
0FE07F803FC03F80
1FC07F803F803F80
1FC0FF007F807F80
1FC0FF007F807F00
1FC0FF007F807F00
3F80FE007F007F00
3F81FE00FF00FE00
3F81FE00FF00FE00
3F81FE01FE00FE00
3F01FC01FE01FC00
7F01FC01FE01FC00
7F03FC03FC03FC00
7F03FC03FC03F800
7F03FC07FC07F800
7E03FC07FC07F000
7E03FC0FFC0FF000
FE03FC0FFC0FE000
FE03FC1FFC1FE000
FE03FC3FFC3FC000
FE03FEFEFEFF8000
FE01FFFEFFFF8000
FE01FFFCFFFF0000
FE01FFF8FFFE0000
FE00FFF07FFC0000
FE007FE03FF00000
FE001F800FC00000
FE00000000000000
FE00000000000000
FE00000000000000
FE00000000000000
FE00000000000000
FE00000000000000
7F00000000000000
7F00000000000000
7F00000000000000
7F80000000000000
7F80000000000000
3FC0000000000000
3FC0000000000000
1FE0000000000000
1FF0000038000000
0FF80000F8000000
0FFE000FF8000000
07FFFFFFF8000000
03FFFFFFF8000000
01FFFFFFF8000000
007FFFFFE0000000
003FFFFF00000000
0007FFF000000000
ENDCHAR
STARTCHAR 0041
ENCODING 65
SWIDTH 550 0
DWIDTH 55 0
BBX 53 64 -4 0
BITMAP
000000007FF800
000000007FFC00
00000000FFFC00
00000000FFFC00
00000001FFFC00
00000001FFFC00
00000003FFFC00
00000003FFFC00
00000007FFFC00
00000007FBFE00
0000000FFBFE00
0000001FF3FE00
0000001FF3FE00
0000003FE3FE00
0000003FE1FE00
0000007FC1FE00
0000007FC1FE00
000000FF81FF00
000000FF01FF00
000001FF01FF00
000001FE01FF00
000003FE01FF00
000003FC01FF00
000007FC00FF00
000007F800FF80
00000FF800FF80
00001FF000FF80
00001FF000FF80
00003FE000FF80
00003FE000FF80
00007FC000FF80
00007FC000FF80
0000FF80007FC0
0000FF80007FC0
0001FF00007FC0
0001FF00007FC0
0003FE00007FC0
0003FE00007FC0
0007FC00007FC0
0007FC00007FC0
000FF800007FE0
001FF800003FE0
001FFFFFFFFFE0
003FFFFFFFFFE0
003FFFFFFFFFE0
007FFFFFFFFFE0
007FFFFFFFFFE0
00FFFFFFFFFFE0
00FFFFFFFFFFF0
01FFFFFFFFFFF0
01FF0000001FF0
03FE0000001FF0
03FE0000001FF0
07FC0000001FF0
07FC0000001FF0
0FF80000001FF0
1FF80000001FF8
1FF00000000FF8
3FF00000000FF8
3FE00000000FF8
7FE00000000FF8
7FC00000000FF8
FFC00000000FF8
FF800000000FF8
ENDCHAR
STARTCHAR 0042
ENCODING 66
SWIDTH 550 0
DWIDTH 55 0
BBX 49 64 3 0
BITMAP
000FFFFFE00000
000FFFFFFF0000
000FFFFFFFE000
000FFFFFFFF800
000FFFFFFFFC00
001FFFFFFFFE00
001FFFFFFFFF00
001FF007FFFF00
001FF0000FFF80
001FE00003FF80
003FE00001FF80
003FE00001FF80
003FE00000FF80
003FE00000FF80
003FC00000FF80
007FC00000FF80
007FC00000FF80
007FC00000FF80
007FC00001FF00
007F800001FF00
00FF800003FF00
00FF800003FE00
00FF800007FE00
00FF80000FFC00
00FF00001FF800
01FF00007FF000
01FF0001FFE000
01FFFFFFFFC000
01FFFFFFFF0000
01FFFFFFFC0000
03FFFFFFE00000
03FFFFFFFE0000
03FFFFFFFF8000
03FFFFFFFFC000
03FFFFFFFFE000
07FC0003FFF000
07FC0000FFF000
07FC00003FF800
07FC00001FF800
07F800000FF800
0FF800000FFC00
0FF800000FFC00
0FF800000FFC00
0FF800000FFC00
0FF000000FFC00
1FF000000FF800
1FF000000FF800
1FF000000FF800
1FF000001FF800
1FE000001FF000
3FE000003FF000
3FE000007FE000
3FE00000FFE000
3FE00001FFC000
3FC00007FF8000
7FC0001FFF0000
7FC003FFFF0000
7FFFFFFFFC0000
7FFFFFFFF80000
7FFFFFFFF00000
FFFFFFFFC00000
FFFFFFFF000000
FFFFFFF8000000
FFFFFF00000000
ENDCHAR
STARTCHAR 0043
ENCODING 67
SWIDTH 550 0
DWIDTH 55 0
BBX 51 66 5 -1
BITMAP
000000003C0000
0000001FFFF800
000000FFFFFF80
000007FFFFFFE0
00001FFFFFFFE0
00003FFFFFFFE0
0000FFFFFFFFC0
0001FFFFFFFFC0
0003FFFE00FFC0
0007FFE0000FC0
000FFF800003C0
001FFE00000080
003FFC00000000
007FF000000000
007FE000000000
00FFC000000000
01FFC000000000
01FF8000000000
03FF0000000000
03FE0000000000
07FE0000000000
07FC0000000000
0FFC0000000000
0FF80000000000
1FF80000000000
1FF00000000000
3FF00000000000
3FF00000000000
3FE00000000000
3FE00000000000
7FE00000000000
7FC00000000000
7FC00000000000
7FC00000000000
FFC00000000000
FFC00000000000
FF800000000000
FF800000000000
FF800000000000
FF800000000000
FF800000000000
FF800000000000
FF800000000000
FF800000000000
FF800000000000
FF800000000000
FF800000000000
FFC00000000000
FFC00000000000
FFC00000000000
FFE00000000000
7FE00000000000
7FF00000000000
7FF00000000000
3FF80000008000
3FFE0000038000
1FFF00001F0000
1FFFE001FF0000
0FFFFFFFFF0000
07FFFFFFFF0000
03FFFFFFFF0000
01FFFFFFFE0000
007FFFFFFE0000
001FFFFFF80000
0007FFFF800000
00003FF0000000
ENDCHAR
STARTCHAR 0044
ENCODING 68
SWIDTH 550 0
DWIDTH 55 0
BBX 54 64 0 0
BITMAP
0007FFFFE00000
0007FFFFFF0000
0007FFFFFFE000
000FFFFFFFF800
000FFFFFFFFC00
000FFFFFFFFF00
000FFFFFFFFF80
000FF00FFFFFC0
001FF0000FFFC0
001FF00001FFE0
001FF00000FFF0
001FF000007FF0
001FE000003FF0
003FE000001FF8
003FE000001FF8
003FE000000FF8
003FE000000FF8
003FC000000FFC
007FC0000007FC
007FC0000007FC
007FC0000007FC
007FC0000007FC
007F80000007FC
00FF80000007FC
00FF80000007FC
00FF80000007FC
00FF80000007FC
00FF00000007FC
01FF0000000FF8
01FF0000000FF8
01FF0000000FF8
01FF0000000FF8
01FE0000000FF8
03FE0000000FF8
03FE0000001FF0
03FE0000001FF0
03FE0000001FF0
03FC0000003FF0
07FC0000003FE0
07FC0000003FE0
07FC0000007FE0
07FC0000007FC0
07F8000000FFC0
0FF8000000FF80
0FF8000001FF80
0FF8000003FF00
0FF8000003FF00
0FF0000007FE00
1FF000000FFE00
1FF000001FFC00
1FF000003FF800
1FF000007FF000
1FE00001FFE000
3FE00003FFE000
3FE0001FFFC000
3FE000FFFF8000
3FFFFFFFFE0000
3FFFFFFFFC0000
7FFFFFFFF00000
7FFFFFFFE00000
7FFFFFFF800000
7FFFFFFC000000
7FFFFFE0000000
FFFFFC00000000
ENDCHAR
STARTCHAR 0045
ENCODING 69
SWIDTH 550 0
DWIDTH 55 0
BBX 49 64 5 0
BITMAP
000FFFFFFFFF80
000FFFFFFFFF80
000FFFFFFFFF00
000FFFFFFFFF00
000FFFFFFFFF00
001FFFFFFFFF00
001FFFFFFFFF00
001FF000000000
001FF000000000
001FE000000000
003FE000000000
003FE000000000
003FE000000000
003FE000000000
003FC000000000
007FC000000000
007FC000000000
007FC000000000
007FC000000000
007F8000000000
00FF8000000000
00FF8000000000
00FF8000000000
00FF8000000000
00FF0000000000
01FF0000000000
01FF0000000000
01FFFFFFFFC000
01FFFFFFFFC000
01FFFFFFFFC000
03FFFFFFFFC000
03FFFFFFFFC000
03FFFFFFFF8000
03FFFFFFFF8000
03FFFFFFFF8000
07FC0000000000
07FC0000000000
07FC0000000000
07FC0000000000
07F80000000000
0FF80000000000
0FF80000000000
0FF80000000000
0FF80000000000
0FF00000000000
1FF00000000000
1FF00000000000
1FF00000000000
1FF00000000000
1FE00000000000
3FE00000000000
3FE00000000000
3FE00000000000
3FE00000000000
3FC00000000000
7FC00000000000
7FC00000000000
7FFFFFFFF80000
7FFFFFFFF80000
7FFFFFFFF80000
FFFFFFFFF80000
FFFFFFFFF80000
FFFFFFFFF00000
FFFFFFFFF00000
ENDCHAR
STARTCHAR 0046
ENCODING 70
SWIDTH 550 0
DWIDTH 55 0
BBX 49 64 5 0
BITMAP
0007FFFFFFFF80
0007FFFFFFFF80
000FFFFFFFFF00
000FFFFFFFFF00
000FFFFFFFFF00
000FFFFFFFFF00
000FFFFFFFFF00
001FFFFFFFFE00
001FF000000000
001FF000000000
001FF000000000
001FE000000000
003FE000000000
003FE000000000
003FE000000000
003FE000000000
003FC000000000
007FC000000000
007FC000000000
007FC000000000
007FC000000000
007F8000000000
00FF8000000000
00FF8000000000
00FF8000000000
00FF8000000000
00FF0000000000
01FF0000000000
01FFFFFFFFC000
01FFFFFFFF8000
01FFFFFFFF8000
01FFFFFFFF8000
03FFFFFFFF8000
03FFFFFFFF8000
03FFFFFFFF8000
03FFFFFFFF0000
07FC0000000000
07FC0000000000
07FC0000000000
07FC0000000000
07FC0000000000
0FF80000000000
0FF80000000000
0FF80000000000
0FF80000000000
0FF80000000000
1FF00000000000
1FF00000000000
1FF00000000000
1FF00000000000
1FF00000000000
3FE00000000000
3FE00000000000
3FE00000000000
3FE00000000000
3FE00000000000
7FC00000000000
7FC00000000000
7FC00000000000
7FC00000000000
7FC00000000000
FF800000000000
FF800000000000
FF800000000000
ENDCHAR
STARTCHAR 0047
ENCODING 71
SWIDTH 550 0
DWIDTH 55 0
BBX 52 66 4 -1
BITMAP
000000003F8000
0000001FFFFE00
000000FFFFFFC0
000003FFFFFFF0
00000FFFFFFFF0
00003FFFFFFFF0
00007FFFFFFFF0
0001FFFFFFFFF0
0003FFFF007FE0
0007FFF00007E0
000FFFC00000E0
001FFF00000020
003FFC00000000
007FF800000000
007FF000000000
00FFE000000000
01FFC000000000
01FF8000000000
03FF0000000000
07FE0000000000
07FE0000000000
0FFC0000000000
0FFC0000000000
1FF80000000000
1FF80000000000
1FF00000000000
3FF00000000000
3FE00000000000
3FE00000000000
7FE0003FFFFF00
7FC0003FFFFE00
7FC0007FFFFE00
7FC0007FFFFE00
FFC0007FFFFE00
FF80007FFFFE00
FF80007FFFFC00
FF80007FFFFC00
FF80000007FC00
FF80000007FC00
FF80000007FC00
FF80000007F800
FF8000000FF800
FF8000000FF800
FF8000000FF800
FF8000000FF800
FF8000000FF000
FF8000001FF000
FF8000001FF000
FF8000001FF000
FFC000001FF000
FFC000001FE000
7FC000003FE000
7FE000003FE000
7FF000003FE000
3FF800003FE000
3FFC00003FC000
1FFF00007FC000
1FFFE001FFC000
0FFFFFFFFFC000
07FFFFFFFFC000
03FFFFFFFF8000
01FFFFFFFF8000
007FFFFFFF0000
001FFFFFF80000
0007FFFFC00000
00003FF0000000
ENDCHAR
STARTCHAR 0048
ENCODING 72
SWIDTH 550 0
DWIDTH 55 0
BBX 57 64 0 0
BITMAP
0007FC0000007F80
0007FC000000FF80
0007F8000000FF80
0007F8000000FF80
000FF8000000FF80
000FF8000000FF00
000FF8000001FF00
000FF0000001FF00
001FF0000001FF00
001FF0000001FF00
001FF0000001FE00
001FF0000003FE00
001FE0000003FE00
003FE0000003FE00
003FE0000003FE00
003FE0000003FC00
003FE0000007FC00
003FC0000007FC00
007FC0000007FC00
007FC0000007FC00
007FC0000007F800
007FC000000FF800
007F8000000FF800
00FF8000000FF800
00FF8000000FF800
00FF8000000FF000
00FF8000001FF000
00FFFFFFFFFFF000
01FFFFFFFFFFF000
01FFFFFFFFFFF000
01FFFFFFFFFFE000
01FFFFFFFFFFE000
01FFFFFFFFFFE000
03FFFFFFFFFFE000
03FFFFFFFFFFE000
03FE0000003FC000
03FE0000007FC000
03FC0000007FC000
07FC0000007FC000
07FC0000007FC000
07FC0000007F8000
07FC000000FF8000
07F8000000FF8000
0FF8000000FF8000
0FF8000000FF8000
0FF8000000FF0000
0FF8000001FF0000
0FF0000001FF0000
1FF0000001FF0000
1FF0000001FF0000
1FF0000001FE0000
1FF0000003FE0000
1FE0000003FE0000
3FE0000003FE0000
3FE0000003FE0000
3FE0000003FC0000
3FE0000007FC0000
3FC0000007FC0000
7FC0000007FC0000
7FC0000007F80000
7FC0000007F80000
7FC000000FF80000
7F8000000FF80000
FF8000000FF80000
ENDCHAR
STARTCHAR 0049
ENCODING 73
SWIDTH 550 0
DWIDTH 55 0
BBX 50 64 4 0
BITMAP
000FFFFFFFFFC0
000FFFFFFFFFC0
000FFFFFFFFFC0
000FFFFFFFFFC0
001FFFFFFFFFC0
001FFFFFFFFF80
001FFFFFFFFF80
001FFFFFC00000
0000007FC00000
0000007FC00000
0000007FC00000
0000007F800000
000000FF800000
000000FF800000
000000FF800000
000000FF800000
000000FF000000
000001FF000000
000001FF000000
000001FF000000
000001FF000000
000001FE000000
000003FE000000
000003FE000000
000003FE000000
000003FE000000
000003FC000000
000007FC000000
000007FC000000
000007FC000000
000007FC000000
000007F8000000
00000FF8000000
00000FF8000000
00000FF8000000
00000FF8000000
00000FF0000000
00001FF0000000
00001FF0000000
00001FF0000000
00001FF0000000
00001FE0000000
00003FE0000000
00003FE0000000
00003FE0000000
00003FE0000000
00003FC0000000
00007FC0000000
00007FC0000000
00007FC0000000
00007FC0000000
00007F80000000
0000FF80000000
0000FF80000000
0000FF80000000
0000FF80000000
0000FF00000000
7FFFFFFFFE0000
FFFFFFFFFE0000
FFFFFFFFFE0000
FFFFFFFFFC0000
FFFFFFFFFC0000
FFFFFFFFFC0000
FFFFFFFFFC0000
ENDCHAR
STARTCHAR 004A
ENCODING 74
SWIDTH 550 0
DWIDTH 55 0
BBX 49 65 2 -1
BITMAP
0001FFFFFFFF80
0001FFFFFFFF00
0001FFFFFFFF00
0001FFFFFFFF00
0001FFFFFFFF00
0003FFFFFFFF00
0003FFFFFFFE00
0003FFFFFFFE00
0000000003FE00
0000000003FE00
0000000003FE00
0000000007FC00
0000000007FC00
0000000007FC00
0000000007FC00
0000000007FC00
000000000FF800
000000000FF800
000000000FF800
000000000FF800
000000000FF800
000000001FF000
000000001FF000
000000001FF000
000000001FF000
000000001FF000
000000003FE000
000000003FE000
000000003FE000
000000003FE000
000000003FE000
000000007FC000
000000007FC000
000000007FC000
000000007FC000
000000007FC000
00000000FF8000
00000000FF8000
00000000FF8000
00000000FF8000
00000000FF8000
00000001FF0000
00000001FF0000
00000001FF0000
00000001FF0000
00000001FF0000
00000003FE0000
00000003FE0000
00000003FE0000
00000007FC0000
00000007FC0000
0000000FFC0000
0000001FF80000
0C00003FF80000
1F00007FF00000
3F8000FFE00000
7FF007FFE00000
7FFFFFFFC00000
FFFFFFFF800000
7FFFFFFE000000
3FFFFFFC000000
0FFFFFF8000000
03FFFFE0000000
00FFFF00000000
0003C000000000
ENDCHAR
STARTCHAR 004B
ENCODING 75
SWIDTH 550 0
DWIDTH 55 0
BBX 55 64 3 0
BITMAP
000FF800000FFE
000FF800001FFC
000FF800003FF8
000FF000007FF0
001FF00000FFE0
001FF00001FFC0
001FF00003FF80
001FF00007FF00
001FE0000FFE00
003FE0001FFC00
003FE0003FF800
003FE0007FF000
003FE000FFE000
003FC001FFC000
007FC003FF0000
007FC007FE0000
007FC00FFC0000
007FC01FF80000
007F803FF00000
00FF807FE00000
00FF80FFC00000
00FF81FF800000
00FF83FF000000
00FF07FE000000
01FF0FFC000000
01FF1FF8000000
01FF3FF0000000
01FF7FE0000000
01FEFFC0000000
03FFFF80000000
03FFFF00000000
03FFFF00000000
03FFFF00000000
03FDFF80000000
07FCFF80000000
07FCFFC0000000
07FC7FE0000000
07FC3FE0000000
07F83FF0000000
0FF81FF0000000
0FF81FF8000000
0FF80FFC000000
0FF80FFC000000
0FF007FE000000
1FF007FE000000
1FF003FF000000
1FF001FF000000
1FF001FF800000
1FE000FFC00000
3FE000FFC00000
3FE0007FE00000
3FE0007FE00000
3FE0003FF00000
3FC0001FF80000
7FC0001FF80000
7FC0000FFC0000
7FC0000FFC0000
7FC00007FE0000
7F800007FE0000
FF800003FF0000
FF800003FF8000
FF800001FF8000
FF800000FFC000
FF000000FFC000
ENDCHAR
STARTCHAR 004C
ENCODING 76
SWIDTH 550 0
DWIDTH 55 0
BBX 38 64 6 0
BITMAP
0007FC0000
0007FC0000
0007FC0000
0007F80000
000FF80000
000FF80000
000FF80000
000FF80000
001FF00000
001FF00000
001FF00000
001FF00000
001FF00000
003FE00000
003FE00000
003FE00000
003FE00000
003FE00000
007FC00000
007FC00000
007FC00000
007FC00000
007FC00000
00FF800000
00FF800000
00FF800000
00FF800000
00FF800000
01FF000000
01FF000000
01FF000000
01FF000000
01FF000000
03FE000000
03FE000000
03FE000000
03FE000000
03FE000000
07FC000000
07FC000000
07FC000000
07FC000000
07FC000000
0FF8000000
0FF8000000
0FF8000000
0FF8000000
0FF0000000
1FF0000000
1FF0000000
1FF0000000
1FF0000000
1FE0000000
3FE0000000
3FE0000000
3FE0000000
3FE0000000
3FFFFFFFFC
7FFFFFFFFC
7FFFFFFFFC
7FFFFFFFFC
7FFFFFFFFC
7FFFFFFFF8
FFFFFFFFF8
ENDCHAR
STARTCHAR 004D
ENCODING 77
SWIDTH 550 0
DWIDTH 55 0
BBX 59 64 -2 0
BITMAP
0001FF800000FFE0
0001FF800000FFE0
0001FFC00001FFE0
0003FFC00003FFE0
0003FFC00003FFE0
0003FFC00007FFE0
0003FFC00007FFC0
0007FFC0000FFFC0
0007FFE0000FFFC0
0007FFE0001FFFC0
0007FFE0003FBFC0
000FEFE0003FBFC0
000FEFE0007F3F80
000FEFE0007F3F80
000FEFE000FE7F80
001FE7F001FE7F80
001FC7F001FC7F80
001FC7F003FC7F80
001FC7F003F87F80
003FC7F007F87F00
003F87F007F0FF00
003F87F80FE0FF00
003F83F81FE0FF00
007F83F81FC0FF00
007F83F83FC0FF00
007F03F83F80FE00
007F03F87F81FE00
00FF03F87F01FE00
00FF01FCFE01FE00
00FE01FCFE01FE00
00FE01FDFC01FE00
01FE01FDFC01FE00
01FE01FFF803FC00
01FE01FFF803FC00
01FC00FFF003FC00
03FC00FFE003FC00
03FC00FFE003FC00
03FC00FFC003FC00
03F800FFC007FC00
07F800FF8007F800
07F8007F8007F800
07F8007F0007F800
07F8007F0007F800
0FF000000007F800
0FF00000000FF800
0FF00000000FF000
0FF00000000FF000
1FE00000000FF000
1FE00000000FF000
1FE00000000FF000
1FE00000001FF000
1FC00000001FF000
3FC00000001FE000
3FC00000001FE000
3FC00000001FE000
3FC00000001FE000
7F800000003FE000
7F800000003FE000
7F800000003FC000
7F800000003FC000
FF000000003FC000
FF000000003FC000
FF000000007FC000
FF000000007FC000
ENDCHAR
STARTCHAR 004E
ENCODING 78
SWIDTH 550 0
DWIDTH 55 0
BBX 56 64 1 0
BITMAP
0007FF000000FF
000FFF000001FE
000FFF000001FE
000FFF000001FE
000FFF800001FE
000FFF800001FE
001FFF800003FC
001FFFC00003FC
001FFFC00003FC
001FFFC00003FC
001FFFC00003FC
003FFFE00007F8
003FDFE00007F8
003FDFE00007F8
003FDFE00007F8
003FDFF00007F8
007FCFF0000FF0
007F8FF0000FF0
007F8FF0000FF0
007F8FF8000FF0
007F87F8000FF0
00FF87F8001FE0
00FF07FC001FE0
00FF07FC001FE0
00FF03FC001FE0
00FF03FC001FE0
01FF03FE003FC0
01FE03FE003FC0
01FE01FE003FC0
01FE01FE003FC0
01FE01FF003FC0
03FE01FF007F80
03FC00FF007F80
03FC00FF007F80
03FC00FF807F80
03FC00FF807F80
07FC007F80FF00
07F8007FC0FF00
07F8007FC0FF00
07F8003FC0FF00
07F8003FC0FF00
0FF8003FE1FE00
0FF0003FE1FE00
0FF0001FE1FE00
0FF0001FE1FE00
0FF0001FE1FE00
1FF0001FF3FC00
1FE0000FF3FC00
1FE0000FF3FC00
1FE0000FF3FC00
1FE0000FFBFC00
3FE00007FFF800
3FC00007FFF800
3FC00007FFF800
3FC00003FFF800
3FC00003FFF800
7FC00003FFF000
7F800003FFF000
7F800001FFF000
7F800001FFF000
7F800001FFF000
FF800001FFE000
FF000000FFE000
FF000000FFE000
ENDCHAR
STARTCHAR 004F
ENCODING 79
SWIDTH 550 0
DWIDTH 55 0
BBX 52 66 3 -1
BITMAP
00000003E00000
000000FFFF0000
000003FFFFE000
00000FFFFFF000
00003FFFFFFC00
00007FFFFFFE00
0001FFFFFFFE00
0003FFFFFFFF00
0007FFE00FFF80
000FFF8003FF80
001FFE0001FFC0
003FFC0000FFC0
003FF000007FE0
007FE000007FE0
00FFC000003FE0
00FFC000003FE0
01FF8000003FE0
03FF0000001FF0
03FF0000001FF0
07FE0000001FF0
07FE0000001FF0
07FC0000001FF0
0FFC0000001FF0
0FF80000001FF0
1FF80000001FF0
1FF00000001FF0
1FF00000001FF0
3FF00000001FF0
3FE00000001FE0
3FE00000003FE0
3FE00000003FE0
7FE00000003FE0
7FC00000003FE0
7FC00000003FE0
7FC00000007FE0
7FC00000007FC0
7FC00000007FC0
FF800000007FC0
FF80000000FF80
FF80000000FF80
FF80000000FF80
FF80000001FF80
FF80000001FF00
FF80000003FF00
FF80000003FE00
FF80000007FE00
FF80000007FC00
FF8000000FFC00
FF8000000FF800
FF8000001FF800
FFC000003FF000
7FC000003FF000
7FE000007FE000
7FE00000FFC000
3FF00001FFC000
3FF80007FF8000
3FFC000FFF0000
1FFF007FFE0000
1FFFFFFFFC0000
0FFFFFFFF80000
07FFFFFFF00000
03FFFFFFC00000
01FFFFFF800000
007FFFFE000000
001FFFF0000000
0001FF00000000
ENDCHAR
STARTCHAR 0050
ENCODING 80
SWIDTH 550 0
DWIDTH 55 0
BBX 51 64 3 0
BITMAP
000FFFFFE00000
000FFFFFFF0000
000FFFFFFFC000
000FFFFFFFF000
000FFFFFFFFC00
001FFFFFFFFE00
001FFFFFFFFF00
001FF007FFFF00
001FF0000FFF80
001FE00003FFC0
003FE00001FFC0
003FE00000FFC0
003FE000007FC0
003FE000007FE0
003FC000007FE0
007FC000003FE0
007FC000003FE0
007FC000003FE0
007FC000003FE0
007F8000007FE0
00FF8000007FC0
00FF8000007FC0
00FF8000007FC0
00FF800000FFC0
00FF000000FF80
01FF000001FF80
01FF000001FF00
01FF000003FF00
01FF000007FE00
01FE00000FFC00
03FE00001FFC00
03FE00007FF800
03FE0003FFF000
03FE003FFFE000
03FFFFFFFFC000
07FFFFFFFF0000
07FFFFFFFE0000
07FFFFFFF80000
07FFFFFFE00000
07FFFFFF000000
0FFFFFF0000000
0FF80000000000
0FF80000000000
0FF80000000000
0FF00000000000
1FF00000000000
1FF00000000000
1FF00000000000
1FF00000000000
1FE00000000000
3FE00000000000
3FE00000000000
3FE00000000000
3FE00000000000
3FC00000000000
7FC00000000000
7FC00000000000
7FC00000000000
7FC00000000000
7F800000000000
FF800000000000
FF800000000000
FF800000000000
FF000000000000
ENDCHAR
STARTCHAR 0051
ENCODING 81
SWIDTH 550 0
DWIDTH 55 0
BBX 52 83 3 -18
BITMAP
00000003E00000
000000FFFF0000
000003FFFFE000
00000FFFFFF000
00003FFFFFFC00
00007FFFFFFE00
0001FFFFFFFE00
0003FFFFFFFF00
0007FFE00FFF80
000FFF8003FF80
001FFE0001FFC0
003FFC0000FFC0
003FF000007FE0
007FE000007FE0
00FFC000003FE0
00FFC000003FE0
01FF8000003FE0
03FF0000001FF0
03FF0000001FF0
07FE0000001FF0
07FE0000001FF0
07FC0000001FF0
0FFC0000001FF0
0FF80000001FF0
1FF80000001FF0
1FF00000001FF0
1FF00000001FF0
3FF00000001FF0
3FE00000001FF0
3FE00000003FE0
3FE00000003FE0
7FE00000003FE0
7FC00000003FE0
7FC00000003FE0
7FC00000007FE0
7FC00000007FC0
7FC00000007FC0
FF800000007FC0
FF80000000FFC0
FF80000000FF80
FF80000000FF80
FF80000001FF80
FF80000001FF00
FF80000003FF00
FF80000003FE00
FF80000007FE00
FF80000007FC00
FF8000000FFC00
FF8000000FF800
FF8000001FF800
FFC000003FF000
7FC000003FF000
7FE000007FE000
7FE00000FFC000
7FF00001FFC000
3FF80007FF8000
3FFC000FFF0000
1FFF007FFE0000
1FFFFFFFFC0000
0FFFFFFFF80000
07FFFFFFF00000
03FFFFFFC00000
01FFFFFF800000
007FFFFE000000
001FFFF0000000
0001FF00000000
0001FE00000000
0003FE00000000
0003FE00000000
0001FE00000000
0001FE00000000
0001FF00000000
0001FF8000C000
0001FFC003C000
0000FFF00FE000
0000FFFFFFF000
00007FFFFFF000
00007FFFFFF800
00003FFFFFF000
00001FFFFFC000
000007FFFF0000
000001FFF80000
00000006000000
ENDCHAR
STARTCHAR 0052
ENCODING 82
SWIDTH 550 0
DWIDTH 55 0
BBX 48 64 3 0
BITMAP
0007FFFFE000
0007FFFFFE00
0007FFFFFFC0
000FFFFFFFE0
000FFFFFFFF0
000FFFFFFFF8
000FFFFFFFFC
000FF007FFFE
001FF0001FFE
001FF00007FF
001FF00003FF
001FF00003FF
001FE00001FF
003FE00001FF
003FE00001FF
003FE00001FF
003FE00001FF
003FC00001FF
007FC00001FF
007FC00003FE
007FC00003FE
007FC00007FE
007F800007FC
00FF80000FFC
00FF80001FF8
00FF80003FF0
00FF8000FFE0
00FF0003FFC0
01FF00FFFF80
01FFFFFFFF00
01FFFFFFFE00
01FFFFFFF800
01FFFFFFE000
03FFFFFF0000
03FFFFFF8000
03FFFFFFC000
03FC00FFC000
03FC007FE000
07FC003FF000
07FC001FF000
07FC001FF000
07FC000FF800
07F8000FF800
0FF8000FF800
0FF80007FC00
0FF80007FC00
0FF80007FC00
0FF00007FC00
1FF00003FE00
1FF00003FE00
1FF00003FE00
1FF00003FF00
1FE00001FF00
3FE00001FF00
3FE00001FF00
3FE00001FF80
3FE00000FF80
3FC00000FF80
7FC00000FFC0
7FC000007FC0
7FC000007FC0
7FC000007FC0
7F8000007FE0
FF8000003FE0
ENDCHAR
STARTCHAR 0053
ENCODING 83
SWIDTH 550 0
DWIDTH 55 0
BBX 51 66 1 -1
BITMAP
000000007F0000
0000003FFFFF00
000001FFFFFFE0
000007FFFFFFE0
00001FFFFFFFE0
00007FFFFFFFE0
0000FFFFFFFFC0
0001FFFFFFFFC0
0003FFF8001FC0
0007FF800000C0
000FFE00000000
000FFC00000000
001FF800000000
001FF000000000
003FF000000000
003FE000000000
003FE000000000
003FE000000000
003FE000000000
003FE000000000
003FE000000000
003FF000000000
003FF000000000
003FF800000000
001FFC00000000
001FFF00000000
000FFF80000000
000FFFE0000000
0007FFF8000000
0003FFFF000000
0001FFFFC00000
00007FFFE00000
00003FFFF80000
00000FFFFE0000
000003FFFF0000
000000FFFF8000
0000003FFFC000
0000000FFFE000
00000003FFF000
00000000FFF800
000000007FF800
000000003FF800
000000001FFC00
000000000FFC00
000000000FFC00
0000000007FC00
0000000007FC00
0000000007FC00
0000000007FC00
0000000007FC00
000000000FFC00
000000000FF800
000000001FF800
000000003FF000
000000007FF000
40000000FFE000
78000003FFE000
7FC0001FFFC000
7FFFFFFFFF8000
FFFFFFFFFF0000
FFFFFFFFFC0000
FFFFFFFFF80000
FFFFFFFFE00000
FFFFFFFF800000
1FFFFFF8000000
001FFF00000000
ENDCHAR
STARTCHAR 0054
ENCODING 84
SWIDTH 550 0
DWIDTH 55 0
BBX 48 64 11 0
BITMAP
7FFFFFFFFFFF
7FFFFFFFFFFE
7FFFFFFFFFFE
FFFFFFFFFFFE
FFFFFFFFFFFE
FFFFFFFFFFFE
FFFFFFFFFFFC
FFFFFFFFFFFC
00003FE00000
00003FE00000
00003FE00000
00003FC00000
00007FC00000
00007FC00000
00007FC00000
00007FC00000
00007F800000
0000FF800000
0000FF800000
0000FF800000
0000FF800000
0000FF000000
0001FF000000
0001FF000000
0001FF000000
0001FF000000
0001FE000000
0003FE000000
0003FE000000
0003FE000000
0003FE000000
0003FC000000
0007FC000000
0007FC000000
0007FC000000
0007FC000000
0007F8000000
000FF8000000
000FF8000000
000FF8000000
000FF8000000
000FF0000000
001FF0000000
001FF0000000
001FF0000000
001FF0000000
001FE0000000
003FE0000000
003FE0000000
003FE0000000
003FE0000000
003FC0000000
007FC0000000
007FC0000000
007FC0000000
007FC0000000
007F80000000
00FF80000000
00FF80000000
00FF80000000
00FF80000000
00FF00000000
01FF00000000
01FF00000000
ENDCHAR
STARTCHAR 0055
ENCODING 85
SWIDTH 550 0
DWIDTH 55 0
BBX 53 65 4 -1
BITMAP
007FC0000007F8
007FC000000FF8
007F8000000FF8
00FF8000000FF8
00FF8000000FF8
00FF8000000FF0
00FF8000001FF0
00FF0000001FF0
01FF0000001FF0
01FF0000001FF0
01FF0000001FE0
01FF0000003FE0
01FE0000003FE0
03FE0000003FE0
03FE0000003FE0
03FE0000003FC0
03FE0000007FC0
03FC0000007FC0
07FC0000007FC0
07FC0000007FC0
07FC0000007F80
07FC000000FF80
07F8000000FF80
0FF8000000FF80
0FF8000000FF80
0FF8000000FF00
0FF8000001FF00
0FF0000001FF00
1FF0000001FF00
1FF0000001FF00
1FF0000001FE00
1FE0000003FE00
1FE0000003FE00
3FE0000003FE00
3FE0000003FE00
3FE0000003FC00
3FC0000007FC00
3FC0000007FC00
7FC0000007FC00
7FC0000007FC00
7FC0000007F800
7F8000000FF800
7F8000000FF800
FF8000000FF800
FF8000000FF000
FF8000001FF000
FF8000001FF000
FF8000001FF000
FF8000003FE000
FF8000003FE000
FF8000007FC000
FF800000FFC000
FF800000FF8000
FFC00001FF8000
7FC00003FF0000
7FE0000FFE0000
7FF8003FFC0000
3FFFC7FFF80000
3FFFFFFFF00000
1FFFFFFFE00000
0FFFFFFFC00000
07FFFFFF000000
01FFFFFC000000
007FFFF0000000
0007FE00000000
ENDCHAR
STARTCHAR 0056
ENCODING 86
SWIDTH 550 0
DWIDTH 55 0
BBX 54 64 8 0
BITMAP
FF8000000007FC
FFC00000000FFC
FFC00000000FF8
FFC00000001FF8
7FC00000001FF0
7FC00000003FF0
7FC00000003FE0
7FC00000007FE0
7FC00000007FC0
7FE0000000FFC0
7FE0000001FF80
3FE0000001FF00
3FE0000003FF00
3FE0000003FE00
3FE0000007FE00
3FE0000007FC00
3FE000000FFC00
3FE000000FF800
3FF000001FF800
1FF000001FF000
1FF000003FF000
1FF000003FE000
1FF000007FE000
1FF000007FC000
1FF00000FF8000
1FF00000FF8000
1FF80001FF0000
0FF80001FF0000
0FF80003FE0000
0FF80003FE0000
0FF80007FC0000
0FF80007FC0000
0FF8000FF80000
0FF8000FF80000
07FC001FF00000
07FC003FF00000
07FC003FE00000
07FC007FC00000
07FC007FC00000
07FC00FF800000
07FC00FF800000
07FC01FF000000
03FE01FF000000
03FE03FE000000
03FE03FE000000
03FE07FC000000
03FE07FC000000
03FE0FF8000000
03FE0FF0000000
01FE1FF0000000
01FE1FE0000000
01FE3FE0000000
01FF3FC0000000
01FF7FC0000000
01FF7F80000000
01FFFF80000000
01FFFF00000000
00FFFF00000000
00FFFE00000000
00FFFE00000000
00FFFC00000000
00FFF800000000
00FFF800000000
00FFF000000000
ENDCHAR
STARTCHAR 0057
ENCODING 87
SWIDTH 550 0
DWIDTH 55 0
BBX 59 64 2 0
BITMAP
00FF000000001FE0
00FF000000003FC0
00FF000000003FC0
00FF000000003FC0
01FF000000003F80
01FE000000007F80
01FE000000007F80
01FE000000007F80
01FE000000007F00
01FE00000000FF00
01FE00000000FF00
01FE00000000FF00
03FC00000000FE00
03FC00000001FE00
03FC00000001FE00
03FC00000001FE00
03FC00000001FC00
03FC00000003FC00
03FC00000003FC00
07F800000003F800
07F800000003F800
07F800000007F800
07F8007F0007F800
07F8007F0007F000
07F800FF0007F000
07F800FF000FF000
07F001FF800FF000
0FF001FF800FE000
0FF003FF800FE000
0FF003FF801FE000
0FF007FF801FC000
0FF007FF801FC000
0FF00FFF801FC000
0FE00FFFC03FC000
1FE01FFFC03F8000
1FE03FFFC03F8000
1FE03F9FC07F8000
1FE07F9FC07F8000
1FE07F1FC07F0000
1FE0FF1FC07F0000
1FC0FE1FE0FF0000
1FC1FE1FE0FF0000
3FC1FC1FE0FE0000
3FC3FC1FE0FE0000
3FC3F81FE1FE0000
3FC7F80FE1FC0000
3FC7F00FE1FC0000
3F8FE00FF1FC0000
3F8FE00FF1FC0000
3F9FC00FF3F80000
7F9FC00FF3F80000
7FBF8007F3F80000
7FBF8007F3F80000
7FFF0007FFF00000
7F7F0007FFF00000
7FFE0007FFF00000
7FFE0007FFF00000
FFFC0007FFE00000
FFFC0003FFE00000
FFF80003FFE00000
FFF80003FFC00000
FFF00003FFC00000
FFF00003FFC00000
FFE00003FFC00000
ENDCHAR
STARTCHAR 0058
ENCODING 88
SWIDTH 550 0
DWIDTH 55 0
BBX 64 64 -4 0
BITMAP
0001FF00000007FF
0001FF80000007FE
0001FF8000000FFC
0000FFC000001FF8
0000FFC000003FF0
00007FC000007FF0
00007FE00000FFE0
00007FE00000FFC0
00003FF00001FF80
00003FF00003FF00
00001FF80007FE00
00001FF8000FFE00
00000FF8000FFC00
00000FFC001FF800
00000FFC003FF000
000007FE007FE000
000007FE00FFC000
000003FE00FFC000
000003FF01FF8000
000001FF03FF0000
000001FF87FE0000
000001FF8FFC0000
000000FF9FF80000
000000FFDFF00000
0000007FFFF00000
0000007FFFE00000
0000003FFFC00000
0000003FFF800000
0000003FFF000000
0000001FFE000000
0000001FFE000000
0000001FFC000000
0000001FFE000000
0000003FFE000000
0000007FFF000000
000000FFFF000000
000001FFFF800000
000003FFFF800000
000003FFFFC00000
000007FEFFC00000
00000FFC7FC00000
00001FF87FE00000
00003FF03FE00000
00007FF03FF00000
0000FFE03FF00000
0000FFC01FF80000
0001FF801FF80000
0003FF000FF80000
0007FF000FFC0000
000FFE000FFC0000
001FFC0007FE0000
003FF80007FE0000
003FF00003FF0000
007FF00003FF0000
00FFE00003FF8000
01FFC00001FF8000
03FF800001FF8000
07FF000000FFC000
07FF000000FFC000
0FFE000000FFE000
1FFC0000007FE000
3FF80000007FF000
7FF00000003FF000
FFE00000003FF800
ENDCHAR
STARTCHAR 0059
ENCODING 89
SWIDTH 550 0
DWIDTH 55 0
BBX 55 64 8 0
BITMAP
FFC00000000FFE
FFC00000001FFC
7FE00000001FF8
7FE00000003FF0
7FE00000007FF0
3FF0000000FFE0
3FF0000000FFC0
3FF0000001FF80
1FF8000003FF00
1FF8000003FF00
0FF8000007FE00
0FFC00000FFC00
0FFC00001FF800
07FC00001FF800
07FE00003FF000
07FE00007FE000
03FE0000FFC000
03FF0000FFC000
03FF0001FF8000
01FF8003FF0000
01FF8003FE0000
00FF8007FE0000
00FFC00FFC0000
00FFC01FF80000
007FC01FF00000
007FC03FF00000
007FE07FE00000
003FE07FC00000
003FE0FF800000
001FF1FF000000
001FF3FF000000
001FF3FE000000
000FFFFC000000
000FFFF8000000
000FFFF8000000
0007FFF0000000
0007FFE0000000
0007FFC0000000
0003FFC0000000
0003FF80000000
0001FF00000000
0001FE00000000
0003FE00000000
0003FE00000000
0003FE00000000
0003FE00000000
0003FC00000000
0007FC00000000
0007FC00000000
0007FC00000000
0007FC00000000
0007F800000000
000FF800000000
000FF800000000
000FF800000000
000FF800000000
000FF000000000
001FF000000000
001FF000000000
001FF000000000
001FF000000000
001FE000000000
003FE000000000
003FE000000000
ENDCHAR
STARTCHAR 005A
ENCODING 90
SWIDTH 550 0
DWIDTH 55 0
BBX 57 64 0 0
BITMAP
0003FFFFFFFFFF80
0003FFFFFFFFFF00
0003FFFFFFFFFF00
0007FFFFFFFFFF00
0007FFFFFFFFFF00
0007FFFFFFFFFF00
0007FFFFFFFFFE00
0007FFFFFFFFFE00
00000000000FFC00
00000000001FF800
00000000003FF000
00000000007FE000
0000000000FFE000
0000000001FFC000
0000000001FF8000
0000000003FF0000
0000000007FE0000
000000000FFC0000
000000001FF80000
000000003FF80000
000000007FF00000
000000007FE00000
00000000FFC00000
00000001FF800000
00000003FF000000
00000007FE000000
0000000FFE000000
0000001FFC000000
0000001FF8000000
0000003FF0000000
0000007FE0000000
000000FFC0000000
000001FF80000000
000003FF80000000
000007FF00000000
000007FE00000000
00000FFC00000000
00001FF800000000
00003FF000000000
00007FE000000000
0000FFC000000000
0001FFC000000000
0001FF8000000000
0003FF0000000000
0007FE0000000000
000FFC0000000000
001FF80000000000
003FF00000000000
007FF00000000000
007FE00000000000
00FFC00000000000
01FF800000000000
03FF000000000000
07FE000000000000
0FFC000000000000
1FFC000000000000
1FFFFFFFFFFC0000
3FFFFFFFFFFC0000
7FFFFFFFFFFC0000
7FFFFFFFFFF80000
7FFFFFFFFFF80000
7FFFFFFFFFF80000
7FFFFFFFFFF80000
FFFFFFFFFFF80000
ENDCHAR
STARTCHAR 005B
ENCODING 91
SWIDTH 550 0
DWIDTH 55 0
BBX 42 91 8 -20
BITMAP
00003FFFFFC0
00003FFFFFC0
00003FFFFFC0
00007FFFFF80
00007FFFFF80
00007FFFFF80
00007FFFFF80
00007F800000
0000FF000000
0000FF000000
0000FF000000
0000FF000000
0000FF000000
0001FE000000
0001FE000000
0001FE000000
0001FE000000
0001FE000000
0003FC000000
0003FC000000
0003FC000000
0003FC000000
0003FC000000
0007F8000000
0007F8000000
0007F8000000
0007F8000000
0007F8000000
000FF0000000
000FF0000000
000FF0000000
000FF0000000
000FF0000000
001FE0000000
001FE0000000
001FE0000000
001FE0000000
001FE0000000
003FC0000000
003FC0000000
003FC0000000
003FC0000000
003FC0000000
007F80000000
007F80000000
007F80000000
007F80000000
007F80000000
00FF00000000
00FF00000000
00FF00000000
00FF00000000
00FF00000000
01FE00000000
01FE00000000
01FE00000000
01FE00000000
01FE00000000
03FC00000000
03FC00000000
03FC00000000
03FC00000000
03FC00000000
07F800000000
07F800000000
07F800000000
07F800000000
07F800000000
0FF000000000
0FF000000000
0FF000000000
0FF000000000
0FF000000000
1FE000000000
1FE000000000
1FE000000000
1FE000000000
1FE000000000
3FC000000000
3FC000000000
3FC000000000
3FC000000000
3FC000000000
7F8000000000
7FFFFF800000
7FFFFF800000
7FFFFF800000
7FFFFF800000
FFFFFF000000
FFFFFF000000
FFFFFF000000
ENDCHAR
STARTCHAR 005C
ENCODING 92
SWIDTH 550 0
DWIDTH 55 0
BBX 25 79 17 -10
BITMAP
FF000000
FF000000
FF000000
7F000000
7F800000
7F800000
7F800000
7F800000
3FC00000
3FC00000
3FC00000
3FC00000
1FC00000
1FE00000
1FE00000
1FE00000
1FE00000
0FF00000
0FF00000
0FF00000
0FF00000
07F00000
07F80000
07F80000
07F80000
07F80000
03FC0000
03FC0000
03FC0000
03FC0000
01FC0000
01FE0000
01FE0000
01FE0000
01FE0000
00FF0000
00FF0000
00FF0000
00FF0000
00FF0000
007F8000
007F8000
007F8000
007F8000
003F8000
003FC000
003FC000
003FC000
003FC000
001FE000
001FE000
001FE000
001FE000
000FE000
000FF000
000FF000
000FF000
000FF000
0007F800
0007F800
0007F800
0007F800
0003F800
0003FC00
0003FC00
0003FC00
0003FC00
0001FE00
0001FE00
0001FE00
0001FE00
0000FE00
0000FF00
0000FF00
0000FF00
0000FF00
00007F80
00007F80
00007F80
ENDCHAR
STARTCHAR 005D
ENCODING 93
SWIDTH 550 0
DWIDTH 55 0
BBX 42 91 5 -20
BITMAP
00003FFFFFC0
00003FFFFFC0
00003FFFFFC0
00003FFFFFC0
00007FFFFF80
00007FFFFF80
00007FFFFF80
000000007F80
00000000FF80
00000000FF00
00000000FF00
00000000FF00
00000000FF00
00000001FF00
00000001FE00
00000001FE00
00000001FE00
00000001FE00
00000003FE00
00000003FC00
00000003FC00
00000003FC00
00000003FC00
00000007FC00
00000007F800
00000007F800
00000007F800
00000007F800
0000000FF800
0000000FF000
0000000FF000
0000000FF000
0000000FF000
0000001FF000
0000001FE000
0000001FE000
0000001FE000
0000001FE000
0000003FE000
0000003FC000
0000003FC000
0000003FC000
0000003FC000
0000007FC000
0000007F8000
0000007F8000
0000007F8000
0000007F8000
000000FF8000
000000FF0000
000000FF0000
000000FF0000
000000FF0000
000001FF0000
000001FE0000
000001FE0000
000001FE0000
000001FE0000
000003FE0000
000003FC0000
000003FC0000
000003FC0000
000003FC0000
000007FC0000
000007F80000
000007F80000
000007F80000
000007F80000
00000FF80000
00000FF00000
00000FF00000
00000FF00000
00000FF00000
00001FF00000
00001FE00000
00001FE00000
00001FE00000
00001FE00000
00003FE00000
00003FC00000
00003FC00000
00003FC00000
00003FC00000
00007FC00000
7FFFFF800000
7FFFFF800000
7FFFFF800000
7FFFFF800000
7FFFFF800000
FFFFFF000000
FFFFFF000000
ENDCHAR
STARTCHAR 005E
ENCODING 94
SWIDTH 550 0
DWIDTH 55 0
BBX 43 31 8 33
BITMAP
000001FE0000
000001FE0000
000003FE0000
000007FF0000
00000FFF0000
00001FFF8000
00001FFF8000
00003FBF8000
00007FBFC000
0000FF1FC000
0000FE1FE000
0001FC0FE000
0003FC0FE000
0007F80FF000
000FF007F000
000FE007F800
001FE007F800
003FC003F800
007F8003FC00
007F0001FC00
00FF0001FE00
01FE0001FE00
03FC0000FE00
03F80000FF00
07F80000FF00
0FF000007F80
1FE000007F80
3FC000003F80
3FC000003FC0
7F8000003FC0
FF0000001FE0
ENDCHAR
STARTCHAR 005F
ENCODING 95
SWIDTH 550 0
DWIDTH 55 0
BBX 56 7 -9 -20
BITMAP
7FFFFFFFFFFFFF
7FFFFFFFFFFFFF
7FFFFFFFFFFFFF
7FFFFFFFFFFFFF
FFFFFFFFFFFFFF
FFFFFFFFFFFFFE
FFFFFFFFFFFFFE
ENDCHAR
STARTCHAR 0060
ENCODING 96
SWIDTH 550 0
DWIDTH 55 0
BBX 23 12 16 49
BITMAP
FFF000
7FF800
1FFC00
0FFE00
07FF00
03FF80
00FFC0
007FE0
003FF0
001FF8
0007FC
0003FE
ENDCHAR
STARTCHAR 0061
ENCODING 97
SWIDTH 550 0
DWIDTH 55 0
BBX 47 51 5 -1
BITMAP
000000780006
00000FFFF87E
00007FFFFFFC
0001FFFFFFFC
0007FFFFFFFC
000FFFFFFFFC
003FFFFFFFFC
007FFF83FFF8
00FFF8003FF8
01FFE0000FF8
01FF80000FF8
03FF00000FF8
07FE00000FF0
07FC00000FF0
0FF800001FF0
0FF800001FF0
1FF000001FF0
1FF000001FE0
3FE000001FE0
3FE000003FE0
3FC000003FE0
7FC000003FE0
7FC000003FC0
7F8000007FC0
FF8000007FC0
FF8000007FC0
FF800000FFC0
FF800000FF80
FF000001FF80
FF000001FF80
FF000003FF80
FF000003FF80
FF000007FF80
FF000007FF80
FF00000FFF00
FF00001FFF00
FF00003FFF00
FF00003FFF00
FF80007FFF00
FF8000FEFF00
FF8003FEFF00
FFC007FCFF00
7FE01FF8FF00
7FFFFFF9FE00
3FFFFFF1FE00
3FFFFFE1FE00
1FFFFF81FE00
0FFFFF01FE00
07FFFC01FE00
01FFF001FE00
003F80000000
ENDCHAR
STARTCHAR 0062
ENCODING 98
SWIDTH 550 0
DWIDTH 55 0
BBX 46 70 4 -1
BITMAP
000FF8000000
000FF8000000
000FF8000000
000FF0000000
000FF0000000
001FF0000000
001FF0000000
001FF0000000
001FE0000000
001FE0000000
003FE0000000
003FE0000000
003FE0000000
003FC0000000
003FC0000000
007FC0000000
007FC0000000
007FC0000000
007F80000000
007F800FF000
007F807FFE00
00FF81FFFF00
00FF07FFFFC0
00FF0FFFFFC0
00FF1FFFFFE0
00FF3FFFFFF0
01FE7FFFFFF0
01FEFFC03FF8
01FEFF801FF8
01FDFE000FF8
01FFFC000FFC
03FFF80007FC
03FFF00007FC
03FFE00007FC
03FFC00007FC
03FFC00007FC
07FF800007FC
07FF000007FC
07FF000007FC
07FE000007FC
07FE000007FC
0FFC000007FC
0FFC000007FC
0FF8000007F8
0FF8000007F8
0FF000000FF8
1FF000000FF8
1FF000000FF8
1FE000001FF0
1FE000001FF0
1FE000001FF0
3FE000003FE0
3FE000003FE0
3FC000007FC0
3FC000007FC0
3FC00000FF80
7FC00001FF80
7FC00001FF00
7F800003FF00
7F80000FFE00
7F80001FFC00
FFE0007FF800
FFFF07FFF000
FFFFFFFFE000
FFFFFFFFC000
FFFFFFFF0000
3FFFFFFE0000
0FFFFFF80000
00FFFFC00000
0000F0000000
ENDCHAR
STARTCHAR 0063
ENCODING 99
SWIDTH 550 0
DWIDTH 55 0
BBX 43 51 7 -1
BITMAP
0000003FC000
000007FFFF00
00003FFFFFE0
0000FFFFFFE0
0003FFFFFFE0
0007FFFFFFE0
001FFFFFFFE0
003FFFFFFFC0
007FFE0007C0
00FFF80000C0
01FFE0000000
01FFC0000000
03FF00000000
07FE00000000
0FFE00000000
0FFC00000000
1FF800000000
1FF000000000
1FF000000000
3FE000000000
3FE000000000
7FE000000000
7FC000000000
7FC000000000
7FC000000000
FF8000000000
FF8000000000
FF8000000000
FF8000000000
FF8000000000
FF8000000000
FF8000000000
FF8000000000
FF8000000000
FF8000000000
FF8000000000
FFC000000000
FFC000000000
7FC000000000
7FE000000000
7FF000000000
3FF800006000
3FFE0003E000
1FFFFFFFE000
1FFFFFFFE000
0FFFFFFFE000
03FFFFFFE000
01FFFFFFE000
007FFFFFC000
001FFFFC0000
00007F000000
ENDCHAR
STARTCHAR 0064
ENCODING 100
SWIDTH 550 0
DWIDTH 55 0
BBX 51 70 5 -1
BITMAP
00000000003FE0
00000000003FC0
00000000003FC0
00000000007FC0
00000000007FC0
00000000007FC0
00000000007F80
00000000007F80
00000000007F80
0000000000FF80
0000000000FF80
0000000000FF00
0000000000FF00
0000000000FF00
0000000001FF00
0000000001FF00
0000000001FE00
0000000001FE00
0000000001FE00
0000007C03FE00
00000FFFFFFE00
00007FFFFFFC00
0001FFFFFFFC00
0007FFFFFFFC00
000FFFFFFFFC00
003FFFFFFFFC00
007FFF83FFF800
00FFF8003FF800
01FFE0000FF800
01FF80000FF800
03FF00000FF800
07FE00000FF000
07FC00000FF000
0FF800001FF000
0FF800001FF000
1FF000001FF000
1FF000001FE000
3FE000001FE000
3FE000003FE000
3FC000003FE000
7FC000003FE000
7FC000003FC000
7F8000007FC000
FF8000007FC000
FF8000007FC000
FF800000FFC000
FF800000FF8000
FF000001FF8000
FF000001FF8000
FF000003FF8000
FF000003FF8000
FF000007FF8000
FF000007FF8000
FF00000FFF0000
FF00001FFF0000
FF00003FFF0000
FF00003FFF0000
FF80007FFF0000
FF8000FEFF0000
FF8003FEFF0000
FFC007FCFF0000
7FE01FF8FF0000
7FFFFFF9FE0000
3FFFFFF1FE0000
3FFFFFE1FE0000
1FFFFF81FE0000
0FFFFF01FE0000
07FFFC01FE0000
01FFF001FE0000
003F8000000000
ENDCHAR
STARTCHAR 0065
ENCODING 101
SWIDTH 550 0
DWIDTH 55 0
BBX 45 51 5 -1
BITMAP
000001FF8000
00000FFFF000
00007FFFFE00
0001FFFFFF00
0003FFFFFFC0
000FFFFFFFE0
001FFFFFFFE0
003FFE00FFF0
007FF0003FF0
00FFE0001FF8
01FF80000FF8
01FF00000FF8
03FE00000FF8
07FE00000FF8
07FC00000FF8
0FF800000FF8
0FF800000FF8
1FF000001FF8
1FF000003FF0
3FE00000FFF0
3FE00007FFE0
3FC001FFFFC0
7FFFFFFFFF80
7FFFFFFFFF00
7FFFFFFFFC00
7FFFFFFFF000
FFFFFFFF8000
FFFFFFF80000
FF8000000000
FF8000000000
FF8000000000
FF8000000000
FF8000000000
FF8000000000
FF8000000000
FF8000000000
FF8000000000
FF8000000000
7FC000000000
7FC000000000
7FE000000000
3FF000000000
3FFC00003C00
1FFFC01FFC00
1FFFFFFFFC00
0FFFFFFFFC00
07FFFFFFFC00
03FFFFFFFC00
00FFFFFFFC00
003FFFFFC000
0001FFE00000
ENDCHAR
STARTCHAR 0066
ENCODING 102
SWIDTH 550 0
DWIDTH 55 0
BBX 65 91 -5 -21
BITMAP
0000000000000E0000
000000000007FFFF00
00000000003FFFFF80
0000000000FFFFFF80
0000000003FFFFFF00
0000000007FFFFFF00
000000000FFFFFFF00
000000001FFFFFFF00
000000003FFE000300
000000003FF8000000
000000007FE0000000
000000007FC0000000
00000000FF80000000
00000000FF80000000
00000001FF00000000
00000001FF00000000
00000001FE00000000
00000003FE00000000
00000003FE00000000
00000003FC00000000
00000003FC00000000
00000007FC00000000
00000007FC00000000
00000007FC00000000
00000007F800000000
00000007F800000000
0000000FF800000000
0000000FF800000000
000FFFFFFFFFFFC000
000FFFFFFFFFFFC000
000FFFFFFFFFFFC000
000FFFFFFFFFFFC000
001FFFFFFFFFFF8000
001FFFFFFFFFFF8000
001FFFFFFFFFFF8000
0000001FE000000000
0000003FE000000000
0000003FE000000000
0000003FE000000000
0000003FC000000000
0000003FC000000000
0000007FC000000000
0000007FC000000000
0000007FC000000000
0000007F8000000000
0000007F8000000000
000000FF8000000000
000000FF8000000000
000000FF8000000000
000000FF0000000000
000000FF0000000000
000001FF0000000000
000001FF0000000000
000001FF0000000000
000001FE0000000000
000001FE0000000000
000003FE0000000000
000003FE0000000000
000003FE0000000000
000003FC0000000000
000003FC0000000000
000007FC0000000000
000007FC0000000000
000007FC0000000000
000007F80000000000
000007F80000000000
00000FF80000000000
00000FF80000000000
00000FF80000000000
00000FF00000000000
00000FF00000000000
00001FF00000000000
00001FF00000000000
00001FE00000000000
00003FE00000000000
00003FE00000000000
00003FE00000000000
00007FC00000000000
0000FFC00000000000
0000FF800000000000
0001FF800000000000
0007FF000000000000
001FFE000000000000
7FFFFE000000000000
7FFFFC000000000000
7FFFF8000000000000
7FFFF0000000000000
FFFFC0000000000000
FFFF00000000000000
FFF800000000000000
080000000000000000
ENDCHAR
STARTCHAR 0067
ENCODING 103
SWIDTH 550 0
DWIDTH 55 0
BBX 50 71 2 -21
BITMAP
0000000F0000C0
000001FFFF0FC0
00000FFFFFFF80
00003FFFFFFF80
0000FFFFFFFF80
0001FFFFFFFF80
0007FFFFFFFF80
000FFFF07FFF00
001FFF0007FF00
003FFC0001FF00
003FF00001FF00
007FE00001FF00
00FFC00001FE00
00FF800001FE00
01FF000003FE00
01FF000003FE00
03FE000003FE00
03FE000003FC00
07FC000003FC00
07FC000003FC00
07F8000007FC00
0FF8000007FC00
0FF8000007F800
0FF000000FF800
1FF000000FF800
1FF000000FF800
1FF000001FF800
1FF000001FF000
1FE000003FF000
1FE000003FF000
1FE000007FF000
1FE000007FF000
1FE00000FFE000
3FE00000FFE000
3FE00001FFE000
1FE00003FFE000
1FE00007FFE000
1FE00007FFC000
1FF0000FFFC000
1FF0001FFFC000
1FF0007FFFC000
1FF800FFBFC000
0FFC03FF7F8000
0FFFFFFE7F8000
07FFFFFE7F8000
07FFFFFC7F8000
03FFFFF0FF8000
01FFFFE0FF0000
00FFFF80FF0000
003FFE00FF0000
0007F001FF0000
00000001FF0000
00000001FE0000
00000001FE0000
00000003FE0000
00000003FE0000
00000007FC0000
00000007FC0000
0000000FFC0000
0000000FF80000
1C00001FF80000
1F00007FF00000
3FC000FFE00000
7FFC0FFFE00000
7FFFFFFFC00000
FFFFFFFF800000
7FFFFFFE000000
1FFFFFFC000000
07FFFFF0000000
00FFFF80000000
00008000000000
ENDCHAR
STARTCHAR 0068
ENCODING 104
SWIDTH 550 0
DWIDTH 55 0
BBX 46 69 3 0
BITMAP
0007FC000000
0007FC000000
0007FC000000
0007F8000000
0007F8000000
000FF8000000
000FF8000000
000FF8000000
000FF0000000
000FF0000000
001FF0000000
001FF0000000
001FF0000000
001FE0000000
001FE0000000
003FE0000000
003FE0000000
003FE0000000
003FC0000000
003FC007F800
007FC03FFF00
007FC0FFFFC0
007F83FFFFE0
007F87FFFFF0
007F8FFFFFF0
00FF9FFFFFF8
00FF3FFEFFF8
00FF7FE01FFC
00FF7F800FFC
00FFFF0007FC
01FFFE0007FC
01FFFC0007FC
01FFF80003FC
01FFF00003FC
01FFE00007FC
03FFE00007FC
03FFC00007FC
03FF800007FC
03FF800007F8
03FF000007F8
07FF00000FF8
07FE00000FF8
07FE00000FF8
07FC00000FF0
07FC00000FF0
0FF800001FF0
0FF800001FF0
0FF800001FF0
0FF000001FE0
0FF000001FE0
1FF000003FE0
1FF000003FE0
1FF000003FE0
1FE000003FC0
1FE000003FC0
3FE000007FC0
3FE000007FC0
3FE000007FC0
3FC000007F80
3FC000007F80
7FC00000FF80
7FC00000FF80
7FC00000FF80
7F800000FF00
7F800000FF00
FF800001FF00
FF800001FF00
FF800001FF00
FF000001FE00
ENDCHAR
STARTCHAR 0069
ENCODING 105
SWIDTH 550 0
DWIDTH 55 0
BBX 39 71 8 -1
BITMAP
0000004000
000003F800
00000FFC00
00000FFE00
00001FFE00
00001FFF00
00001FFF00
00001FFF00
00001FFF00
00001FFE00
00001FFE00
00000FFC00
000007F800
000001E000
0000000000
0000000000
0000000000
0000000000
0000000000
0000000000
003FE00000
03FFFC0000
0FFFFE0000
7FFFFF0000
FFFFFF8000
FFFFFF8000
FFFFFFC000
FFC1FFC000
FE007FC000
F0007FC000
C0007FC000
00007FC000
00007FC000
00007FC000
00007FC000
00007FC000
00007FC000
00007F8000
00007F8000
0000FF8000
0000FF8000
0000FF8000
0000FF0000
0000FF0000
0001FF0000
0001FF0000
0001FF0000
0001FE0000
0001FE0000
0003FE0000
0003FE0000
0003FE0000
0003FC0000
0003FC0000
0007FC0000
0007FC0000
0007FC0000
0007F80000
0007F80000
0007F80002
0007FC0006
0007FC001E
0007FC00FE
0007FF07FE
0007FFFFFE
0003FFFFFE
0003FFFFFE
0001FFFFFC
0000FFFFE0
00007FFF80
00000FF000
ENDCHAR
STARTCHAR 006A
ENCODING 106
SWIDTH 550 0
DWIDTH 55 0
BBX 52 91 -4 -21
BITMAP
00000000000600
00000000003FC0
00000000007FE0
0000000000FFE0
0000000001FFF0
0000000001FFF0
0000000001FFF0
0000000001FFF0
0000000001FFF0
0000000001FFF0
0000000000FFE0
0000000000FFE0
00000000007F80
00000000001E00
00000000000000
00000000000000
00000000000000
00000000000000
00000000000000
00000000000000
00000007FE0000
000000FFFFE000
000007FFFFF000
00003FFFFFF800
0000FFFFFFFC00
0000FFFFFFFC00
0000FFFFFFFE00
0000FFF81FFE00
0000FF8007FE00
0000FC0003FE00
0000E00003FE00
0000800003FE00
0000000003FE00
0000000003FE00
0000000003FE00
0000000003FE00
0000000003FE00
0000000003FC00
0000000003FC00
0000000007FC00
0000000007FC00
0000000007FC00
0000000007F800
0000000007F800
000000000FF800
000000000FF800
000000000FF800
000000000FF000
000000000FF000
000000001FF000
000000001FF000
000000001FF000
000000001FE000
000000001FE000
000000003FE000
000000003FE000
000000003FE000
000000003FC000
000000003FC000
000000007FC000
000000007FC000
000000007FC000
000000007F8000
000000007F8000
00000000FF8000
00000000FF8000
00000000FF8000
00000000FF0000
00000000FF0000
00000001FF0000
00000001FF0000
00000001FF0000
00000001FE0000
00000003FE0000
00000003FE0000
00000007FC0000
00000007FC0000
0000000FFC0000
0000001FF80000
0C00001FF00000
1F00007FF00000
3F8000FFE00000
7FF003FFC00000
FFFFFFFF800000
FFFFFFFF000000
3FFFFFFE000000
1FFFFFFC000000
0FFFFFF0000000
01FFFFC0000000
007FFF00000000
00008000000000
ENDCHAR
STARTCHAR 006B
ENCODING 107
SWIDTH 550 0
DWIDTH 55 0
BBX 46 69 4 0
BITMAP
0007FC000000
0007FC000000
0007F8000000
0007F8000000
000FF8000000
000FF8000000
000FF8000000
000FF0000000
000FF0000000
001FF0000000
001FF0000000
001FF0000000
001FE0000000
001FE0000000
003FE0000000
003FE0000000
003FE0000000
003FC0000000
003FC0000000
007FC007F800
007FC03FFF00
007FC0FFFF80
007F83FFFFC0
007F87FFFFE0
00FF8FFFFFF0
00FF1FFFFFF8
00FF3FFCFFF8
00FF7FE01FF8
00FFFF800FFC
01FEFF0007FC
01FFFE0007FC
01FFFC0007FC
01FFF80007FC
01FFF00007FC
03FFE00007FC
03FFC00007F8
03FFC0000FF8
03FF80001FF8
03FF00003FF0
07FF00007FE0
07FE0001FFC0
07FE000FFF80
07FC00FFFF00
07FC7FFFFE00
0FFDFFFFF800
0FF8FFFFE000
0FF87FFF8000
0FF87FFC0000
0FF03FF00000
1FF01FF00000
1FF01FF80000
1FF00FFC0000
1FE007FC0000
1FE007FE0000
3FE003FF0000
3FE001FF8000
3FE001FF8000
3FC000FFC000
3FC0007FE000
7FC0007FE000
7FC0003FF000
7FC0001FF800
7F80001FFC00
7F80000FFC00
FF800007FE00
FF800007FF00
FF800003FF00
FF000001FF80
FF000001FFC0
ENDCHAR
STARTCHAR 006C
ENCODING 108
SWIDTH 550 0
DWIDTH 55 0
BBX 32 70 12 -1
BITMAP
001FF000
001FE000
003FE000
003FE000
003FE000
003FE000
003FC000
007FC000
007FC000
007FC000
007FC000
007F8000
00FF8000
00FF8000
00FF8000
00FF8000
00FF0000
01FF0000
01FF0000
01FF0000
01FF0000
01FE0000
03FE0000
03FE0000
03FE0000
03FE0000
03FC0000
07FC0000
07FC0000
07FC0000
07FC0000
07F80000
0FF80000
0FF80000
0FF80000
0FF80000
1FF00000
1FF00000
1FF00000
1FF00000
1FF00000
3FE00000
3FE00000
3FE00000
3FE00000
3FE00000
7FC00000
7FC00000
7FC00000
7FC00000
7FC00000
7F800000
FF800000
FF800000
FF800000
FF800000
FF800000
FF800000
FF800001
FF800007
FFC0003F
FFE003FF
7FFFFFFF
7FFFFFFF
7FFFFFFF
3FFFFFFF
1FFFFFFC
0FFFFFE0
03FFFF00
001F8000
ENDCHAR
STARTCHAR 006D
ENCODING 109
SWIDTH 550 0
DWIDTH 55 0
BBX 54 50 -1 0
BITMAP
0000007C000FC0
00FF01FF003FF0
00FF03FF807FF8
00FE07FFC0FFF8
00FE0FFFC1FFFC
00FE1FFFE3FFFC
00FE3FFFE7FFFC
00FE7F9FE7F3FC
00FE7F1FEFE3FC
01FEFE1FFFC1FC
01FFFC1FDF83FC
01FFF81FFF03FC
01FFF01FFE03FC
01FFF01FFE03FC
01FFE01FFC03FC
01FFC01FFC03F8
01FFC03FF807F8
01FF803FF007F8
03FF803FF007F8
03FF003FE007F8
03FF003FE007F0
03FE007FC00FF0
03FE007FC00FF0
03FC007FC00FF0
07FC007F800FF0
07FC007F800FE0
07F800FF001FE0
07F800FF001FE0
07F800FF001FE0
0FF000FF001FE0
0FF001FE001FC0
0FF001FE003FC0
0FF001FE003FC0
0FE001FE003FC0
1FE001FE003FC0
1FE003FC003F80
1FE003FC007F80
1FE003FC007F80
1FC003FC007F80
3FC003FC007F80
3FC007F8007F80
3FC007F800FF00
3FC007F800FF00
3F8007F800FF00
7F8007F800FF00
7F800FF000FF00
7F800FF001FE00
7F800FF001FE00
7F000FF001FE00
FF000FF001FE00
ENDCHAR
STARTCHAR 006E
ENCODING 110
SWIDTH 550 0
DWIDTH 55 0
BBX 46 50 3 0
BITMAP
00000007F800
00FF003FFF00
00FF00FFFFC0
00FF03FFFFE0
01FE07FFFFF0
01FE0FFFFFF8
01FE1FFFFFF8
01FE3FFEFFF8
01FE7FE01FFC
01FEFF800FFC
01FEFF0007FC
01FFFE0007FC
01FFFC0007FC
03FFF80003FC
03FFF00003FC
03FFE00007FC
03FFE00007FC
03FFC00007FC
03FF800007FC
03FF800007F8
03FF000007F8
07FF00000FF8
07FE00000FF8
07FE00000FF8
07FC00000FF0
07FC00000FF0
0FF800001FF0
0FF800001FF0
0FF800001FF0
0FF000001FE0
0FF000001FE0
1FF000003FE0
1FF000003FE0
1FF000003FE0
1FE000003FC0
1FE000003FC0
3FE000007FC0
3FE000007FC0
3FE000007FC0
3FC000007F80
3FC000007F80
7FC00000FF80
7FC00000FF80
7FC00000FF80
7F800000FF00
7F800000FF00
FF800001FF00
FF800001FF00
FF800001FF00
FF000001FE00
ENDCHAR
STARTCHAR 006F
ENCODING 111
SWIDTH 550 0
DWIDTH 55 0
BBX 47 51 4 -1
BITMAP
000000FF8000
00000FFFF800
00007FFFFE00
0001FFFFFF80
0003FFFFFFC0
000FFFFFFFE0
001FFFFFFFF0
003FFF83FFF0
007FF8007FF8
00FFE0001FF8
01FFC0000FFC
01FF80000FFC
03FF000007FC
07FE000007FC
07FC000003FE
0FF8000003FE
0FF8000003FE
1FF0000003FE
1FF0000003FE
3FE0000003FE
3FE0000003FE
3FC0000003FE
7FC0000003FE
7FC0000003FC
7F80000003FC
7F80000007FC
FF80000007FC
FF80000007FC
FF80000007F8
FF8000000FF8
FF8000000FF8
FF8000000FF0
FF8000001FF0
FF8000001FF0
FF8000003FE0
FF8000007FE0
FF8000007FC0
FF800000FFC0
FFC00001FF80
7FC00003FF00
7FE00007FE00
7FF0001FFE00
3FFC007FFC00
3FFF83FFF800
1FFFFFFFF000
0FFFFFFFC000
07FFFFFF8000
03FFFFFF0000
00FFFFFC0000
003FFFE00000
0003FE000000
ENDCHAR
STARTCHAR 0070
ENCODING 112
SWIDTH 550 0
DWIDTH 55 0
BBX 51 70 -1 -20
BITMAP
000000003F8000
000FF003FFF000
000FF00FFFFC00
000FF01FFFFE00
000FF07FFFFF00
000FF0FFFFFF80
001FF1FFFFFF80
001FE3FFFFFFC0
001FE7FF00FFC0
001FE7FC007FC0
001FEFF0007FE0
001FFFE0003FE0
001FFFC0003FE0
001FFF80003FE0
001FFF00001FE0
003FFF00001FE0
003FFE00001FE0
003FFC00001FE0
003FFC00001FE0
003FF800001FE0
003FF000001FE0
003FF000003FE0
003FE000003FE0
007FE000003FE0
007FC000003FE0
007FC000003FC0
007FC000003FC0
007F8000007FC0
00FF8000007FC0
00FF8000007FC0
00FF800000FF80
00FF000000FF80
00FF000000FF80
01FF000001FF00
01FF000001FF00
01FF000003FE00
01FE000007FE00
01FE000007FC00
03FE00000FFC00
03FE00001FF800
03FE00003FF000
03FC0000FFE000
03FF8003FFC000
07FFF83FFF8000
07FFFFFFFF0000
07FFFFFFFE0000
07FFFFFFFC0000
07FFFFFFF00000
0FFFFFFFC00000
0FFFFFFE000000
0FF80780000000
0FF00000000000
0FF00000000000
1FF00000000000
1FF00000000000
1FF00000000000
1FE00000000000
1FE00000000000
3FE00000000000
3FE00000000000
3FE00000000000
3FC00000000000
3FC00000000000
7FC00000000000
7FC00000000000
7FC00000000000
7F800000000000
7F800000000000
FF800000000000
FF800000000000
ENDCHAR
STARTCHAR 0071
ENCODING 113
SWIDTH 550 0
DWIDTH 55 0
BBX 47 70 5 -20
BITMAP
000000780006
00000FFFF87E
00007FFFFFFC
0001FFFFFFFC
0007FFFFFFFC
000FFFFFFFFC
003FFFFFFFFC
007FFF83FFF8
00FFF8003FF8
01FFE0000FF8
01FF80000FF8
03FF00000FF8
07FE00000FF0
07FC00000FF0
0FF800001FF0
0FF800001FF0
1FF000001FF0
1FF000001FE0
3FE000001FE0
3FE000001FE0
3FC000003FE0
7FC000003FE0
7FC000003FC0
7F8000007FC0
FF8000007FC0
FF8000007FC0
FF800000FFC0
FF800000FF80
FF000001FF80
FF000001FF80
FF000003FF80
FF000003FF80
FF000007FF00
FF000007FF00
FF00000FFF00
FF00001FFF00
FF00003FFF00
FF00003FFE00
FF80007FFE00
FF8000FFFE00
FF8003FFFE00
FFC007FDFE00
7FE01FFBFC00
7FFFFFF3FC00
3FFFFFF3FC00
3FFFFFE3FC00
1FFFFF87FC00
0FFFFF07F800
07FFFC07F800
01FFF007F800
003F800FF800
0000000FF800
0000000FF000
0000000FF000
0000001FF000
0000001FF000
0000001FF000
0000001FE000
0000001FE000
0000003FE000
0000003FE000
0000003FE000
0000003FC000
0000003FC000
0000007FC000
0000007FC000
0000007FC000
0000007F8000
0000007F8000
000000FF8000
ENDCHAR
STARTCHAR 0072
ENCODING 114
SWIDTH 550 0
DWIDTH 55 0
BBX 47 50 5 0
BITMAP
00000003FC00
00FF001FFF80
00FF007FFFE0
00FF01FFFFF0
01FE03FFFFF8
01FE0FFFFFF8
01FE1FFFFFFC
01FE3FFF7FFC
01FE7FF00FFE
01FE7FC007FE
01FEFF0003FE
01FFFE0003FE
01FFFC0003FE
03FFF80003FE
03FFF00003FE
03FFE00003FE
03FFE00003FE
03FFC00003FE
03FF800003FC
03FF800003FC
03FF00000000
07FF00000000
07FE00000000
07FE00000000
07FC00000000
07FC00000000
0FF800000000
0FF800000000
0FF800000000
0FF800000000
0FF000000000
1FF000000000
1FF000000000
1FF000000000
1FF000000000
1FE000000000
3FE000000000
3FE000000000
3FE000000000
3FE000000000
3FC000000000
7FC000000000
7FC000000000
7FC000000000
7F8000000000
7F8000000000
FF8000000000
FF8000000000
FF8000000000
FF0000000000
ENDCHAR
STARTCHAR 0073
ENCODING 115
SWIDTH 550 0
DWIDTH 55 0
BBX 42 51 5 -1
BITMAP
000001FFE000
00003FFFFF80
0000FFFFFFC0
0003FFFFFFC0
000FFFFFFFC0
001FFFFFFFC0
003FFFFFFFC0
007FFF007FC0
007FF00001C0
00FFC0000000
00FF80000000
01FF00000000
01FF00000000
01FE00000000
01FE00000000
01FE00000000
01FF00000000
01FF00000000
01FF80000000
01FFE0000000
00FFF8000000
00FFFF000000
007FFFE00000
003FFFFC0000
001FFFFF0000
000FFFFFC000
0003FFFFE000
00007FFFF000
00000FFFF800
000001FFFC00
0000007FFC00
0000001FFE00
00000007FE00
00000003FE00
00000003FE00
00000003FE00
00000003FE00
00000003FE00
00000003FE00
00000003FE00
00000007FC00
C000000FFC00
FC00003FF800
FFF80FFFF800
FFFFFFFFF000
FFFFFFFFE000
FFFFFFFFC000
FFFFFFFF0000
FFFFFFFC0000
7FFFFFE00000
00FFFC000000
ENDCHAR
STARTCHAR 0074
ENCODING 116
SWIDTH 550 0
DWIDTH 55 0
BBX 45 66 7 -1
BITMAP
000000400000
000007C00000
00007FC00000
00007FC00000
00007F800000
00007F800000
0000FF800000
0000FF800000
0000FF800000
0000FF000000
0000FF000000
0001FF000000
0001FF000000
0001FF000000
0001FE000000
0001FE000000
7FFFFFFFFFF8
7FFFFFFFFFF8
FFFFFFFFFFF8
FFFFFFFFFFF0
FFFFFFFFFFF0
FFFFFFFFFFF0
FFFFFFFFFFF0
0007FC000000
0007F8000000
0007F8000000
0007F8000000
000FF8000000
000FF8000000
000FF0000000
000FF0000000
000FF0000000
001FF0000000
001FF0000000
001FE0000000
001FE0000000
001FE0000000
003FE0000000
003FE0000000
003FC0000000
003FC0000000
003FC0000000
007FC0000000
007FC0000000
007F80000000
007F80000000
007F80000000
00FF80000000
00FF80000000
00FF80000000
00FF80000000
00FF80000000
00FF80000000
00FF80000000
00FF80000000
00FFC0000000
00FFC0000000
007FF0003000
007FFFFFF000
003FFFFFF000
003FFFFFF000
001FFFFFF000
000FFFFFF000
0003FFFFF000
0000FFFFE000
000003F00000
ENDCHAR
STARTCHAR 0075
ENCODING 117
SWIDTH 550 0
DWIDTH 55 0
BBX 46 50 6 -1
BITMAP
03FE000007FC
03FE000007FC
03FE000007FC
03FC000007F8
03FC000007F8
07FC00000FF8
07FC00000FF8
07FC00000FF8
07F800000FF0
07F800000FF0
0FF800001FF0
0FF800001FF0
0FF800001FF0
0FF000001FE0
0FF000001FE0
1FF000003FE0
1FF000003FE0
1FF000003FE0
1FE000003FC0
1FE000003FC0
3FE000007FC0
3FE000007FC0
3FE000007F80
3FC00000FF80
3FC00000FF80
7FC00000FF80
7FC00001FF80
7FC00001FF00
7F800003FF00
7F800003FF00
FF800007FF00
FF800007FF00
FF80000FFF00
FF00001FFF00
FF00001FFF00
FF00003FFE00
FF00007FFE00
FF0000FFFE00
FF0001FFFE00
FF8003FDFE00
FF800FF9FE00
FFC01FF9FE00
FFF9FFF1FE00
7FFFFFE1FE00
7FFFFFC3FC00
3FFFFF83FC00
1FFFFE03FC00
0FFFFC03FC00
03FFF003FC00
007F00000000
ENDCHAR
STARTCHAR 0076
ENCODING 118
SWIDTH 550 0
DWIDTH 55 0
BBX 44 49 8 0
BITMAP
FF8000003FF0
FF8000003FF0
FFC000003FF0
7FC000003FF0
7FC000003FE0
7FC000003FE0
7FC000003FE0
7FC000007FE0
3FE000007FE0
3FE000007FC0
3FE000007FC0
3FE00000FFC0
3FE00000FF80
1FE00000FF80
1FF00000FF80
1FF00001FF00
1FF00001FF00
1FF00001FF00
1FF00003FE00
0FF00003FE00
0FF80003FC00
0FF80007FC00
0FF80007FC00
0FF8000FF800
07F8000FF800
07F8001FF000
07FC001FF000
07FC003FE000
07FC003FC000
03FC007FC000
03FC00FF8000
03FC00FF8000
03FE01FF0000
03FE03FE0000
03FE03FE0000
01FE07FC0000
01FE0FF80000
01FE1FF00000
01FE3FF00000
01FF7FE00000
00FFFFC00000
00FFFF800000
00FFFF000000
00FFFE000000
00FFFC000000
007FF8000000
007FF0000000
007FE0000000
007FC0000000
ENDCHAR
STARTCHAR 0077
ENCODING 119
SWIDTH 550 0
DWIDTH 55 0
BBX 52 49 4 0
BITMAP
1FE00000000FF0
1FE00000000FF0
1FE00000000FF0
1FE00000000FF0
3FE00000001FF0
3FE00000001FF0
3FC00000001FF0
3FC00000001FE0
3FC00000001FE0
3FC00000001FE0
3FC00000001FE0
3FC00000001FE0
3FC003F8001FE0
3FC003F8003FC0
3FC007F8003FC0
3FC007F8003FC0
3FC00FF8003FC0
3F800FF8003FC0
3F801FFC007F80
7F801FFC007F80
7F803FFC007F80
7F803FFC007F00
7F807FFC00FF00
7F80FFFC00FF00
7F80FEFE00FF00
7F81FEFE00FE00
7F81FCFE01FE00
7F83FCFE01FE00
7F83F8FE01FC00
7F07F8FE03FC00
7F07F0FF03F800
7F0FE0FF03F800
7F0FE07F07F800
7F1FC07F07F000
FF1FC07F0FF000
FF3F807F0FE000
FF3F807F1FE000
FF7F007F9FC000
FF7F003FBFC000
FFFE003FBF8000
FFFE003FFF8000
FFFC003FFF0000
FFF8003FFE0000
FFF8003FFE0000
FFF0003FFC0000
FFF0001FF80000
FFE0001FF80000
FFE0001FF00000
FFC0001FE00000
ENDCHAR
STARTCHAR 0078
ENCODING 120
SWIDTH 550 0
DWIDTH 55 0
BBX 57 49 -1 0
BITMAP
003FF8000003FF80
001FF8000007FF00
001FFC00000FFE00
000FFC00001FFC00
0007FE00003FF800
0007FE00007FF000
0003FF0000FFE000
0003FF0000FFC000
0001FF8001FF8000
0001FF8003FF0000
0000FFC007FE0000
0000FFC00FFC0000
00007FE01FF80000
00007FE03FF00000
00003FF07FE00000
00003FF07FC00000
00001FF8FF800000
00000FF9FF000000
00000FFFFE000000
000007FFFE000000
000007FFFC000000
000003FFF8000000
000003FFF0000000
000001FFE0000000
000001FFC0000000
000003FFC0000000
000007FFE0000000
00000FFFE0000000
00001FFFF0000000
00003FFFF8000000
00007FEFF8000000
0000FFEFFC000000
0001FFC7FC000000
0003FF87FE000000
0007FF03FF000000
000FFE03FF000000
000FFC01FF800000
001FF801FF800000
003FF000FFC00000
007FE000FFC00000
00FFC0007FE00000
01FFC0007FF00000
03FF80003FF00000
07FF00003FF80000
0FFE00001FF80000
1FFC00001FFC0000
3FF800000FFE0000
7FF000000FFE0000
FFE0000007FF0000
ENDCHAR
STARTCHAR 0079
ENCODING 121
SWIDTH 550 0
DWIDTH 55 0
BBX 57 69 -5 -20
BITMAP
0007FC000001FF80
0007FC000001FF00
0003FE000001FF00
0003FE000001FF00
0003FE000001FF00
0003FE000001FF00
0003FE000003FF00
0001FF000003FE00
0001FF000003FE00
0001FF000003FE00
0001FF000003FE00
0001FF000007FC00
0000FF800007FC00
0000FF800007FC00
0000FF80000FF800
0000FF80000FF800
0000FF80000FF800
00007FC0001FF000
00007FC0001FF000
00007FC0003FF000
00007FC0003FE000
00007FC0007FE000
00003FE0007FC000
00003FE000FFC000
00003FE000FF8000
00003FE001FF8000
00003FE001FF0000
00001FF003FF0000
00001FF003FE0000
00001FF007FC0000
00001FF007FC0000
00001FF00FF80000
00000FF81FF80000
00000FF81FF00000
00000FF83FE00000
00000FF87FE00000
00000FF87FC00000
000007F8FF800000
000007F9FF800000
000007FDFF000000
000007FFFE000000
000007FFFC000000
000003FFFC000000
000003FFF8000000
000003FFF0000000
000003FFF0000000
000003FFE0000000
000001FFC0000000
000001FF80000000
000001FF80000000
000003FF00000000
000007FE00000000
00000FFC00000000
00001FF800000000
00001FF800000000
00003FF000000000
00007FE000000000
0000FFC000000000
0003FF8000000000
0007FF0000000000
001FFE0000000000
80FFFC0000000000
FFFFF80000000000
FFFFF00000000000
FFFFE00000000000
FFFF800000000000
FFFF000000000000
FFFC000000000000
FFE0000000000000
ENDCHAR
STARTCHAR 007A
ENCODING 122
SWIDTH 550 0
DWIDTH 55 0
BBX 48 49 3 0
BITMAP
003FFFFFFFFF
003FFFFFFFFE
003FFFFFFFFE
003FFFFFFFFE
003FFFFFFFFE
007FFFFFFFFE
007FFFFFFFFC
000000001FFC
000000003FF8
000000007FF0
000000007FE0
00000000FFC0
00000001FF80
00000003FF00
00000007FE00
0000000FFC00
0000001FF800
0000003FF000
0000007FE000
000000FFC000
000001FF8000
000003FF0000
000007FE0000
00000FFC0000
00001FF80000
00003FF00000
00007FE00000
0000FFC00000
0001FF800000
0003FF000000
0007FE000000
000FFC000000
001FF8000000
003FF0000000
007FE0000000
00FFE0000000
01FFC0000000
03FF80000000
07FF00000000
0FFE00000000
1FFC00000000
1FF800000000
3FFFFFFFFF80
7FFFFFFFFF80
7FFFFFFFFF00
7FFFFFFFFF00
FFFFFFFFFF00
FFFFFFFFFF00
FFFFFFFFFF00
ENDCHAR
STARTCHAR 007B
ENCODING 123
SWIDTH 550 0
DWIDTH 55 0
BBX 45 91 8 -20
BITMAP
0000000003F8
00000000FFF8
00000003FFF0
0000000FFFF0
0000003FFFF0
0000007FFFF0
000000FFFFF0
000001FFF800
000001FFC000
000003FF0000
000003FE0000
000007FC0000
000007F80000
00000FF80000
00000FF00000
00000FF00000
00000FF00000
00001FE00000
00001FE00000
00001FE00000
00001FE00000
00001FE00000
00003FC00000
00003FC00000
00003FC00000
00003FC00000
00003FC00000
00007F800000
00007F800000
00007F800000
00007F800000
0000FF000000
0000FF000000
0000FF000000
0001FE000000
0001FE000000
0003FC000000
0007FC000000
001FF8000000
1FFFF0000000
7FFFE0000000
7FFF80000000
7FFE00000000
FFF800000000
FFFF00000000
FFFF80000000
07FFC0000000
007FE0000000
003FE0000000
001FF0000000
001FF0000000
000FF0000000
000FF0000000
000FF0000000
000FF0000000
000FF0000000
001FF0000000
001FE0000000
001FE0000000
001FE0000000
001FE0000000
003FE0000000
003FC0000000
003FC0000000
003FC0000000
003FC0000000
003FC0000000
007F80000000
007F80000000
007F80000000
007F80000000
007F80000000
00FF00000000
00FF00000000
00FF00000000
00FF00000000
00FF00000000
00FF00000000
00FF00000000
00FF00000000
00FF80000000
00FF80000000
00FFC0000000
007FF0000000
007FFFF00000
003FFFF00000
003FFFF00000
001FFFF00000
000FFFE00000
0003FFE00000
00003FE00000
ENDCHAR
STARTCHAR 007C
ENCODING 124
SWIDTH 550 0
DWIDTH 55 0
BBX 27 100 15 -20
BITMAP
00001FE0
00001FE0
00001FE0
00001FE0
00001FE0
00003FC0
00003FC0
00003FC0
00003FC0
00003FC0
00007F80
00007F80
00007F80
00007F80
00007F80
0000FF00
0000FF00
0000FF00
0000FF00
0000FF00
0001FE00
0001FE00
0001FE00
0001FE00
0001FE00
0003FC00
0003FC00
0003FC00
0003FC00
0003FC00
0007F800
0007F800
0007F800
0007F800
0007F800
000FF000
000FF000
000FF000
000FF000
000FF000
001FE000
001FE000
001FE000
001FE000
001FE000
003FC000
003FC000
003FC000
003FC000
003FC000
007F8000
007F8000
007F8000
007F8000
007F8000
00FF0000
00FF0000
00FF0000
00FF0000
00FF0000
01FE0000
01FE0000
01FE0000
01FE0000
01FE0000
03FC0000
03FC0000
03FC0000
03FC0000
03FC0000
07F80000
07F80000
07F80000
07F80000
07F80000
0FF00000
0FF00000
0FF00000
0FF00000
0FF00000
1FE00000
1FE00000
1FE00000
1FE00000
1FE00000
3FC00000
3FC00000
3FC00000
3FC00000
3FC00000
7F800000
7F800000
7F800000
7F800000
7F800000
FF000000
FF000000
FF000000
FF000000
FF000000
ENDCHAR
STARTCHAR 007D
ENCODING 125
SWIDTH 550 0
DWIDTH 55 0
BBX 46 91 2 -20
BITMAP
00003F800000
00003FFC0000
00003FFF0000
00003FFFC000
00007FFFE000
00007FFFE000
00007FFFF000
000001FFF000
0000003FF800
0000000FF800
0000000FF800
00000007F800
00000007F800
00000007F800
00000007F800
00000007F800
00000007F800
00000007F800
00000007F800
00000007F800
0000000FF800
0000000FF000
0000000FF000
0000000FF000
0000000FF000
0000001FF000
0000001FE000
0000001FE000
0000001FE000
0000001FE000
0000003FE000
0000003FC000
0000003FC000
0000003FC000
0000003FC000
0000003FE000
0000001FE000
0000001FF000
0000001FFC00
0000000FFFFC
00000007FFFC
00000001FFFC
000000003FFC
00000003FFFC
0000000FFFF8
0000001FFFF8
0000003FFE00
0000007FE000
000000FFC000
000000FF0000
000001FF0000
000001FE0000
000003FC0000
000003FC0000
000003FC0000
000007FC0000
000007F80000
000007F80000
000007F80000
000007F80000
00000FF80000
00000FF00000
00000FF00000
00000FF00000
00000FF00000
00001FF00000
00001FE00000
00001FE00000
00001FE00000
00001FE00000
00001FE00000
00003FC00000
00003FC00000
00003FC00000
00003FC00000
00007F800000
00007F800000
00007F800000
0000FF800000
0001FF000000
0003FF000000
0007FE000000
000FFE000000
003FFC000000
3FFFF8000000
7FFFF0000000
7FFFE0000000
7FFFC0000000
7FFF00000000
7FFC00000000
FFC000000000
ENDCHAR
STARTCHAR 007E
ENCODING 126
SWIDTH 550 0
DWIDTH 55 0
BBX 50 20 3 17
BITMAP
001F8000000000
00FFF000000000
01FFFC00000000
07FFFE00003FC0
0FFFFF80003FC0
0FFFFFC0003FC0
1FFFFFE0003FC0
3FFFFFF0007F80
3FE07FF8007F80
7FC03FFC007F80
7F801FFE00FF80
7F800FFF01FF00
FF0007FFFFFF00
FF0003FFFFFE00
FF0001FFFFFE00
FF0000FFFFFC00
FF00003FFFF800
0000001FFFF000
0000000FFFC000
00000001FF0000
ENDCHAR
STARTCHAR 00A0
ENCODING 160
SWIDTH 550 0
DWIDTH 55 0
BBX 0 0 0 0
BITMAP
ENDCHAR
STARTCHAR 00A1
ENCODING 161
SWIDTH 550 0
DWIDTH 55 0
BBX 25 70 13 -20
BITMAP
0000F800
0003FC00
0007FE00
0007FF00
000FFF00
000FFF80
000FFF80
000FFF80
000FFF00
000FFF00
0007FE00
0003FC00
0000F800
00000000
00000000
00000000
00000000
00000000
00000000
00000000
000FE000
001FE000
001FE000
001FE000
001FE000
003FC000
003FC000
003FC000
003FC000
003FC000
007F8000
007F8000
007F8000
007F8000
00FF8000
00FF8000
00FF0000
00FF0000
00FF0000
01FF0000
01FF0000
01FF0000
01FE0000
03FE0000
03FE0000
03FE0000
03FE0000
07FE0000
07FC0000
07FC0000
07FC0000
07FC0000
0FFC0000
0FFC0000
0FF80000
0FF80000
1FF80000
1FF80000
1FF80000
1FF80000
1FF00000
3FF00000
3FF00000
3FF00000
3FF00000
7FE00000
7FE00000
7FE00000
7FE00000
FFE00000
ENDCHAR
STARTCHAR 00A2
ENCODING 162
SWIDTH 550 0
DWIDTH 55 0
BBX 43 85 7 -12
BITMAP
000000003FC0
000000003F80
000000007F80
000000007F80
000000007F00
00000000FF00
00000000FF00
00000000FE00
00000001FE00
00000001FE00
00000001FC00
00000003FC00
00000003FC00
00000003F800
00000007F800
00000007F800
0000007FF000
00000FFFFF00
00007FFFFFE0
0001FFFFFFE0
0007FFFFFFE0
000FFFFFFFE0
001FFFFFFFC0
007FFFFFFFC0
00FFFC3FC7C0
00FFE03F80C0
01FFC07F8000
03FF807F8000
07FF007F0000
07FE00FF0000
0FFC00FF0000
1FF800FE0000
1FF001FE0000
1FF001FE0000
3FE001FC0000
3FE003FC0000
7FE003FC0000
7FC003F80000
7FC007F80000
7FC007F80000
7F8007F00000
FF800FF00000
FF800FF00000
FF800FE00000
FF801FE00000
FF801FE00000
FF801FC00000
FF803FC00000
FF803FC00000
FF803F800000
FF807F800000
FFC07F800000
7FC07F000000
7FE0FF000000
7FF0FF000000
3FF8FE002000
3FFFFE03E000
1FFFFFFFE000
1FFFFFFFE000
0FFFFFFFE000
07FFFFFFE000
03FFFFFFE000
00FFFFFFC000
001FFFFE0000
0007FF000000
000FF0000000
000FF0000000
000FE0000000
001FE0000000
001FE0000000
001FC0000000
003FC0000000
003FC0000000
003F80000000
007F80000000
007F80000000
007F00000000
00FF00000000
00FF00000000
00FE00000000
01FE00000000
01FE00000000
01FC00000000
03FC00000000
03FC00000000
ENDCHAR
STARTCHAR 00A3
ENCODING 163
SWIDTH 550 0
DWIDTH 55 0
BBX 55 65 0 0
BITMAP
0000000007C000
00000000FFFF00
00000007FFFFC0
0000001FFFFFF0
0000003FFFFFF8
000000FFFFFFFC
000001FFFFFFFE
000003FFFFFFFE
000003FFC007FC
000007FF0001F8
00000FFE0000F0
00001FFC000020
00001FF8000000
00003FF0000000
00003FE0000000
00003FE0000000
00007FC0000000
00007FC0000000
00007FC0000000
0000FF80000000
0000FF80000000
0000FF80000000
0000FF80000000
0000FF00000000
0001FF00000000
0001FF00000000
0001FF00000000
0001FE00000000
0001FE00000000
0003FE00000000
03FFFFFFFFF000
03FFFFFFFFF000
03FFFFFFFFF000
03FFFFFFFFF000
03FFFFFFFFE000
07FFFFFFFFE000
07FFFFFFFFE000
0007F800000000
0007F800000000
000FF800000000
000FF800000000
000FF800000000
000FF000000000
000FF000000000
001FF000000000
001FF000000000
001FF000000000
001FE000000000
001FE000000000
003FE000000000
003FE000000000
003FE000000000
003FC000000000
003FC000000000
007FC000000000
007FC000000000
007FC000000000
007F8000000000
7FFFFFFFFFF800
7FFFFFFFFFF800
FFFFFFFFFFF800
FFFFFFFFFFF000
FFFFFFFFFFF000
FFFFFFFFFFF000
FFFFFFFFFFF000
ENDCHAR
STARTCHAR 00A4
ENCODING 164
SWIDTH 550 0
DWIDTH 55 0
BBX 56 59 1 3
BITMAP
00004000000040
0000C0000000E0
0003E0000000F8
000FE0000001FC
003FE0000003FF
003FF0000007FF
001FF000000FFE
001FF800001FFC
000FF800001FF8
000FFC03803FF0
0007FC7FFE7FE0
0007FDFFFFFFC0
0003FFFFFFFF80
0001FFFFFFFF00
0001FFFFFFFE00
0000FFFFFFFC00
0000FFFFFFF800
0001FFE03FFC00
0003FF800FFC00
0003FF000FFC00
0007FE0007FE00
000FFC0007FE00
000FF80003FE00
001FF80003FE00
001FF00003FE00
001FF00003FE00
003FE00003FE00
003FE00003FE00
003FE00003FE00
003FC00003FC00
007FC00007FC00
007FC00007FC00
007FC00007FC00
007FC0000FF800
007FC0000FF800
007FC0001FF800
007FC0001FF000
007FC0003FF000
007FE0007FE000
007FE0007FC000
003FF001FFC000
003FF803FF8000
003FFFBFFF0000
003FFFFFFF0000
007FFFFFFF0000
00FFFFFFFF8000
01FFFFFFFFC000
03FFFFFFFFC000
07FEFFFF3FE000
0FFC1FF03FE000
1FFC00003FF000
3FF800001FF000
3FF000001FF800
7FE000000FFC00
FFC000000FFC00
7F80000007F800
1F80000007E000
0F000000038000
02000000020000
ENDCHAR
STARTCHAR 00A5
ENCODING 165
SWIDTH 550 0
DWIDTH 55 0
BBX 55 64 5 0
BITMAP
03FE00000007FE
03FE0000000FFC
03FF0000000FFC
01FF0000001FF8
01FF8000003FF0
00FF8000007FE0
00FF800000FFC0
00FFC00000FFC0
007FC00001FF80
007FC00003FF00
003FE00007FE00
003FE00007FC00
003FF0000FFC00
001FF0001FF800
001FF0003FF000
000FF8003FE000
000FF8007FC000
000FF800FFC000
0007FC01FF8000
0007FC01FF0000
0007FC03FE0000
0003FE07FC0000
0003FE0FFC0000
0001FE0FF80000
0001FF1FF00000
0001FF3FE00000
0000FF7FC00000
0000FFFFC00000
00007FFF800000
00007FFF000000
00007FFE000000
00003FFC000000
00003FFC000000
00001FF8000000
00001FF0000000
00001FF0000000
1FFFFFFFFFC000
1FFFFFFFFFC000
1FFFFFFFFFC000
1FFFFFFFFFC000
1FFFFFFFFFC000
1FFFFFFFFF8000
3FFFFFFFFF8000
00007FC0000000
00007FC0000000
00007FC0000000
00007F80000000
0000FF80000000
0000FF80000000
0000FF80000000
0000FF80000000
7FFFFFFFFE0000
FFFFFFFFFE0000
FFFFFFFFFE0000
FFFFFFFFFE0000
FFFFFFFFFE0000
FFFFFFFFFC0000
0003FE00000000
0003FE00000000
0003FE00000000
0003FE00000000
0003FC00000000
0007FC00000000
0007FC00000000
ENDCHAR
STARTCHAR 00A6
ENCODING 166
SWIDTH 550 0
DWIDTH 55 0
BBX 27 100 15 -20
BITMAP
00001FE0
00001FE0
00001FE0
00001FE0
00001FE0
00003FC0
00003FC0
00003FC0
00003FC0
00003FC0
00007F80
00007F80
00007F80
00007F80
00007F80
0000FF00
0000FF00
0000FF00
0000FF00
0000FF00
0001FE00
0001FE00
0001FE00
0001FE00
0001FE00
0003FC00
0003FC00
0003FC00
0003FC00
0003FC00
0007F800
0007F800
0007F800
0007F800
0007F800
000FF000
000FF000
000FF000
000FF000
000FF000
00000000
00000000
00000000
00000000
00000000
00000000
00000000
00000000
00000000
00000000
00000000
00000000
00000000
00000000
00000000
00000000
00000000
00000000
00000000
00FF0000
01FE0000
01FE0000
01FE0000
01FE0000
01FE0000
03FC0000
03FC0000
03FC0000
03FC0000
03FC0000
07F80000
07F80000
07F80000
07F80000
07F80000
0FF00000
0FF00000
0FF00000
0FF00000
0FF00000
1FE00000
1FE00000
1FE00000
1FE00000
1FE00000
3FC00000
3FC00000
3FC00000
3FC00000
3FC00000
7F800000
7F800000
7F800000
7F800000
7F800000
FF000000
FF000000
FF000000
FF000000
FF000000
ENDCHAR
STARTCHAR 00A7
ENCODING 167
SWIDTH 550 0
DWIDTH 55 0
BBX 49 81 2 -11
BITMAP
00000000070000
00000007FFFF80
0000003FFFFF80
000000FFFFFF80
000003FFFFFF80
000007FFFFFF80
00000FFFFFFF80
00001FFFE1FF00
00003FFC000100
00003FF0000000
00007FC0000000
00007FC0000000
0000FF80000000
0000FF80000000
0000FF80000000
0000FF80000000
0000FF80000000
0000FF80000000
0000FFC0000000
0000FFE0000000
00007FE0000000
00007FF8000000
00003FFC000000
0000FFFE000000
0001FFFF800000
0003FFFFC00000
0007FFFFF00000
000FFFFFF80000
001FF87FFC0000
003FF03FFF0000
007FE01FFF8000
00FFC007FFC000
00FF8003FFE000
01FF0000FFF000
01FF00007FF000
01FE00003FF800
03FE00001FF800
03FE00000FFC00
03FE000007FC00
03FE000007FE00
03FE000003FE00
03FE000003FE00
03FF000003FE00
01FF800003FE00
01FF800003FE00
00FFC00003FC00
00FFE00003FC00
007FF80007FC00
003FFC0007F800
003FFE000FF800
001FFF801FF000
0007FFC03FE000
0003FFE07FE000
0001FFF9FFC000
0000FFFFFF8000
00003FFFFF0000
00001FFFFE0000
000007FFF80000
000003FFF00000
000001FFE00000
0000007FF00000
0000003FF00000
0000001FF80000
0000000FF80000
0000000FF80000
0000000FF80000
0000000FF80000
0000000FF80000
0000000FF80000
0000000FF80000
0000001FF00000
0000003FF00000
600000FFE00000
7E0007FFC00000
7FFFFFFFC00000
FFFFFFFF800000
FFFFFFFE000000
FFFFFFFC000000
FFFFFFF0000000
FFFFFFC0000000
1FFFFC00000000
ENDCHAR
STARTCHAR 00A8
ENCODING 168
SWIDTH 550 0
DWIDTH 55 0
BBX 32 11 19 49
BITMAP
04000020
3F8001FC
7FC003FE
7FE003FF
FFE007FF
FFE007FF
FFE007FF
FFE007FF
7FC003FE
7FC003FE
3F0001F8
ENDCHAR
STARTCHAR 00A9
ENCODING 169
SWIDTH 550 0
DWIDTH 55 0
BBX 54 66 2 -1
BITMAP
00000003800000
000001FFFC0000
00000FFFFF8000
00003FFFFFE000
0000FFFFFFF000
0001FFFFFFFC00
0003FFFFFFFE00
000FFF801FFF00
001FFC0003FF00
003FF00001FF80
007FE00000FFC0
007F8000007FC0
00FF0000003FE0
01FE0000001FE0
03FE0000000FF0
03FC0000000FF0
07F800000007F8
07F0001FF807F8
0FF000FFFF07F8
0FE003FFFF03F8
1FE007FFFE03F8
1FC00FFFFE03FC
1FC01FFFFE03FC
3F803FF00E01FC
3F807FC00201FC
3F807F800001FC
7F00FF000001FC
7F00FF000001FC
7F01FE000001FC
7F01FC000001FC
FF03FC000001FC
FE03FC000001FC
FE03F8000001FC
FE03F8000003FC
FE03F8000003F8
FE07F8000003F8
FE07F8000003F8
FE07F8000003F8
FE07F8000007F8
FE07F8000007F0
FE03FC000007F0
FE03FC000007F0
FE03FF00E00FE0
FE03FFFFE00FE0
FE01FFFFE01FE0
FF00FFFFE01FC0
FF00FFFFE03FC0
FF003FFFE03F80
7F000FFF007F80
7F800000007F00
7F80000000FF00
3FC0000001FE00
3FC0000003FE00
1FE0000007FC00
1FF000000FF800
0FF800001FF000
0FFC00007FE000
07FF0000FFC000
03FFC007FF8000
01FFFFFFFF0000
00FFFFFFFE0000
007FFFFFFC0000
003FFFFFF00000
000FFFFFC00000
0003FFFE000000
00001FC0000000
ENDCHAR
STARTCHAR 00AA
ENCODING 170
SWIDTH 550 0
DWIDTH 55 0
BBX 39 48 10 17
BITMAP
0000000002
00001FFFBE
0000FFFFFC
0001FFFFFC
0007FFFFFC
000FFFFFFC
001FFFFFFC
003FF807F8
003FE003F8
007FC007F8
00FF8007F8
00FF8007F8
01FF0007F0
01FF0007F0
01FE000FF0
03FE000FF0
03FC000FF0
03FC000FE0
03FC001FE0
03FC001FE0
03FC003FE0
03FC003FE0
07FC007FE0
07FC00FFC0
07FC01FFC0
03FC01FFC0
03FC07FFC0
03FE0FFFC0
03FFFFFFC0
03FFFFDFC0
01FFFF9FC0
00FFFF1FC0
00FFFE1FC0
003FF81F80
000FE00000
0000000000
0000000000
0000000000
0000000000
0000000000
0000000000
7FFFFFFFC0
FFFFFFFFC0
FFFFFFFF80
FFFFFFFF80
FFFFFFFF80
FFFFFFFF80
FFFFFFFF80
ENDCHAR
STARTCHAR 00AB
ENCODING 171
SWIDTH 550 0
DWIDTH 55 0
BBX 44 39 7 7
BITMAP
0000C0000600
0001F0000700
0003F8000FC0
0007FE001FF0
0007FC003FE0
000FF8007FC0
001FF000FF80
003FE001FF00
007FE003FF00
00FFC007FE00
00FF8007FC00
01FF000FF800
03FE001FF000
07FC003FE000
0FF8007FC000
1FF800FF8000
1FF001FF0000
3FE003FE0000
7FC007FC0000
FF8007F80000
7F8007FC0000
7FC003FC0000
3FC003FE0000
3FE001FE0000
1FE001FF0000
1FF000FF0000
0FF000FF8000
0FF0007F8000
0FF8007FC000
07F8003FC000
07FC003FE000
03FC001FE000
03FE001FF000
01FE000FF000
01FF000FF800
00FF0007F800
00FE0007F000
00780003C000
006000030000
ENDCHAR
STARTCHAR 00AC
ENCODING 172
SWIDTH 550 0
DWIDTH 55 0
BBX 43 21 5 9
BITMAP
3FFFFFFFFFE0
7FFFFFFFFFE0
7FFFFFFFFFE0
7FFFFFFFFFE0
7FFFFFFFFFE0
7FFFFFFFFFC0
FFFFFFFFFFC0
000000003FC0
000000007FC0
000000007FC0
000000007F80
000000007F80
000000007F80
00000000FF80
00000000FF80
00000000FF00
00000000FF00
00000000FF00
00000001FF00
00000001FF00
00000001FE00
ENDCHAR
STARTCHAR 00AD
ENCODING 173
SWIDTH 550 0
DWIDTH 55 0
BBX 30 8 13 23
BITMAP
7FFFFFFC
7FFFFFFC
7FFFFFFC
FFFFFFFC
FFFFFFF8
FFFFFFF8
FFFFFFF8
FFFFFFF8
ENDCHAR
STARTCHAR 00AE
ENCODING 174
SWIDTH 550 0
DWIDTH 55 0
BBX 44 45 10 25
BITMAP
000003000000
0000FFFC0000
0003FFFF0000
000FFFFFC000
003FFFFFF000
007FFCFFF800
00FF8007FC00
03FE0001FE00
07F80000FF00
07F000007F80
0FE0FFF03F80
1FC0FFFC1FC0
1F80FFFE0FC0
3F00FFFF07E0
3F01F03F07E0
7E01F01F03E0
7E01F01F03F0
7C01F01F03F0
FC01F03F03F0
FC03E03E03F0
F803E0FC01F0
F803FFFC01F0
F803FFF001F0
F803FFC003F0
F807FFC003F0
F807C7E003F0
F807C3E003F0
FC07C3F003E0
FC07C1F007E0
FC0F81F007E0
7C0F81F80FC0
7E0F81F80FC0
7E0F80F81F80
3F0F80F83F80
3F9F00FC7F00
1FC00000FE00
0FE00001FE00
0FF00003FC00
07FC000FF800
03FF807FF000
01FFFFFFC000
007FFFFF8000
003FFFFE0000
0007FFF80000
0000FF800000
ENDCHAR
STARTCHAR 00AF
ENCODING 175
SWIDTH 550 0
DWIDTH 55 0
BBX 26 6 22 49
BITMAP
7FFFFFC0
7FFFFFC0
FFFFFFC0
FFFFFFC0
FFFFFFC0
FFFFFF80
ENDCHAR
STARTCHAR 00B0
ENCODING 176
SWIDTH 550 0
DWIDTH 55 0
BBX 34 33 16 37
BITMAP
0000180000
0007FFE000
001FFFF800
007FFFFC00
01FFFFFE00
03FFFFFF00
07FFFFFF80
0FFF03FF80
0FF800FF80
1FF0007FC0
3FE0003FC0
3FC0003FC0
7FC0003FC0
7F80003FC0
7F80003FC0
FF00003FC0
FF00003FC0
FF00003FC0
FF00003FC0
FF00007F80
FF00007F80
FF0000FF80
FF0000FF00
FF8001FF00
FF8003FE00
7FC00FFC00
7FFCFFFC00
3FFFFFF800
3FFFFFE000
1FFFFFC000
0FFFFF8000
03FFFE0000
007FF00000
ENDCHAR
STARTCHAR 00B1
ENCODING 177
SWIDTH 550 0
DWIDTH 55 0
BBX 51 60 2 0
BITMAP
0000000FF00000
0000000FF00000
0000000FF00000
0000000FF00000
0000000FF00000
0000001FF00000
0000001FE00000
0000001FE00000
0000001FE00000
0000003FE00000
0000003FE00000
0000003FC00000
0000003FC00000
0000003FC00000
0000007FC00000
0000007FC00000
0000007F800000
0000007F800000
0000007F800000
03FFFFFFFFFFE0
03FFFFFFFFFFE0
03FFFFFFFFFFE0
03FFFFFFFFFFC0
07FFFFFFFFFFC0
07FFFFFFFFFFC0
07FFFFFFFFFFC0
07FFFFFFFFFFC0
000001FE000000
000001FE000000
000003FE000000
000003FE000000
000003FC000000
000003FC000000
000003FC000000
000007FC000000
000007FC000000
000007F8000000
000007F8000000
000007F8000000
00000FF8000000
00000FF8000000
00000FF0000000
00000FF0000000
00000FF0000000
00001FF0000000
00001FF0000000
00000000000000
00000000000000
00000000000000
00000000000000
00000000000000
00000000000000
00000000000000
7FFFFFFFFFE000
7FFFFFFFFFE000
FFFFFFFFFFC000
FFFFFFFFFFC000
FFFFFFFFFFC000
FFFFFFFFFFC000
FFFFFFFFFFC000
ENDCHAR
STARTCHAR 00B2
ENCODING 178
SWIDTH 550 0
DWIDTH 55 0
BBX 34 39 13 31
BITMAP
0000040000
0001FFE000
000FFFFC00
003FFFFE00
00FFFFFF00
01FFFFFF80
01FFFFFF80
01FFFFFFC0
00FE01FFC0
007800FFC0
0020007FC0
0000007FC0
0000007FC0
0000007FC0
0000007FC0
000000FF80
000001FF80
000003FF00
000007FF00
00000FFE00
00001FFC00
00007FF800
0000FFF000
0003FFE000
0007FF8000
001FFF0000
003FFC0000
00FFF80000
01FFE00000
07FFC00000
0FFF000000
3FFC000000
7FFFFFFF00
7FFFFFFF00
7FFFFFFF00
7FFFFFFF00
FFFFFFFF00
FFFFFFFE00
FFFFFFFE00
ENDCHAR
STARTCHAR 00B3
ENCODING 179
SWIDTH 550 0
DWIDTH 55 0
BBX 33 39 14 31
BITMAP
003FFFE000
00FFFFF800
00FFFFFE00
00FFFFFF00
00FFFFFF00
00FFFFFF80
00FF0FFF80
008001FF80
000000FF80
000000FF80
000000FF80
000001FF00
000001FF00
000003FE00
00000FFE00
00007FFC00
003FFFF800
003FFFE000
003FFF8000
003FFFF000
003FFFF800
007FFFFC00
00001FFE00
000007FE00
000003FE00
000003FE00
000003FE00
000003FE00
000003FE00
000007FE00
00000FFC00
00003FFC00
7FFFFFF800
7FFFFFF000
7FFFFFE000
7FFFFFC000
7FFFFF0000
FFFFFC0000
FFFFC00000
ENDCHAR
STARTCHAR 00B4
ENCODING 180
SWIDTH 550 0
DWIDTH 55 0
BBX 23 12 30 49
BITMAP
001FFE
003FFC
007FF0
00FFE0
01FFC0
03FF00
07FE00
0FFC00
1FF000
3FE000
7FC000
FF0000
ENDCHAR
STARTCHAR 00B5
ENCODING 181
SWIDTH 550 0
DWIDTH 55 0
BBX 52 69 -1 -20
BITMAP
0007FC00000FF0
0007FC00000FF0
0007FC00001FF0
0007F800001FF0
0007F800001FF0
000FF800001FE0
000FF800001FE0
000FF800003FE0
000FF000003FE0
000FF000003FE0
001FF000003FC0
001FF000003FC0
001FF000007FC0
001FE000007FC0
001FE000007FC0
003FE000007F80
003FE000007F80
003FE00000FF80
003FC00000FF80
003FC00000FF80
007FC00000FF00
007FC00001FF00
007FC00001FF00
007F800001FF00
007F800003FF00
00FF800003FE00
00FF800003FE00
00FF800007FE00
00FF000007FE00
00FF00000FFC00
01FF00000FFC00
01FF00001FFC00
01FF00001FFC00
01FE00003FFC00
01FE00007FFC00
03FE0000FFFC00
03FE0000FFFC00
03FE0001FFF800
03FF0003FBF800
03FF0007FFFC00
07FF001FF7FC00
07FFC03FE7FC00
07FFFFFFC7FFC0
07FFFFFFC7FFC0
07FFFFFF83FF80
0FFFFFFF03FF80
0FF7FFFC03FF80
0FF3FFF801FF80
0FF1FFE0007F80
0FF03E00000000
1FF00000000000
1FF00000000000
1FE00000000000
1FE00000000000
1FE00000000000
3FE00000000000
3FE00000000000
3FE00000000000
3FC00000000000
3FC00000000000
7FC00000000000
7FC00000000000
7FC00000000000
7F800000000000
7F800000000000
FF800000000000
FF800000000000
FF800000000000
FF000000000000
ENDCHAR
STARTCHAR 00B6
ENCODING 182
SWIDTH 550 0
DWIDTH 55 0
BBX 52 80 5 -11
BITMAP
0000001FFFFFF0
000001FFFFFFF0
00000FFFFFFFF0
00003FFFFFFFF0
0000FFFFFFFFF0
0003FFFFFFFFE0
0007FFFFFFFFE0
000FFFFFC03FE0
001FFFFFC03FE0
003FFFFFC03FE0
007FFFFFC03FC0
00FFFFFFC03FC0
00FFFFFF807FC0
01FFFFFF807FC0
01FFFFFF807FC0
03FFFFFF807F80
03FFFFFF807F80
03FFFFFF00FF80
07FFFFFF00FF80
07FFFFFF00FF80
07FFFFFF00FF00
07FFFFFF00FF00
07FFFFFE01FF00
07FFFFFE01FF00
07FFFFFE01FF00
07FFFFFE01FE00
07FFFFFE01FE00
07FFFFFC03FE00
07FFFFFC03FE00
07FFFFFC03FE00
03FFFFFC03FC00
03FFFFFC03FC00
01FFFFF807FC00
01FFFFF807FC00
00FFFFF807FC00
007FFFF807F800
003FFFF807F800
001FFFF00FF800
0007FFF00FF800
0000FFF00FF800
00000FF00FF000
000000000FF000
000000001FF000
000000001FF000
000000001FF000
000000001FE000
000000001FE000
000000003FE000
000000003FE000
000000003FE000
000000003FC000
000000003FC000
000000007FC000
000000007FC000
000000007FC000
000000007F8000
000000007F8000
00000000FF8000
00000000FF8000
00000000FF8000
00000000FF0000
00000000FF0000
00000001FF0000
00000001FF0000
00000003FE0000
00000003FE0000
00000007FE0000
00000007FC0000
0000000FFC0000
0C00001FF80000
1F00007FF00000
3FC000FFF00000
3FF007FFE00000
7FFFFFFFC00000
FFFFFFFF800000
3FFFFFFF000000
1FFFFFFC000000
0FFFFFF8000000
03FFFFE0000000
007FFE00000000
ENDCHAR
STARTCHAR 00B7
ENCODING 183
SWIDTH 550 0
DWIDTH 55 0
BBX 16 16 20 19
BITMAP
03C0
0FF0
3FFC
7FFC
7FFE
FFFE
FFFF
FFFF
FFFF
FFFF
FFFF
FFFE
7FFE
7FFC
3FF8
0FE0
ENDCHAR
STARTCHAR 00B8
ENCODING 184
SWIDTH 550 0
DWIDTH 55 0
BBX 14 14 14 -14
BITMAP
07FC
07F8
0FF8
0FF0
0FF0
1FE0
1FE0
3FC0
3FC0
7F80
7F80
7F00
FF00
FE00
ENDCHAR
STARTCHAR 00B9
ENCODING 185
SWIDTH 550 0
DWIDTH 55 0
BBX 31 38 14 31
BITMAP
00001FF0
00007FE0
0001FFE0
0007FFE0
003FFFE0
00FFFFE0
03FFFFC0
0FFFFFC0
0FFFFFC0
0FFF7FC0
07FC7FC0
07F07F80
07807F80
0200FF80
0000FF80
0000FF80
0000FF00
0000FF00
0001FF00
0001FF00
0001FF00
0001FE00
0001FE00
0003FE00
0003FE00
0003FE00
0003FC00
0003FC00
0007FC00
0007FC00
0007FC00
7FFFFFFE
7FFFFFFE
7FFFFFFE
7FFFFFFE
FFFFFFFC
FFFFFFFC
FFFFFFFC
ENDCHAR
STARTCHAR 00BA
ENCODING 186
SWIDTH 550 0
DWIDTH 55 0
BBX 39 47 10 18
BITMAP
00003FFE00
0000FFFFC0
0003FFFFE0
0007FFFFF0
000FFFFFF8
003FFFFFFC
003FF83FFC
007FE00FFE
00FFC003FE
00FF8003FE
01FF0001FE
01FE0001FE
03FE0001FE
03FC0001FE
03FC0001FE
07FC0001FE
07F80001FE
07F80003FE
07F80003FC
07F80003FC
07F80007FC
07F80007F8
07F8000FF8
07F8001FF8
07FC001FF0
07FE007FE0
07FF00FFE0
03FFFFFFC0
03FFFFFF80
01FFFFFF00
00FFFFFC00
007FFFF800
001FFFE000
0003FE0000
0000000000
0000000000
0000000000
0000000000
0000000000
0000000000
7FFFFFFFC0
FFFFFFFF80
FFFFFFFF80
FFFFFFFF80
FFFFFFFF80
FFFFFFFF80
FFFFFFFF80
ENDCHAR
STARTCHAR 00BB
ENCODING 187
SWIDTH 550 0
DWIDTH 55 0
BBX 43 39 5 7
BITMAP
000800006000
003C0001E000
00FC000FF000
03FE000FF000
01FE000FF000
01FF000FF800
00FF0007F800
00FF8007FC00
007F8003FC00
007FC003FE00
003FC001FE00
003FE001FF00
001FE000FF00
001FF000FF00
000FF000FF80
000FF8007F80
0007F8007FC0
0007FC003FC0
0003FC003FE0
0003FE003FE0
0007FC003FE0
000FF8007FC0
001FF000FF80
001FF001FF00
003FE003FE00
007FC007FE00
00FF8007FC00
01FF000FF800
03FE001FF000
07FC003FE000
0FF8007FC000
1FF000FFC000
3FF001FF8000
7FE001FF0000
7FC003FE0000
FF8007FC0000
7F0003F80000
1E0000F80000
040000300000
ENDCHAR
STARTCHAR 00BC
ENCODING 188
SWIDTH 550 0
DWIDTH 55 0
BBX 67 70 -4 0
BITMAP
0000003F8000000000
000000FF8000003FE0
000007FF0000007FC0
00001FFF000000FF80
00007FFF000000FF00
0001FFFF000001FE00
0007FFFF000003FC00
0007FFFE000007F800
0007FFFE00000FF800
0007F9FE00001FF000
0003E1FE00003FE000
000381FE00003FC000
000203FC00007F8000
000003FC0000FF0000
000003FC0001FF0000
000003FC0003FE0000
000003F80007FC0000
000007F8000FF80000
000007F8000FF00000
000007F8001FE00000
000007F8003FC00000
000007F0007FC00000
00000FF000FF800000
00000FF001FF000000
00000FF003FE000000
00000FF003FC000000
00000FE007F8000000
00001FE00FF0000000
00001FE01FF0000000
000000003FE0000000
000000007FC0000000
000000007F80000000
00000000FF00000000
00000001FE00000000
00000003FC00000000
00000007FC00000000
0000000FF800000000
0000001FF000000000
0000001FE000000000
0000003FC000000000
0000007F8000000000
000000FF8000000000
000001FF007FF80000
000003FE00FFF00000
000007FC01FFF00000
000007F803FFF00000
00000FF007FFF00000
00001FE007FFF00000
00003FE00FEFE00000
00007FC01FEFE00000
0000FF803FCFE00000
0000FF007F9FE00000
0001FE00FF1FE00000
0003FC00FE1FC00000
0007F801FC1FC00000
000FF803FC1FC00000
001FF007F83FC00000
003FE00FF03FC00000
003FC01FE03F800000
007F801FFFFFFC0000
00FF001FFFFFF80000
01FE001FFFFFF80000
03FE001FFFFFF80000
07FC003FFFFFF80000
0FF8003FFFFFF80000
0FF00000007F000000
1FE0000000FF000000
3FC0000000FF000000
7FC0000000FF000000
FF80000000FE000000
ENDCHAR
STARTCHAR 00BD
ENCODING 189
SWIDTH 550 0
DWIDTH 55 0
BBX 67 70 -4 0
BITMAP
0000003F8000000000
000000FF8000003FE0
000007FF0000007FC0
00001FFF000000FF80
00007FFF000000FF00
0001FFFF000001FE00
0007FFFF000003FC00
0007FFFE000007F800
0007FFFE00000FF800
0007F9FE00001FF000
0003E1FE00003FE000
000381FE00003FC000
000203FC00007F8000
000003FC0000FF0000
000003FC0001FF0000
000003FC0003FE0000
000003F80007FC0000
000007F8000FF80000
000007F8000FF00000
000007F8001FE00000
000007F8003FC00000
000007F0007FC00000
00000FF000FF800000
00000FF001FF000000
00000FF003FE000000
00000FF003FC000000
00000FE007F8000000
00001FE00FF0000000
00001FE01FF0000000
000000003FE0000000
000000007FC0000000
000000007F80000000
00000000FF00000000
00000001FE00000000
00000003FC00000000
00000007FC00000000
0000000FF800000000
0000001FF000000000
0000001FE000000000
0000003FC000000000
0000007F8000000000
000000FF8004000000
000001FF00FFE00000
000003FE03FFF00000
000007FC0FFFF80000
000007F81FFFFC0000
00000FF01FFFFC0000
00001FE00FFFFE0000
00003FE00F03FE0000
00007FC00601FE0000
0000FF800001FE0000
0000FF000001FC0000
0001FE000003FC0000
0003FC000007FC0000
0007F800000FF80000
000FF800001FF00000
001FF000003FE00000
003FE00000FFC00000
003FC00001FF800000
007F800003FF000000
00FF00000FFC000000
01FE00001FF8000000
03FE00007FE0000000
07FC0000FFC0000000
0FF80001FFFFF80000
0FF00001FFFFF80000
1FE00001FFFFF00000
3FC00001FFFFF00000
7FC00003FFFFF00000
FF800003FFFFF00000
ENDCHAR
STARTCHAR 00BE
ENCODING 190
SWIDTH 550 0
DWIDTH 55 0
BBX 67 70 -4 0
BITMAP
000003E00000000000
00007FFC0000003FE0
00007FFF0000007FC0
00007FFF800000FF80
00007FFF800000FF00
00007FFFC00001FE00
000040FFC00003FC00
0000007FC00007F800
0000007F80000FF800
0000007F80001FF000
000000FF80003FE000
000001FF00003FC000
0000FFFE00007F8000
0000FFF80000FF0000
0000FFFC0001FF0000
0000FFFE0003FE0000
0000FFFF0007FC0000
000003FF800FF80000
000000FF800FF00000
000000FF801FE00000
000000FF803FC00000
000000FF807FC00000
000001FF00FF800000
000E1FFF01FF000000
000FFFFE03FE000000
000FFFFC03FC000000
000FFFF807F8000000
000FFFE00FF0000000
001FFF801FF0000000
000040003FE0000000
000000007FC0000000
000000007F80000000
00000000FF00000000
00000001FE00000000
00000003FC00000000
00000007FC00000000
0000000FF800000000
0000001FF000000000
0000001FE000000000
0000003FC000000000
0000007F8000000000
000000FF8000000000
000001FF007FF80000
000003FE00FFF00000
000007FC01FFF00000
000007F803FFF00000
00000FF007FFF00000
00001FE007FFF00000
00003FE00FEFE00000
00007FC01FEFE00000
0000FF803FCFE00000
0000FF007F9FE00000
0001FE00FF1FE00000
0003FC00FE1FC00000
0007F801FC1FC00000
000FF803FC1FC00000
001FF007F83FC00000
003FE00FF03FC00000
003FC01FE03F800000
007F801FFFFFFC0000
00FF001FFFFFF80000
01FE001FFFFFF80000
03FE001FFFFFF80000
07FC003FFFFFF80000
0FF8003FFFFFF80000
0FF00000007F000000
1FE0000000FF000000
3FC0000000FF000000
7FC0000000FF000000
FF80000000FE000000
ENDCHAR
STARTCHAR 00BF
ENCODING 191
SWIDTH 550 0
DWIDTH 55 0
BBX 36 70 5 -20
BITMAP
0000000F00
0000003FC0
0000007FE0
000000FFE0
000000FFF0
000001FFF0
000001FFF0
000001FFF0
000001FFF0
000000FFE0
000000FFE0
0000007FC0
0000001F00
0000000000
0000000000
0000000000
0000000000
0000000000
0000000000
0000000000
000001FE00
000001FE00
000001FC00
000001FC00
000003FC00
000003FC00
000003FC00
000003FC00
000007F800
000007F800
000007F800
000007F800
0003FFF800
001FFFF800
007FFFF000
01FFFFF000
03FFFFF000
07FFFFF000
0FFFF80000
1FFF000000
1FFC000000
3FF8000000
7FF0000000
7FE0000000
7FC0000000
FFC0000000
FFC0000000
FF80000000
FF80000000
FF80000000
FF80000000
FF80000000
FF80000000
FFC0000000
FFC0000000
FFC0000000
7FE0000000
7FF0000000
7FF8000000
3FFC000000
1FFF000000
1FFFE00000
0FFFFFF000
07FFFFE000
03FFFFE000
00FFFFE000
007FFFE000
001FFFE000
0003FFC000
00003FC000
ENDCHAR
STARTCHAR 00C0
ENCODING 192
SWIDTH 550 0
DWIDTH 55 0
BBX 53 81 -4 0
BITMAP
000001FFE00000
000000FFF00000
0000003FF80000
0000001FFC0000
0000000FFE0000
00000007FF0000
00000001FF8000
00000000FFC000
000000007FE000
000000001FF000
00000000000000
00000000000000
00000000000000
00000000000000
00000000000000
00000000000000
00000000000000
000000007FF800
000000007FFC00
00000000FFFC00
00000000FFFC00
00000001FFFC00
00000001FFFC00
00000003FFFC00
00000003FFFC00
00000007FFFC00
00000007FBFE00
0000000FFBFE00
0000001FF3FE00
0000001FF3FE00
0000003FE3FE00
0000003FE1FE00
0000007FC1FE00
0000007FC1FE00
000000FF81FF00
000000FF01FF00
000001FF01FF00
000001FE01FF00
000003FE01FF00
000003FC01FF00
000007FC00FF00
000007F800FF80
00000FF800FF80
00001FF000FF80
00001FF000FF80
00003FE000FF80
00003FE000FF80
00007FC000FF80
00007FC000FF80
0000FF80007FC0
0000FF80007FC0
0001FF00007FC0
0001FF00007FC0
0003FE00007FC0
0003FE00007FC0
0007FC00007FC0
0007FC00007FC0
000FF800007FE0
001FF800003FE0
001FFFFFFFFFE0
003FFFFFFFFFE0
003FFFFFFFFFE0
007FFFFFFFFFE0
007FFFFFFFFFE0
00FFFFFFFFFFE0
00FFFFFFFFFFF0
01FFFFFFFFFFF0
01FF0000001FF0
03FE0000001FF0
03FE0000001FF0
07FC0000001FF0
07FC0000001FF0
0FF80000001FF0
1FF80000001FF8
1FF00000000FF8
3FF00000000FF8
3FE00000000FF8
7FE00000000FF8
7FC00000000FF8
FFC00000000FF8
FF800000000FF8
ENDCHAR
STARTCHAR 00C1
ENCODING 193
SWIDTH 550 0
DWIDTH 55 0
BBX 58 81 -4 0
BITMAP
000000000003FFC0
000000000007FF80
00000000000FFE00
00000000001FFC00
00000000003FF800
00000000007FE000
0000000000FFC000
0000000001FF8000
0000000003FE0000
0000000007FC0000
0000000008000000
0000000000000000
0000000000000000
0000000000000000
0000000000000000
0000000000000000
0000000000000000
000000007FF80000
000000007FFC0000
00000000FFFC0000
00000000FFFC0000
00000001FFFC0000
00000001FFFC0000
00000003FFFC0000
00000003FFFC0000
00000007FFFC0000
00000007FBFE0000
0000000FFBFE0000
0000001FF3FE0000
0000001FF3FE0000
0000003FE3FE0000
0000003FE1FE0000
0000007FC1FE0000
0000007FC1FE0000
000000FF81FF0000
000000FF01FF0000
000001FF01FF0000
000001FE01FF0000
000003FE01FF0000
000003FC01FF0000
000007FC00FF0000
000007F800FF8000
00000FF800FF8000
00001FF000FF8000
00001FF000FF8000
00003FE000FF8000
00003FE000FF8000
00007FC000FF8000
00007FC000FF8000
0000FF80007FC000
0000FF80007FC000
0001FF00007FC000
0001FF00007FC000
0003FE00007FC000
0003FE00007FC000
0007FC00007FC000
0007FC00007FC000
000FF800007FE000
001FF800003FE000
001FFFFFFFFFE000
003FFFFFFFFFE000
003FFFFFFFFFE000
007FFFFFFFFFE000
007FFFFFFFFFE000
00FFFFFFFFFFE000
00FFFFFFFFFFF000
01FFFFFFFFFFF000
01FF0000001FF000
03FE0000001FF000
03FE0000001FF000
07FC0000001FF000
07FC0000001FF000
0FF80000001FF000
1FF80000001FF800
1FF00000000FF800
3FF00000000FF800
3FE00000000FF800
7FE00000000FF800
7FC00000000FF800
FFC00000000FF800
FF800000000FF800
ENDCHAR
STARTCHAR 00C2
ENCODING 194
SWIDTH 550 0
DWIDTH 55 0
BBX 55 81 -4 0
BITMAP
0000000007FC00
000000000FFE00
000000003FFF00
000000007FFF80
00000000FFFFC0
00000001FFFFE0
00000007FE3FF0
0000000FFC1FF0
0000001FF00FF8
0000007FE007FC
00000000000002
00000000000000
00000000000000
00000000000000
00000000000000
00000000000000
00000000000000
000000007FF800
000000007FFC00
00000000FFFC00
00000000FFFC00
00000001FFFC00
00000001FFFC00
00000003FFFC00
00000003FFFC00
00000007FFFC00
00000007FBFE00
0000000FFBFE00
0000001FF3FE00
0000001FF3FE00
0000003FE3FE00
0000003FE1FE00
0000007FC1FE00
0000007FC1FE00
000000FF81FF00
000000FF01FF00
000001FF01FF00
000001FE01FF00
000003FE01FF00
000003FC01FF00
000007FC00FF00
000007F800FF80
00000FF800FF80
00001FF000FF80
00001FF000FF80
00003FE000FF80
00003FE000FF80
00007FC000FF80
00007FC000FF80
0000FF80007FC0
0000FF80007FC0
0001FF00007FC0
0001FF00007FC0
0003FE00007FC0
0003FE00007FC0
0007FC00007FC0
0007FC00007FC0
000FF800007FE0
001FF800003FE0
001FFFFFFFFFE0
003FFFFFFFFFE0
003FFFFFFFFFE0
007FFFFFFFFFE0
007FFFFFFFFFE0
00FFFFFFFFFFE0
00FFFFFFFFFFF0
01FFFFFFFFFFF0
01FF0000001FF0
03FE0000001FF0
03FE0000001FF0
07FC0000001FF0
07FC0000001FF0
0FF80000001FF0
1FF80000001FF8
1FF00000000FF8
3FF00000000FF8
3FE00000000FF8
7FE00000000FF8
7FC00000000FF8
FFC00000000FF8
FF800000000FF8
ENDCHAR
STARTCHAR 00C3
ENCODING 195
SWIDTH 550 0
DWIDTH 55 0
BBX 59 82 -4 0
BITMAP
0000000030000000
00000003FF000100
0000000FFFC00380
0000001FFFF007C0
0000003FFFF80FE0
0000007FFFFE3FE0
0000007FFFFFFFC0
000000FF07FFFF80
0000007C01FFFF80
0000003800FFFE00
00000018003FFC00
000000000007F000
0000000000000000
0000000000000000
0000000000000000
0000000000000000
0000000000000000
0000000000000000
000000007FF80000
000000007FFC0000
00000000FFFC0000
00000000FFFC0000
00000001FFFC0000
00000001FFFC0000
00000003FFFC0000
00000003FFFC0000
00000007FFFC0000
00000007FBFE0000
0000000FFBFE0000
0000001FF3FE0000
0000001FF3FE0000
0000003FE3FE0000
0000003FE1FE0000
0000007FC1FE0000
0000007FC1FE0000
000000FF81FF0000
000000FF01FF0000
000001FF01FF0000
000001FE01FF0000
000003FE01FF0000
000003FC01FF0000
000007FC00FF0000
000007F800FF8000
00000FF800FF8000
00001FF000FF8000
00001FF000FF8000
00003FE000FF8000
00003FE000FF8000
00007FC000FF8000
00007FC000FF8000
0000FF80007FC000
0000FF80007FC000
0001FF00007FC000
0001FF00007FC000
0003FE00007FC000
0003FE00007FC000
0007FC00007FC000
0007FC00007FC000
000FF800007FE000
001FF800003FE000
001FFFFFFFFFE000
003FFFFFFFFFE000
003FFFFFFFFFE000
007FFFFFFFFFE000
007FFFFFFFFFE000
00FFFFFFFFFFE000
00FFFFFFFFFFF000
01FFFFFFFFFFF000
01FF0000001FF000
03FE0000001FF000
03FE0000001FF000
07FC0000001FF000
07FC0000001FF000
0FF80000001FF000
1FF80000001FF800
1FF00000000FF800
3FF00000000FF800
3FE00000000FF800
7FE00000000FF800
7FC00000000FF800
FFC00000000FF800
FF800000000FF800
ENDCHAR
STARTCHAR 00C4
ENCODING 196
SWIDTH 550 0
DWIDTH 55 0
BBX 57 81 -4 0
BITMAP
0000000F00007C00
0000003FC000FE00
0000003FC001FF00
0000007FE003FF00
0000007FE003FF80
0000007FE003FF80
0000007FE003FF00
0000007FE001FF00
0000003FC001FE00
0000001F8000FC00
0000000000000000
0000000000000000
0000000000000000
0000000000000000
0000000000000000
0000000000000000
0000000000000000
000000007FF80000
000000007FFC0000
00000000FFFC0000
00000000FFFC0000
00000001FFFC0000
00000001FFFC0000
00000003FFFC0000
00000003FFFC0000
00000007FFFC0000
00000007FBFE0000
0000000FFBFE0000
0000001FF3FE0000
0000001FF3FE0000
0000003FE3FE0000
0000003FE1FE0000
0000007FC1FE0000
0000007FC1FE0000
000000FF81FF0000
000000FF01FF0000
000001FF01FF0000
000001FE01FF0000
000003FE01FF0000
000003FC01FF0000
000007FC00FF0000
000007F800FF8000
00000FF800FF8000
00001FF000FF8000
00001FF000FF8000
00003FE000FF8000
00003FE000FF8000
00007FC000FF8000
00007FC000FF8000
0000FF80007FC000
0000FF80007FC000
0001FF00007FC000
0001FF00007FC000
0003FE00007FC000
0003FE00007FC000
0007FC00007FC000
0007FC00007FC000
000FF800007FE000
001FF800003FE000
001FFFFFFFFFE000
003FFFFFFFFFE000
003FFFFFFFFFE000
007FFFFFFFFFE000
007FFFFFFFFFE000
00FFFFFFFFFFE000
00FFFFFFFFFFF000
01FFFFFFFFFFF000
01FF0000001FF000
03FE0000001FF000
03FE0000001FF000
07FC0000001FF000
07FC0000001FF000
0FF80000001FF000
1FF80000001FF800
1FF00000000FF800
3FF00000000FF800
3FE00000000FF800
7FE00000000FF800
7FC00000000FF800
FFC00000000FF800
FF800000000FF800
ENDCHAR
STARTCHAR 00C5
ENCODING 197
SWIDTH 550 0
DWIDTH 55 0
BBX 53 85 -4 0
BITMAP
0000000003F000
000000000FFC00
000000003FFF00
000000007FFF80
00000000FFFF80
00000000FE1FC0
00000001F80FC0
00000001F807C0
00000001F007C0
00000001F007C0
00000001F007C0
00000001F80FC0
00000001F80FC0
00000000FE3F80
00000000FFFF80
000000007FFF00
000000003FFE00
000000001FF800
0000000003C000
00000000000000
00000000000000
000000007FF800
000000007FFC00
00000000FFFC00
00000000FFFC00
00000001FFFC00
00000001FFFC00
00000003FFFC00
00000003FFFC00
00000007FFFC00
00000007FBFE00
0000000FFBFE00
0000001FF3FE00
0000001FF3FE00
0000003FE3FE00
0000003FE1FE00
0000007FC1FE00
0000007FC1FE00
000000FF81FF00
000000FF01FF00
000001FF01FF00
000001FE01FF00
000003FE01FF00
000003FC01FF00
000007FC00FF00
000007F800FF80
00000FF800FF80
00001FF000FF80
00001FF000FF80
00003FE000FF80
00003FE000FF80
00007FC000FF80
00007FC000FF80
0000FF80007FC0
0000FF80007FC0
0001FF00007FC0
0001FF00007FC0
0003FE00007FC0
0003FE00007FC0
0007FC00007FC0
0007FC00007FC0
000FF800007FE0
001FF800003FE0
001FFFFFFFFFE0
003FFFFFFFFFE0
003FFFFFFFFFE0
007FFFFFFFFFE0
007FFFFFFFFFE0
00FFFFFFFFFFE0
00FFFFFFFFFFF0
01FFFFFFFFFFF0
01FF0000001FF0
03FE0000001FF0
03FE0000001FF0
07FC0000001FF0
07FC0000001FF0
0FF80000001FF0
1FF80000001FF8
1FF00000000FF8
3FF00000000FF8
3FE00000000FF8
7FE00000000FF8
7FC00000000FF8
FFC00000000FF8
FF800000000FF8
ENDCHAR
STARTCHAR 00C6
ENCODING 198
SWIDTH 550 0
DWIDTH 55 0
BBX 67 64 -7 0
BITMAP
0000000003FFFFFFE0
0000000003FFFFFFE0
0000000007FFFFFFE0
0000000007FFFFFFC0
000000000FFFFFFFC0
000000001FFFFFFFC0
000000001FFFFFFFC0
000000003FFFC00000
000000003FBFC00000
000000007F7FC00000
00000000FF7F800000
00000000FE7F800000
00000001FE7F800000
00000001FC7F800000
00000003FCFF800000
00000007F8FF000000
00000007F0FF000000
0000000FF0FF000000
0000000FE0FF000000
0000001FE1FF000000
0000003FC1FE000000
0000003F81FE000000
0000007F81FE000000
0000007F01FE000000
000000FF03FE000000
000001FE03FC000000
000001FC03FC000000
000003FC03FFFFF800
000007F803FFFFF800
000007F807FFFFF800
00000FF007FFFFF000
00000FF007FFFFF000
00001FE007FFFFF000
00003FC007FFFFF000
00003FC00FF0000000
00007F800FF0000000
00007F800FF0000000
0000FF000FF0000000
0001FE000FF0000000
0001FE001FF0000000
0003FC001FE0000000
0003FC001FE0000000
0007F8001FE0000000
000FFFFFFFE0000000
000FFFFFFFE0000000
001FFFFFFFC0000000
001FFFFFFFC0000000
003FFFFFFFC0000000
007FFFFFFFC0000000
007FFFFFFFC0000000
00FF00007F80000000
01FF00007F80000000
01FE00007F80000000
03FE00007F80000000
03FC0000FF80000000
07F80000FF00000000
0FF80000FF00000000
0FF00000FFFFFF0000
1FF00000FFFFFF0000
1FE00001FFFFFF0000
3FE00001FFFFFF0000
7FC00001FFFFFF0000
7F800001FFFFFE0000
FF800001FFFFFE0000
ENDCHAR
STARTCHAR 00C7
ENCODING 199
SWIDTH 550 0
DWIDTH 55 0
BBX 51 79 5 -14
BITMAP
000000003C0000
0000001FFFF800
000000FFFFFF80
000007FFFFFFE0
00001FFFFFFFE0
00003FFFFFFFE0
0000FFFFFFFFC0
0001FFFFFFFFC0
0003FFFE00FFC0
0007FFE0000FC0
000FFF800003C0
001FFE00000080
003FFC00000000
007FF000000000
007FE000000000
00FFC000000000
01FFC000000000
01FF8000000000
03FF0000000000
03FE0000000000
07FE0000000000
07FC0000000000
0FFC0000000000
0FF80000000000
1FF80000000000
1FF00000000000
3FF00000000000
3FF00000000000
3FE00000000000
3FE00000000000
7FE00000000000
7FC00000000000
7FC00000000000
7FC00000000000
FFC00000000000
FFC00000000000
FF800000000000
FF800000000000
FF800000000000
FF800000000000
FF800000000000
FF800000000000
FF800000000000
FF800000000000
FF800000000000
FF800000000000
FF800000000000
FFC00000000000
FFC00000000000
FFC00000000000
FFE00000000000
7FE00000000000
7FF00000000000
7FF00000000000
3FF80000008000
3FFE0000038000
1FFF00001F0000
1FFFE001FF0000
0FFFFFFFFF0000
07FFFFFFFF0000
03FFFFFFFF0000
01FFFFFFFE0000
007FFFFFFE0000
001FFFFFF80000
0007FFFF800000
0001FFF0000000
0001FE00000000
0003FC00000000
0003FC00000000
0007F800000000
0007F800000000
000FF000000000
000FF000000000
000FE000000000
001FE000000000
001FC000000000
003FC000000000
003F8000000000
007F8000000000
ENDCHAR
STARTCHAR 00C8
ENCODING 200
SWIDTH 550 0
DWIDTH 55 0
BBX 49 81 5 0
BITMAP
0003FFC0000000
0001FFE0000000
00007FF0000000
00003FF8000000
00001FFC000000
00000FFE000000
000003FF000000
000001FF800000
000000FFC00000
0000003FE00000
00000000000000
00000000000000
00000000000000
00000000000000
00000000000000
00000000000000
00000000000000
000FFFFFFFFF80
000FFFFFFFFF80
000FFFFFFFFF00
000FFFFFFFFF00
000FFFFFFFFF00
001FFFFFFFFF00
001FFFFFFFFF00
001FF000000000
001FF000000000
001FE000000000
003FE000000000
003FE000000000
003FE000000000
003FE000000000
003FC000000000
007FC000000000
007FC000000000
007FC000000000
007FC000000000
007F8000000000
00FF8000000000
00FF8000000000
00FF8000000000
00FF8000000000
00FF0000000000
01FF0000000000
01FF0000000000
01FFFFFFFFC000
01FFFFFFFFC000
01FFFFFFFFC000
03FFFFFFFFC000
03FFFFFFFFC000
03FFFFFFFF8000
03FFFFFFFF8000
03FFFFFFFF8000
07FC0000000000
07FC0000000000
07FC0000000000
07FC0000000000
07F80000000000
0FF80000000000
0FF80000000000
0FF80000000000
0FF80000000000
0FF00000000000
1FF00000000000
1FF00000000000
1FF00000000000
1FF00000000000
1FE00000000000
3FE00000000000
3FE00000000000
3FE00000000000
3FE00000000000
3FC00000000000
7FC00000000000
7FC00000000000
7FFFFFFFF80000
7FFFFFFFF80000
7FFFFFFFF80000
FFFFFFFFF80000
FFFFFFFFF80000
FFFFFFFFF00000
FFFFFFFFF00000
ENDCHAR
STARTCHAR 00C9
ENCODING 201
SWIDTH 550 0
DWIDTH 55 0
BBX 49 81 5 0
BITMAP
0000000007FF80
000000000FFF00
000000001FFC00
000000003FF800
000000007FF000
00000000FFC000
00000001FF8000
00000003FF0000
00000007FC0000
0000000FF80000
00000010000000
00000000000000
00000000000000
00000000000000
00000000000000
00000000000000
00000000000000
000FFFFFFFFF80
000FFFFFFFFF80
000FFFFFFFFF00
000FFFFFFFFF00
000FFFFFFFFF00
001FFFFFFFFF00
001FFFFFFFFF00
001FF000000000
001FF000000000
001FE000000000
003FE000000000
003FE000000000
003FE000000000
003FE000000000
003FC000000000
007FC000000000
007FC000000000
007FC000000000
007FC000000000
007F8000000000
00FF8000000000
00FF8000000000
00FF8000000000
00FF8000000000
00FF0000000000
01FF0000000000
01FF0000000000
01FFFFFFFFC000
01FFFFFFFFC000
01FFFFFFFFC000
03FFFFFFFFC000
03FFFFFFFFC000
03FFFFFFFF8000
03FFFFFFFF8000
03FFFFFFFF8000
07FC0000000000
07FC0000000000
07FC0000000000
07FC0000000000
07F80000000000
0FF80000000000
0FF80000000000
0FF80000000000
0FF80000000000
0FF00000000000
1FF00000000000
1FF00000000000
1FF00000000000
1FF00000000000
1FE00000000000
3FE00000000000
3FE00000000000
3FE00000000000
3FE00000000000
3FC00000000000
7FC00000000000
7FC00000000000
7FFFFFFFF80000
7FFFFFFFF80000
7FFFFFFFF80000
FFFFFFFFF80000
FFFFFFFFF80000
FFFFFFFFF00000
FFFFFFFFF00000
ENDCHAR
STARTCHAR 00CA
ENCODING 202
SWIDTH 550 0
DWIDTH 55 0
BBX 49 81 5 0
BITMAP
00000007FC0000
0000000FFE0000
0000003FFF0000
0000007FFF8000
000000FFFFC000
000001FFFFE000
000007FE3FF000
00000FFC1FF000
00001FF00FF800
00007FE007FC00
00000000000200
00000000000000
00000000000000
00000000000000
00000000000000
00000000000000
00000000000000
000FFFFFFFFF80
000FFFFFFFFF80
000FFFFFFFFF00
000FFFFFFFFF00
000FFFFFFFFF00
001FFFFFFFFF00
001FFFFFFFFF00
001FF000000000
001FF000000000
001FE000000000
003FE000000000
003FE000000000
003FE000000000
003FE000000000
003FC000000000
007FC000000000
007FC000000000
007FC000000000
007FC000000000
007F8000000000
00FF8000000000
00FF8000000000
00FF8000000000
00FF8000000000
00FF0000000000
01FF0000000000
01FF0000000000
01FFFFFFFFC000
01FFFFFFFFC000
01FFFFFFFFC000
03FFFFFFFFC000
03FFFFFFFFC000
03FFFFFFFF8000
03FFFFFFFF8000
03FFFFFFFF8000
07FC0000000000
07FC0000000000
07FC0000000000
07FC0000000000
07F80000000000
0FF80000000000
0FF80000000000
0FF80000000000
0FF80000000000
0FF00000000000
1FF00000000000
1FF00000000000
1FF00000000000
1FF00000000000
1FE00000000000
3FE00000000000
3FE00000000000
3FE00000000000
3FE00000000000
3FC00000000000
7FC00000000000
7FC00000000000
7FFFFFFFF80000
7FFFFFFFF80000
7FFFFFFFF80000
FFFFFFFFF80000
FFFFFFFFF80000
FFFFFFFFF00000
FFFFFFFFF00000
ENDCHAR
STARTCHAR 00CB
ENCODING 203
SWIDTH 550 0
DWIDTH 55 0
BBX 49 81 5 0
BITMAP
00000F00007C00
00003FC000FE00
00003FC001FF00
00007FE003FF00
00007FE003FF80
00007FE003FF80
00007FE003FF00
00007FE001FF00
00003FC001FE00
00001F8000FC00
00000000000000
00000000000000
00000000000000
00000000000000
00000000000000
00000000000000
00000000000000
000FFFFFFFFF80
000FFFFFFFFF80
000FFFFFFFFF00
000FFFFFFFFF00
000FFFFFFFFF00
001FFFFFFFFF00
001FFFFFFFFF00
001FF000000000
001FF000000000
001FE000000000
003FE000000000
003FE000000000
003FE000000000
003FE000000000
003FC000000000
007FC000000000
007FC000000000
007FC000000000
007FC000000000
007F8000000000
00FF8000000000
00FF8000000000
00FF8000000000
00FF8000000000
00FF0000000000
01FF0000000000
01FF0000000000
01FFFFFFFFC000
01FFFFFFFFC000
01FFFFFFFFC000
03FFFFFFFFC000
03FFFFFFFFC000
03FFFFFFFF8000
03FFFFFFFF8000
03FFFFFFFF8000
07FC0000000000
07FC0000000000
07FC0000000000
07FC0000000000
07F80000000000
0FF80000000000
0FF80000000000
0FF80000000000
0FF80000000000
0FF00000000000
1FF00000000000
1FF00000000000
1FF00000000000
1FF00000000000
1FE00000000000
3FE00000000000
3FE00000000000
3FE00000000000
3FE00000000000
3FC00000000000
7FC00000000000
7FC00000000000
7FFFFFFFF80000
7FFFFFFFF80000
7FFFFFFFF80000
FFFFFFFFF80000
FFFFFFFFF80000
FFFFFFFFF00000
FFFFFFFFF00000
ENDCHAR
STARTCHAR 00CC
ENCODING 204
SWIDTH 550 0
DWIDTH 55 0
BBX 50 81 4 0
BITMAP
0007FF80000000
0003FFC0000000
0000FFE0000000
00007FF0000000
00003FF8000000
00001FFC000000
000007FE000000
000003FF000000
000001FF800000
0000007FC00000
00000000000000
00000000000000
00000000000000
00000000000000
00000000000000
00000000000000
00000000000000
000FFFFFFFFFC0
000FFFFFFFFFC0
000FFFFFFFFFC0
000FFFFFFFFFC0
001FFFFFFFFFC0
001FFFFFFFFF80
001FFFFFFFFF80
001FFFFFC00000
0000007FC00000
0000007FC00000
0000007FC00000
0000007F800000
000000FF800000
000000FF800000
000000FF800000
000000FF800000
000000FF000000
000001FF000000
000001FF000000
000001FF000000
000001FF000000
000001FE000000
000003FE000000
000003FE000000
000003FE000000
000003FE000000
000003FC000000
000007FC000000
000007FC000000
000007FC000000
000007FC000000
000007F8000000
00000FF8000000
00000FF8000000
00000FF8000000
00000FF8000000
00000FF0000000
00001FF0000000
00001FF0000000
00001FF0000000
00001FF0000000
00001FE0000000
00003FE0000000
00003FE0000000
00003FE0000000
00003FE0000000
00003FC0000000
00007FC0000000
00007FC0000000
00007FC0000000
00007FC0000000
00007F80000000
0000FF80000000
0000FF80000000
0000FF80000000
0000FF80000000
0000FF00000000
7FFFFFFFFE0000
FFFFFFFFFE0000
FFFFFFFFFE0000
FFFFFFFFFC0000
FFFFFFFFFC0000
FFFFFFFFFC0000
FFFFFFFFFC0000
ENDCHAR
STARTCHAR 00CD
ENCODING 205
SWIDTH 550 0
DWIDTH 55 0
BBX 50 81 4 0
BITMAP
0000000007FF80
000000000FFF00
000000001FFC00
000000003FF800
000000007FF000
00000000FFC000
00000001FF8000
00000003FF0000
00000007FC0000
0000000FF80000
00000010000000
00000000000000
00000000000000
00000000000000
00000000000000
00000000000000
00000000000000
000FFFFFFFFFC0
000FFFFFFFFFC0
000FFFFFFFFFC0
000FFFFFFFFFC0
001FFFFFFFFFC0
001FFFFFFFFF80
001FFFFFFFFF80
001FFFFFC00000
0000007FC00000
0000007FC00000
0000007FC00000
0000007F800000
000000FF800000
000000FF800000
000000FF800000
000000FF800000
000000FF000000
000001FF000000
000001FF000000
000001FF000000
000001FF000000
000001FE000000
000003FE000000
000003FE000000
000003FE000000
000003FE000000
000003FC000000
000007FC000000
000007FC000000
000007FC000000
000007FC000000
000007F8000000
00000FF8000000
00000FF8000000
00000FF8000000
00000FF8000000
00000FF0000000
00001FF0000000
00001FF0000000
00001FF0000000
00001FF0000000
00001FE0000000
00003FE0000000
00003FE0000000
00003FE0000000
00003FE0000000
00003FC0000000
00007FC0000000
00007FC0000000
00007FC0000000
00007FC0000000
00007F80000000
0000FF80000000
0000FF80000000
0000FF80000000
0000FF80000000
0000FF00000000
7FFFFFFFFE0000
FFFFFFFFFE0000
FFFFFFFFFE0000
FFFFFFFFFC0000
FFFFFFFFFC0000
FFFFFFFFFC0000
FFFFFFFFFC0000
ENDCHAR
STARTCHAR 00CE
ENCODING 206
SWIDTH 550 0
DWIDTH 55 0
BBX 50 81 4 0
BITMAP
00000007FC0000
0000000FFE0000
0000003FFF0000
0000007FFF8000
000000FFFFC000
000001FFFFE000
000007FE3FF000
00000FFC1FF000
00001FF00FF800
00007FE007FC00
00000000000200
00000000000000
00000000000000
00000000000000
00000000000000
00000000000000
00000000000000
000FFFFFFFFFC0
000FFFFFFFFFC0
000FFFFFFFFFC0
000FFFFFFFFFC0
001FFFFFFFFFC0
001FFFFFFFFF80
001FFFFFFFFF80
001FFFFFC00000
0000007FC00000
0000007FC00000
0000007FC00000
0000007F800000
000000FF800000
000000FF800000
000000FF800000
000000FF800000
000000FF000000
000001FF000000
000001FF000000
000001FF000000
000001FF000000
000001FE000000
000003FE000000
000003FE000000
000003FE000000
000003FE000000
000003FC000000
000007FC000000
000007FC000000
000007FC000000
000007FC000000
000007F8000000
00000FF8000000
00000FF8000000
00000FF8000000
00000FF8000000
00000FF0000000
00001FF0000000
00001FF0000000
00001FF0000000
00001FF0000000
00001FE0000000
00003FE0000000
00003FE0000000
00003FE0000000
00003FE0000000
00003FC0000000
00007FC0000000
00007FC0000000
00007FC0000000
00007FC0000000
00007F80000000
0000FF80000000
0000FF80000000
0000FF80000000
0000FF80000000
0000FF00000000
7FFFFFFFFE0000
FFFFFFFFFE0000
FFFFFFFFFE0000
FFFFFFFFFC0000
FFFFFFFFFC0000
FFFFFFFFFC0000
FFFFFFFFFC0000
ENDCHAR
STARTCHAR 00CF
ENCODING 207
SWIDTH 550 0
DWIDTH 55 0
BBX 50 81 4 0
BITMAP
00000F00007C00
00003FC000FE00
00003FC001FF00
00007FE003FF00
00007FE003FF80
00007FE003FF80
00007FE003FF00
00007FE001FF00
00003FC001FE00
00001F8000FC00
00000000000000
00000000000000
00000000000000
00000000000000
00000000000000
00000000000000
00000000000000
000FFFFFFFFFC0
000FFFFFFFFFC0
000FFFFFFFFFC0
000FFFFFFFFFC0
001FFFFFFFFFC0
001FFFFFFFFF80
001FFFFFFFFF80
001FFFFFC00000
0000007FC00000
0000007FC00000
0000007FC00000
0000007F800000
000000FF800000
000000FF800000
000000FF800000
000000FF800000
000000FF000000
000001FF000000
000001FF000000
000001FF000000
000001FF000000
000001FE000000
000003FE000000
000003FE000000
000003FE000000
000003FE000000
000003FC000000
000007FC000000
000007FC000000
000007FC000000
000007FC000000
000007F8000000
00000FF8000000
00000FF8000000
00000FF8000000
00000FF8000000
00000FF0000000
00001FF0000000
00001FF0000000
00001FF0000000
00001FF0000000
00001FE0000000
00003FE0000000
00003FE0000000
00003FE0000000
00003FE0000000
00003FC0000000
00007FC0000000
00007FC0000000
00007FC0000000
00007FC0000000
00007F80000000
0000FF80000000
0000FF80000000
0000FF80000000
0000FF80000000
0000FF00000000
7FFFFFFFFE0000
FFFFFFFFFE0000
FFFFFFFFFE0000
FFFFFFFFFC0000
FFFFFFFFFC0000
FFFFFFFFFC0000
FFFFFFFFFC0000
ENDCHAR
STARTCHAR 00D0
ENCODING 208
SWIDTH 550 0
DWIDTH 55 0
BBX 53 64 1 0
BITMAP
0003FFFFC00000
0007FFFFFE0000
0007FFFFFFC000
0007FFFFFFF000
0007FFFFFFFC00
000FFFFFFFFE00
000FFFFFFFFF00
000FF80FFFFF80
000FF8001FFFC0
000FF00003FFC0
001FF00001FFE0
001FF000007FE0
001FF000007FE0
001FF000003FF0
001FE000001FF0
003FE000001FF0
003FE000001FF0
003FE000001FF8
003FE000000FF8
003FC000000FF8
007FC000000FF8
007FC000000FF8
007FC000000FF8
007FC000000FF8
007F8000000FF8
00FF8000000FF8
00FF8000000FF8
7FFFFFF0000FF8
7FFFFFF0001FF0
7FFFFFE0001FF0
7FFFFFE0001FF0
FFFFFFE0001FF0
FFFFFFE0001FF0
FFFFFFE0001FF0
FFFFFFC0003FE0
01FE0000003FE0
03FE0000003FE0
03FE0000007FE0
03FE0000007FC0
03FC0000007FC0
03FC000000FFC0
07FC000000FF80
07FC000001FF80
07FC000001FF00
07F8000003FF00
07F8000003FE00
0FF8000007FE00
0FF800000FFC00
0FF800001FFC00
0FF000003FF800
0FF000007FF000
1FF00000FFF000
1FF00001FFE000
1FF00007FFC000
1FE0001FFF8000
3FE000FFFF0000
3FFFFFFFFE0000
3FFFFFFFF80000
3FFFFFFFF00000
3FFFFFFFC00000
7FFFFFFF000000
7FFFFFFC000000
7FFFFFE0000000
7FFFFC00000000
ENDCHAR
STARTCHAR 00D1
ENCODING 209
SWIDTH 550 0
DWIDTH 55 0
BBX 56 82 1 0
BITMAP
00000006000000
0000007FE00020
000001FFF80070
000003FFFE00F8
000007FFFF01FC
00000FFFFFC7FC
00000FFFFFFFF8
00001FE0FFFFF0
00000F803FFFF0
000007001FFFC0
0000030007FF80
0000000000FE00
00000000000000
00000000000000
00000000000000
00000000000000
00000000000000
00000000000000
0007FF000000FF
000FFF000001FE
000FFF000001FE
000FFF000001FE
000FFF800001FE
000FFF800001FE
001FFF800003FC
001FFFC00003FC
001FFFC00003FC
001FFFC00003FC
001FFFC00003FC
003FFFE00007F8
003FDFE00007F8
003FDFE00007F8
003FDFE00007F8
003FDFF00007F8
007FCFF0000FF0
007F8FF0000FF0
007F8FF0000FF0
007F8FF8000FF0
007F87F8000FF0
00FF87F8001FE0
00FF07FC001FE0
00FF07FC001FE0
00FF03FC001FE0
00FF03FC001FE0
01FF03FE003FC0
01FE03FE003FC0
01FE01FE003FC0
01FE01FE003FC0
01FE01FF003FC0
03FE01FF007F80
03FC00FF007F80
03FC00FF007F80
03FC00FF807F80
03FC00FF807F80
07FC007F80FF00
07F8007FC0FF00
07F8007FC0FF00
07F8003FC0FF00
07F8003FC0FF00
0FF8003FE1FE00
0FF0003FE1FE00
0FF0001FE1FE00
0FF0001FE1FE00
0FF0001FE1FE00
1FF0001FF3FC00
1FE0000FF3FC00
1FE0000FF3FC00
1FE0000FF3FC00
1FE0000FFBFC00
3FE00007FFF800
3FC00007FFF800
3FC00007FFF800
3FC00003FFF800
3FC00003FFF800
7FC00003FFF000
7F800003FFF000
7F800001FFF000
7F800001FFF000
7F800001FFF000
FF800001FFE000
FF000000FFE000
FF000000FFE000
ENDCHAR
STARTCHAR 00D2
ENCODING 210
SWIDTH 550 0
DWIDTH 55 0
BBX 52 82 3 -1
BITMAP
0000FFF0000000
00007FF8000000
00001FFC000000
00000FFE000000
000007FF000000
000003FF800000
000000FFC00000
0000007FE00000
0000003FF00000
0000000FF80000
00000000000000
00000000000000
00000000000000
00000000000000
00000000000000
00000000000000
00000003E00000
000000FFFF0000
000003FFFFE000
00000FFFFFF000
00003FFFFFFC00
00007FFFFFFE00
0001FFFFFFFE00
0003FFFFFFFF00
0007FFE00FFF80
000FFF8003FF80
001FFE0001FFC0
003FFC0000FFC0
003FF000007FE0
007FE000007FE0
00FFC000003FE0
00FFC000003FE0
01FF8000003FE0
03FF0000001FF0
03FF0000001FF0
07FE0000001FF0
07FE0000001FF0
07FC0000001FF0
0FFC0000001FF0
0FF80000001FF0
1FF80000001FF0
1FF00000001FF0
1FF00000001FF0
3FF00000001FF0
3FE00000001FE0
3FE00000003FE0
3FE00000003FE0
7FE00000003FE0
7FC00000003FE0
7FC00000003FE0
7FC00000007FE0
7FC00000007FC0
FFC00000007FC0
FF800000007FC0
FF80000000FF80
FF80000000FF80
FF80000000FF80
FF80000001FF80
FF80000001FF00
FF80000003FF00
FF80000003FE00
FF80000007FE00
FF80000007FC00
FF8000000FFC00
FF8000000FF800
FF8000001FF800
FFC000003FF000
7FC000003FF000
7FE000007FE000
7FE00000FFC000
3FF00001FFC000
3FF80007FF8000
3FFC000FFF0000
1FFF007FFE0000
1FFFFFFFFC0000
0FFFFFFFF80000
07FFFFFFF00000
03FFFFFFC00000
01FFFFFF800000
007FFFFE000000
001FFFF0000000
0001FF00000000
ENDCHAR
STARTCHAR 00D3
ENCODING 211
SWIDTH 550 0
DWIDTH 55 0
BBX 52 82 3 -1
BITMAP
0000000001FFE0
0000000003FFC0
0000000007FF00
000000000FFE00
000000001FFC00
000000003FF000
000000007FE000
00000000FFC000
00000001FF0000
00000003FE0000
00000004000000
00000000000000
00000000000000
00000000000000
00000000000000
00000000000000
00000003E00000
000000FFFF0000
000003FFFFE000
00000FFFFFF000
00003FFFFFFC00
00007FFFFFFE00
0001FFFFFFFE00
0003FFFFFFFF00
0007FFE00FFF80
000FFF8003FF80
001FFE0001FFC0
003FFC0000FFC0
003FF000007FE0
007FE000007FE0
00FFC000003FE0
00FFC000003FE0
01FF8000003FE0
03FF0000001FF0
03FF0000001FF0
07FE0000001FF0
07FE0000001FF0
07FC0000001FF0
0FFC0000001FF0
0FF80000001FF0
1FF80000001FF0
1FF00000001FF0
1FF00000001FF0
3FF00000001FF0
3FE00000001FE0
3FE00000003FE0
3FE00000003FE0
7FE00000003FE0
7FC00000003FE0
7FC00000003FE0
7FC00000007FE0
7FC00000007FC0
FFC00000007FC0
FF800000007FC0
FF80000000FF80
FF80000000FF80
FF80000000FF80
FF80000001FF80
FF80000001FF00
FF80000003FF00
FF80000003FE00
FF80000007FE00
FF80000007FC00
FF8000000FFC00
FF8000000FF800
FF8000001FF800
FFC000003FF000
7FC000003FF000
7FE000007FE000
7FE00000FFC000
3FF00001FFC000
3FF80007FF8000
3FFC000FFF0000
1FFF007FFE0000
1FFFFFFFFC0000
0FFFFFFFF80000
07FFFFFFF00000
03FFFFFFC00000
01FFFFFF800000
007FFFFE000000
001FFFF0000000
0001FF00000000
ENDCHAR
STARTCHAR 00D4
ENCODING 212
SWIDTH 550 0
DWIDTH 55 0
BBX 52 82 3 -1
BITMAP
00000003FE0000
00000007FF0000
0000001FFF8000
0000003FFFC000
0000007FFFE000
000000FFFFF000
000003FF1FF800
000007FE0FF800
00000FF807FC00
00003FF003FE00
00000000000100
00000000000000
00000000000000
00000000000000
00000000000000
00000000000000
00000003E00000
000000FFFF0000
000003FFFFE000
00000FFFFFF000
00003FFFFFFC00
00007FFFFFFE00
0001FFFFFFFE00
0003FFFFFFFF00
0007FFE00FFF80
000FFF8003FF80
001FFE0001FFC0
003FFC0000FFC0
003FF000007FE0
007FE000007FE0
00FFC000003FE0
00FFC000003FE0
01FF8000003FE0
03FF0000001FF0
03FF0000001FF0
07FE0000001FF0
07FE0000001FF0
07FC0000001FF0
0FFC0000001FF0
0FF80000001FF0
1FF80000001FF0
1FF00000001FF0
1FF00000001FF0
3FF00000001FF0
3FE00000001FE0
3FE00000003FE0
3FE00000003FE0
7FE00000003FE0
7FC00000003FE0
7FC00000003FE0
7FC00000007FE0
7FC00000007FC0
FFC00000007FC0
FF800000007FC0
FF80000000FF80
FF80000000FF80
FF80000000FF80
FF80000001FF80
FF80000001FF00
FF80000003FF00
FF80000003FE00
FF80000007FE00
FF80000007FC00
FF8000000FFC00
FF8000000FF800
FF8000001FF800
FFC000003FF000
7FC000003FF000
7FE000007FE000
7FE00000FFC000
3FF00001FFC000
3FF80007FF8000
3FFC000FFF0000
1FFF007FFE0000
1FFFFFFFFC0000
0FFFFFFFF80000
07FFFFFFF00000
03FFFFFFC00000
01FFFFFF800000
007FFFFE000000
001FFFF0000000
0001FF00000000
ENDCHAR
STARTCHAR 00D5
ENCODING 213
SWIDTH 550 0
DWIDTH 55 0
BBX 52 83 3 -1
BITMAP
00000030000000
000003FF000100
00000FFFC00380
00001FFFF007C0
00003FFFF80FE0
00007FFFFE3FE0
00007FFFFFFFC0
0000FF07FFFF80
00007C01FFFF80
00003800FFFE00
000018003FFC00
0000000007F000
00000000000000
00000000000000
00000000000000
00000000000000
00000000000000
00000003E00000
000000FFFF0000
000003FFFFE000
00000FFFFFF000
00003FFFFFFC00
00007FFFFFFE00
0001FFFFFFFE00
0003FFFFFFFF00
0007FFE00FFF80
000FFF8003FF80
001FFE0001FFC0
003FFC0000FFC0
003FF000007FE0
007FE000007FE0
00FFC000003FE0
00FFC000003FE0
01FF8000003FE0
03FF0000001FF0
03FF0000001FF0
07FE0000001FF0
07FE0000001FF0
07FC0000001FF0
0FFC0000001FF0
0FF80000001FF0
1FF80000001FF0
1FF00000001FF0
1FF00000001FF0
3FF00000001FF0
3FE00000001FE0
3FE00000003FE0
3FE00000003FE0
7FE00000003FE0
7FC00000003FE0
7FC00000003FE0
7FC00000007FE0
7FC00000007FC0
FFC00000007FC0
FF800000007FC0
FF80000000FF80
FF80000000FF80
FF80000000FF80
FF80000001FF80
FF80000001FF00
FF80000003FF00
FF80000003FE00
FF80000007FE00
FF80000007FC00
FF8000000FFC00
FF8000000FF800
FF8000001FF800
FFC000003FF000
7FC000003FF000
7FE000007FE000
7FE00000FFC000
3FF00001FFC000
3FF80007FF8000
3FFC000FFF0000
1FFF007FFE0000
1FFFFFFFFC0000
0FFFFFFFF80000
07FFFFFFF00000
03FFFFFFC00000
01FFFFFF800000
007FFFFE000000
001FFFF0000000
0001FF00000000
ENDCHAR
STARTCHAR 00D6
ENCODING 214
SWIDTH 550 0
DWIDTH 55 0
BBX 52 82 3 -1
BITMAP
000003C0001F00
00000FF0003F80
00000FF0007FC0
00001FF800FFC0
00001FF800FFE0
00001FF800FFE0
00001FF800FFC0
00001FF8007FC0
00000FF0007F80
000007E0003F00
00000000000000
00000000000000
00000000000000
00000000000000
00000000000000
00000000000000
00000003E00000
000000FFFF0000
000003FFFFE000
00000FFFFFF000
00003FFFFFFC00
00007FFFFFFE00
0001FFFFFFFE00
0003FFFFFFFF00
0007FFE00FFF80
000FFF8003FF80
001FFE0001FFC0
003FFC0000FFC0
003FF000007FE0
007FE000007FE0
00FFC000003FE0
00FFC000003FE0
01FF8000003FE0
03FF0000001FF0
03FF0000001FF0
07FE0000001FF0
07FE0000001FF0
07FC0000001FF0
0FFC0000001FF0
0FF80000001FF0
1FF80000001FF0
1FF00000001FF0
1FF00000001FF0
3FF00000001FF0
3FE00000001FE0
3FE00000003FE0
3FE00000003FE0
7FE00000003FE0
7FC00000003FE0
7FC00000003FE0
7FC00000007FE0
7FC00000007FC0
FFC00000007FC0
FF800000007FC0
FF80000000FF80
FF80000000FF80
FF80000000FF80
FF80000001FF80
FF80000001FF00
FF80000003FF00
FF80000003FE00
FF80000007FE00
FF80000007FC00
FF8000000FFC00
FF8000000FF800
FF8000001FF800
FFC000003FF000
7FC000003FF000
7FE000007FE000
7FE00000FFC000
3FF00001FFC000
3FF80007FF8000
3FFC000FFF0000
1FFF007FFE0000
1FFFFFFFFC0000
0FFFFFFFF80000
07FFFFFFF00000
03FFFFFFC00000
01FFFFFF800000
007FFFFE000000
001FFFF0000000
0001FF00000000
ENDCHAR
STARTCHAR 00D7
ENCODING 215
SWIDTH 550 0
DWIDTH 55 0
BBX 46 41 5 6
BITMAP
001000000000
0038000000C0
007C000003E0
00FC000007F0
03FE00000FF8
07FF00001FFC
03FF80003FF8
01FFC000FFF0
00FFC001FFE0
007FE003FFC0
003FF007FF00
003FF80FFE00
001FFC3FFC00
000FFC7FF800
0007FEFFF000
0003FFFFC000
0003FFFF8000
0001FFFF0000
0000FFFE0000
00007FFC0000
00007FF00000
0000FFF80000
0001FFFC0000
0007FFFE0000
000FFFFE0000
001FFFFF0000
003FFBFF8000
007FF1FFC000
01FFE0FFE000
03FFC07FE000
07FF803FF000
0FFE003FF800
1FFC001FFC00
7FF8000FFE00
FFF00007FF00
FFE00003FF00
7F800001FE00
3F000001FC00
1E000000F000
0C0000006000
080000000000
ENDCHAR
STARTCHAR 00D8
ENCODING 216
SWIDTH 550 0
DWIDTH 55 0
BBX 52 84 3 -10
BITMAP
00000000001FC0
00000000003FC0
00000000003F80
00000000007F80
00000000007F00
0000000000FF00
0000000000FE00
0000000001FE00
0000000001FC00
00000003F3FC00
000000FFFFF800
000003FFFFF800
00000FFFFFF000
00003FFFFFF800
0000FFFFFFFC00
0001FFFFFFFE00
0003FFFFFFFF00
0007FFE03FFF80
000FFF003FFF80
001FFE007FFFC0
003FF8007FFFC0
007FF000FF7FE0
007FE000FE7FE0
00FFC001FE3FE0
00FFC001FC3FE0
01FF8003FC3FE0
03FF0003F81FF0
03FF0007F81FF0
07FE0007F01FF0
07FC000FF01FF0
0FFC000FE01FF0
0FFC001FE01FF0
0FF8001FC01FF0
1FF8003FC01FF0
1FF0003F801FF0
1FF0007F801FF0
3FF0007F001FF0
3FE000FF001FE0
3FE000FE003FE0
3FE001FE003FE0
7FC001FC003FE0
7FC003FC003FE0
7FC003F8003FE0
7FC007F8007FE0
7FC007F0007FC0
FFC00FF0007FC0
FF800FE0007FC0
FF801FE000FFC0
FF801FC000FF80
FF803FC000FF80
FF803F8001FF80
FF807F8001FF00
FF807F0003FF00
FF80FF0003FE00
FF80FE0003FE00
FF81FE0007FE00
FF81FC0007FC00
FF83FC000FFC00
FF83F8001FF800
FFC7F8001FF000
7FC7F0003FF000
7FCFF0007FE000
7FEFE000FFE000
3FFFE001FFC000
3FFFC003FF8000
3FFFC00FFF0000
1FFF803FFE0000
0FFFFFFFFC0000
0FFFFFFFF80000
07FFFFFFF00000
03FFFFFFC00000
01FFFFFF800000
01FFFFFE000000
03FFFFF0000000
03F9FF00000000
07F80000000000
07F00000000000
0FF00000000000
0FE00000000000
1FE00000000000
1FC00000000000
3FC00000000000
3F800000000000
7F800000000000
ENDCHAR
STARTCHAR 00D9
ENCODING 217
SWIDTH 550 0
DWIDTH 55 0
BBX 53 82 4 -1
BITMAP
0000FFF0000000
00007FF8000000
00001FFC000000
00000FFE000000
000007FF000000
000003FF800000
000000FFC00000
0000007FE00000
0000003FF00000
0000000FF80000
00000000000000
00000000000000
00000000000000
00000000000000
00000000000000
00000000000000
00000000000000
007FC0000007F8
007FC000000FF8
007F8000000FF8
00FF8000000FF8
00FF8000000FF8
00FF8000000FF0
00FF8000001FF0
00FF0000001FF0
01FF0000001FF0
01FF0000001FF0
01FF0000001FE0
01FF0000003FE0
01FE0000003FE0
03FE0000003FE0
03FE0000003FE0
03FE0000003FC0
03FE0000007FC0
03FC0000007FC0
07FC0000007FC0
07FC0000007FC0
07FC0000007F80
07FC000000FF80
07F8000000FF80
0FF8000000FF80
0FF8000000FF80
0FF8000000FF00
0FF8000001FF00
0FF0000001FF00
1FF0000001FF00
1FF0000001FF00
1FF0000001FE00
1FE0000003FE00
1FE0000003FE00
3FE0000003FE00
3FE0000003FE00
3FE0000003FC00
3FC0000007FC00
3FC0000007FC00
7FC0000007FC00
7FC0000007FC00
7FC0000007F800
7F8000000FF800
7F8000000FF800
FF8000000FF800
FF8000000FF000
FF8000001FF000
FF8000001FF000
FF8000001FF000
FF8000003FE000
FF8000003FE000
FF8000007FC000
FF800000FFC000
FF800000FF8000
FFC00001FF8000
FFC00003FF0000
7FE0000FFE0000
7FF8003FFC0000
3FFFC7FFF80000
3FFFFFFFF00000
1FFFFFFFE00000
0FFFFFFFC00000
07FFFFFF000000
01FFFFFC000000
007FFFF0000000
0007FE00000000
ENDCHAR
STARTCHAR 00DA
ENCODING 218
SWIDTH 550 0
DWIDTH 55 0
BBX 53 82 4 -1
BITMAP
0000000003FFC0
0000000007FF80
000000000FFE00
000000001FFC00
000000003FF800
000000007FE000
00000000FFC000
00000001FF8000
00000003FE0000
00000007FC0000
00000008000000
00000000000000
00000000000000
00000000000000
00000000000000
00000000000000
00000000000000
007FC0000007F8
007FC000000FF8
007F8000000FF8
00FF8000000FF8
00FF8000000FF8
00FF8000000FF0
00FF8000001FF0
00FF0000001FF0
01FF0000001FF0
01FF0000001FF0
01FF0000001FE0
01FF0000003FE0
01FE0000003FE0
03FE0000003FE0
03FE0000003FE0
03FE0000003FC0
03FE0000007FC0
03FC0000007FC0
07FC0000007FC0
07FC0000007FC0
07FC0000007F80
07FC000000FF80
07F8000000FF80
0FF8000000FF80
0FF8000000FF80
0FF8000000FF00
0FF8000001FF00
0FF0000001FF00
1FF0000001FF00
1FF0000001FF00
1FF0000001FE00
1FE0000003FE00
1FE0000003FE00
3FE0000003FE00
3FE0000003FE00
3FE0000003FC00
3FC0000007FC00
3FC0000007FC00
7FC0000007FC00
7FC0000007FC00
7FC0000007F800
7F8000000FF800
7F8000000FF800
FF8000000FF800
FF8000000FF000
FF8000001FF000
FF8000001FF000
FF8000001FF000
FF8000003FE000
FF8000003FE000
FF8000007FC000
FF800000FFC000
FF800000FF8000
FFC00001FF8000
FFC00003FF0000
7FE0000FFE0000
7FF8003FFC0000
3FFFC7FFF80000
3FFFFFFFF00000
1FFFFFFFE00000
0FFFFFFFC00000
07FFFFFF000000
01FFFFFC000000
007FFFF0000000
0007FE00000000
ENDCHAR
STARTCHAR 00DB
ENCODING 219
SWIDTH 550 0
DWIDTH 55 0
BBX 53 82 4 -1
BITMAP
00000007FC0000
0000000FFE0000
0000003FFF0000
0000007FFF8000
000000FFFFC000
000001FFFFE000
000007FE3FF000
00000FFC1FF000
00001FF00FF800
00007FE007FC00
00000000000200
00000000000000
00000000000000
00000000000000
00000000000000
00000000000000
00000000000000
007FC0000007F8
007FC000000FF8
007F8000000FF8
00FF8000000FF8
00FF8000000FF8
00FF8000000FF0
00FF8000001FF0
00FF0000001FF0
01FF0000001FF0
01FF0000001FF0
01FF0000001FE0
01FF0000003FE0
01FE0000003FE0
03FE0000003FE0
03FE0000003FE0
03FE0000003FC0
03FE0000007FC0
03FC0000007FC0
07FC0000007FC0
07FC0000007FC0
07FC0000007F80
07FC000000FF80
07F8000000FF80
0FF8000000FF80
0FF8000000FF80
0FF8000000FF00
0FF8000001FF00
0FF0000001FF00
1FF0000001FF00
1FF0000001FF00
1FF0000001FE00
1FE0000003FE00
1FE0000003FE00
3FE0000003FE00
3FE0000003FE00
3FE0000003FC00
3FC0000007FC00
3FC0000007FC00
7FC0000007FC00
7FC0000007FC00
7FC0000007F800
7F8000000FF800
7F8000000FF800
FF8000000FF800
FF8000000FF000
FF8000001FF000
FF8000001FF000
FF8000001FF000
FF8000003FE000
FF8000003FE000
FF8000007FC000
FF800000FFC000
FF800000FF8000
FFC00001FF8000
FFC00003FF0000
7FE0000FFE0000
7FF8003FFC0000
3FFFC7FFF80000
3FFFFFFFF00000
1FFFFFFFE00000
0FFFFFFFC00000
07FFFFFF000000
01FFFFFC000000
007FFFF0000000
0007FE00000000
ENDCHAR
STARTCHAR 00DC
ENCODING 220
SWIDTH 550 0
DWIDTH 55 0
BBX 53 82 4 -1
BITMAP
00000F00007C00
00003FC000FE00
00003FC001FF00
00007FE003FF00
00007FE003FF80
00007FE003FF80
00007FE003FF00
00007FE001FF00
00003FC001FE00
00001F8000FC00
00000000000000
00000000000000
00000000000000
00000000000000
00000000000000
00000000000000
00000000000000
007FC0000007F8
007FC000000FF8
007F8000000FF8
00FF8000000FF8
00FF8000000FF8
00FF8000000FF0
00FF8000001FF0
00FF0000001FF0
01FF0000001FF0
01FF0000001FF0
01FF0000001FE0
01FF0000003FE0
01FE0000003FE0
03FE0000003FE0
03FE0000003FE0
03FE0000003FC0
03FE0000007FC0
03FC0000007FC0
07FC0000007FC0
07FC0000007FC0
07FC0000007F80
07FC000000FF80
07F8000000FF80
0FF8000000FF80
0FF8000000FF80
0FF8000000FF00
0FF8000001FF00
0FF0000001FF00
1FF0000001FF00
1FF0000001FF00
1FF0000001FE00
1FE0000003FE00
1FE0000003FE00
3FE0000003FE00
3FE0000003FE00
3FE0000003FC00
3FC0000007FC00
3FC0000007FC00
7FC0000007FC00
7FC0000007FC00
7FC0000007F800
7F8000000FF800
7F8000000FF800
FF8000000FF800
FF8000000FF000
FF8000001FF000
FF8000001FF000
FF8000001FF000
FF8000003FE000
FF8000003FE000
FF8000007FC000
FF800000FFC000
FF800000FF8000
FFC00001FF8000
FFC00003FF0000
7FE0000FFE0000
7FF8003FFC0000
3FFFC7FFF80000
3FFFFFFFF00000
1FFFFFFFE00000
0FFFFFFFC00000
07FFFFFF000000
01FFFFFC000000
007FFFF0000000
0007FE00000000
ENDCHAR
STARTCHAR 00DD
ENCODING 221
SWIDTH 550 0
DWIDTH 55 0
BBX 55 81 8 0
BITMAP
000000003FFC00
000000007FF800
00000000FFE000
00000001FFC000
00000003FF8000
00000007FE0000
0000000FFC0000
0000001FF80000
0000003FE00000
0000007FC00000
00000080000000
00000000000000
00000000000000
00000000000000
00000000000000
00000000000000
00000000000000
FFC00000000FFE
FFC00000001FFC
7FE00000001FF8
7FE00000003FF0
7FE00000007FF0
3FF0000000FFE0
3FF0000000FFC0
3FF0000001FF80
1FF8000003FF00
1FF8000003FF00
0FF8000007FE00
0FFC00000FFC00
0FFC00001FF800
07FC00001FF800
07FE00003FF000
07FE00007FE000
03FE0000FFC000
03FF0000FFC000
03FF0001FF8000
01FF8003FF0000
01FF8003FE0000
00FF8007FE0000
00FFC00FFC0000
00FFC01FF80000
007FC01FF00000
007FC03FF00000
007FE07FE00000
003FE07FC00000
003FE0FF800000
001FF1FF000000
001FF3FF000000
001FF3FE000000
000FFFFC000000
000FFFF8000000
000FFFF8000000
0007FFF0000000
0007FFE0000000
0007FFC0000000
0003FFC0000000
0003FF80000000
0001FF00000000
0001FE00000000
0003FE00000000
0003FE00000000
0003FE00000000
0003FE00000000
0003FC00000000
0007FC00000000
0007FC00000000
0007FC00000000
0007FC00000000
0007F800000000
000FF800000000
000FF800000000
000FF800000000
000FF800000000
000FF000000000
001FF000000000
001FF000000000
001FF000000000
001FF000000000
001FE000000000
003FE000000000
003FE000000000
ENDCHAR
STARTCHAR 00DE
ENCODING 222
SWIDTH 550 0
DWIDTH 55 0
BBX 49 64 3 0
BITMAP
000FF800000000
000FF800000000
000FF800000000
000FF000000000
001FF000000000
001FF000000000
001FF000000000
001FF000000000
001FE000000000
001FE000000000
003FFFFFE00000
003FFFFFFE0000
003FFFFFFF8000
003FFFFFFFE000
003FFFFFFFF000
007FFFFFFFF800
007FFFFFFFFC00
007FC000FFFC00
007FC0001FFE00
007F80000FFF00
00FF800007FF00
00FF800003FF00
00FF800001FF00
00FF000001FF80
00FF000001FF80
01FF000000FF80
01FF000000FF80
01FF000000FF80
01FE000000FF80
01FE000001FF00
03FE000001FF00
03FE000001FF00
03FE000001FF00
03FC000003FE00
03FC000003FE00
07FC000007FE00
07FC000007FC00
07FC00000FFC00
07F800001FF800
07F800003FF000
0FF800007FF000
0FF80000FFE000
0FF80003FFC000
0FF0001FFF8000
0FFFFFFFFF0000
1FFFFFFFFE0000
1FFFFFFFF80000
1FFFFFFFF00000
1FFFFFFFC00000
1FFFFFFF000000
3FFFFFF8000000
3FFFF800000000
3FE00000000000
3FC00000000000
3FC00000000000
7FC00000000000
7FC00000000000
7FC00000000000
7F800000000000
7F800000000000
FF800000000000
FF800000000000
FF800000000000
FF000000000000
ENDCHAR
STARTCHAR 00DF
ENCODING 223
SWIDTH 550 0
DWIDTH 55 0
BBX 57 90 -5 -20
BITMAP
0000000001C00000
00000000FFFF0000
00000003FFFFE000
0000000FFFFFF000
0000003FFFFFFC00
0000007FFFFFFE00
000000FFFFFFFE00
000001FFF83FFF00
000003FFC007FF00
000007FF0001FF00
000007FE0001FF80
00000FFC0000FF80
00000FF80000FF80
00001FF00000FF80
00001FF00000FF80
00003FE00000FF00
00003FE00001FF00
00003FC00001FF00
00003FC00003FE00
00007FC00007FE00
00007FC0001FFC00
00007F80003FF800
00007F80007FF000
0000FF8001FFE000
0000FF8007FFC000
0000FF800FFF0000
0000FF001FFE0000
0000FF003FF80000
0001FF007FF00000
0001FF007FE00000
0001FF00FFC00000
0001FE00FF800000
0001FE01FF000000
0003FE01FF000000
0003FE01FF000000
0003FE01FF000000
0003FC01FF000000
0003FC01FF800000
0007FC00FF800000
0007FC00FFC00000
0007FC00FFE00000
0007F8007FF00000
0007F8003FF80000
000FF8003FFC0000
000FF8001FFE0000
000FF8000FFF0000
000FF00007FF8000
000FF00003FFC000
001FF00001FFC000
001FF00000FFE000
001FF000007FE000
001FE000003FF000
001FE000001FF000
003FE000001FF000
003FE000001FF800
003FE000000FF800
003FC000000FF800
003FC000000FF000
007FC000001FF000
007FC000001FF000
007FC000003FE000
007F8000007FE000
007F800001FFC000
00FF807FFFFFC000
00FF807FFFFF8000
00FF807FFFFF0000
00FF007FFFFE0000
00FF00FFFFF80000
01FF00FFFFE00000
01FF00FFFF800000
01FF0007C0000000
01FE000000000000
01FE000000000000
03FE000000000000
03FE000000000000
03FC000000000000
03FC000000000000
07FC000000000000
07FC000000000000
07F8000000000000
0FF8000000000000
0FF0000000000000
0FF0000000000000
1FF0000000000000
1FE0000000000000
3FE0000000000000
3FC0000000000000
7FC0000000000000
7F80000000000000
FF80000000000000
ENDCHAR
STARTCHAR 00E0
ENCODING 224
SWIDTH 550 0
DWIDTH 55 0
BBX 48 70 4 -1
BITMAP
000FFF000000
0007FF800000
0001FFC00000
0000FFE00000
00007FF00000
00003FF80000
00000FFC0000
000007FE0000
000003FF0000
000001FF8000
0000007FC000
0000003FE000
000000000000
000000000000
000000000000
000000000000
000000000000
000000000000
000000000000
0000003C0003
000007FFFC3F
00003FFFFFFE
0000FFFFFFFE
0003FFFFFFFE
0007FFFFFFFE
001FFFFFFFFE
003FFFC1FFFC
007FFC001FFC
00FFF00007FC
00FFC00007FC
01FF800007FC
03FF000007F8
03FE000007F8
07FC00000FF8
07FC00000FF8
0FF800000FF8
0FF800000FF0
1FF000000FF0
1FF000001FF0
1FE000001FF0
3FE000001FF0
3FE000001FE0
3FC000003FE0
7FC000003FE0
7FC000003FE0
7FC000007FE0
7FC000007FC0
7F800000FFC0
7F800000FFC0
7F800001FFC0
7F800001FFC0
7F800003FFC0
FF800003FFC0
FF800007FF80
7F80000FFF80
7F80001FFF80
7F80001FFF80
7FC0003FFF80
7FC0007F7F80
7FC001FF7F80
7FE003FE7F80
3FF00FFC7F80
3FFFFFFCFF00
1FFFFFF8FF00
1FFFFFF0FF00
0FFFFFC0FF00
07FFFF80FF00
03FFFE00FF00
00FFF800FF00
001FC0000000
ENDCHAR
STARTCHAR 00E1
ENCODING 225
SWIDTH 550 0
DWIDTH 55 0
BBX 49 70 4 -1
BITMAP
0000000007FF80
000000000FFF00
000000001FFC00
000000003FF800
000000007FF000
00000000FFC000
00000001FF8000
00000003FF0000
00000007FC0000
0000000FF80000
0000001FF00000
0000003FC00000
00000000000000
00000000000000
00000000000000
00000000000000
00000000000000
00000000000000
00000000000000
0000003C000300
000007FFFC3F00
00003FFFFFFE00
0000FFFFFFFE00
0003FFFFFFFE00
0007FFFFFFFE00
001FFFFFFFFE00
003FFFC1FFFC00
007FFC001FFC00
00FFF00007FC00
00FFC00007FC00
01FF800007FC00
03FF000007F800
03FE000007F800
07FC00000FF800
07FC00000FF800
0FF800000FF800
0FF800000FF000
1FF000000FF000
1FF000001FF000
1FE000001FF000
3FE000001FF000
3FE000001FE000
3FC000003FE000
7FC000003FE000
7FC000003FE000
7FC000007FE000
7FC000007FC000
7F800000FFC000
7F800000FFC000
7F800001FFC000
7F800001FFC000
7F800003FFC000
FF800003FFC000
FF800007FF8000
7F80000FFF8000
7F80001FFF8000
7F80001FFF8000
7FC0003FFF8000
7FC0007F7F8000
7FC001FF7F8000
7FE003FE7F8000
3FF00FFC7F8000
3FFFFFFCFF0000
1FFFFFF8FF0000
1FFFFFF0FF0000
0FFFFFC0FF0000
07FFFF80FF0000
03FFFE00FF0000
00FFF800FF0000
001FC000000000
ENDCHAR
STARTCHAR 00E2
ENCODING 226
SWIDTH 550 0
DWIDTH 55 0
BBX 48 70 4 -1
BITMAP
0000000FF000
0000001FF800
0000003FFC00
0000007FFE00
000001FFFE00
000003FFFF00
000007FCFF80
00000FF87FC0
00001FF03FE0
00007FC01FE0
0000FF800FF0
0001FF0007F8
000000000000
000000000000
000000000000
000000000000
000000000000
000000000000
000000000000
0000003C0003
000007FFFC3F
00003FFFFFFE
0000FFFFFFFE
0003FFFFFFFE
0007FFFFFFFE
001FFFFFFFFE
003FFFC1FFFC
007FFC001FFC
00FFF00007FC
00FFC00007FC
01FF800007FC
03FF000007F8
03FE000007F8
07FC00000FF8
07FC00000FF8
0FF800000FF8
0FF800000FF0
1FF000000FF0
1FF000001FF0
1FE000001FF0
3FE000001FF0
3FE000001FE0
3FC000003FE0
7FC000003FE0
7FC000003FE0
7FC000007FE0
7FC000007FC0
7F800000FFC0
7F800000FFC0
7F800001FFC0
7F800001FFC0
7F800003FFC0
FF800003FFC0
FF800007FF80
7F80000FFF80
7F80001FFF80
7F80001FFF80
7FC0003FFF80
7FC0007F7F80
7FC001FF7F80
7FE003FE7F80
3FF00FFC7F80
3FFFFFFCFF00
1FFFFFF8FF00
1FFFFFF0FF00
0FFFFFC0FF00
07FFFF80FF00
03FFFE00FF00
00FFF800FF00
001FC0000000
ENDCHAR
STARTCHAR 00E3
ENCODING 227
SWIDTH 550 0
DWIDTH 55 0
BBX 49 70 4 -1
BITMAP
000003F8000000
00001FFE000C00
00003FFF800E00
00007FFFC01F00
0000FFFFF07F80
0001FFFFFFFF80
0003FFFFFFFF00
0003F80FFFFE00
0001F007FFFC00
0000E001FFF800
00004000FFE000
000000001F0000
00000000000000
00000000000000
00000000000000
00000000000000
00000000000000
00000000000000
00000000000000
0000003C000300
000007FFFC3F00
00003FFFFFFE00
0000FFFFFFFE00
0003FFFFFFFE00
0007FFFFFFFE00
001FFFFFFFFE00
003FFFC1FFFC00
007FFC001FFC00
00FFF00007FC00
00FFC00007FC00
01FF800007FC00
03FF000007F800
03FE000007F800
07FC00000FF800
07FC00000FF800
0FF800000FF800
0FF800000FF000
1FF000000FF000
1FF000001FF000
1FE000001FF000
3FE000001FF000
3FE000001FE000
3FC000003FE000
7FC000003FE000
7FC000003FE000
7FC000007FE000
7FC000007FC000
7F800000FFC000
7F800000FFC000
7F800001FFC000
7F800001FFC000
7F800003FFC000
FF800003FFC000
FF800007FF8000
7F80000FFF8000
7F80001FFF8000
7F80001FFF8000
7FC0003FFF8000
7FC0007F7F8000
7FC001FF7F8000
7FE003FE7F8000
3FF00FFC7F8000
3FFFFFFCFF0000
1FFFFFF8FF0000
1FFFFFF0FF0000
0FFFFFC0FF0000
07FFFF80FF0000
03FFFE00FF0000
00FFF800FF0000
001FC000000000
ENDCHAR
STARTCHAR 00E4
ENCODING 228
SWIDTH 550 0
DWIDTH 55 0
BBX 48 70 4 -1
BITMAP
000008000040
00007F0003F8
0000FF8007FC
0000FFC007FE
0001FFC00FFE
0001FFC00FFE
0001FFC00FFE
0001FFC00FFE
0000FF8007FC
0000FF8007FC
00007E0003F0
000000000000
000000000000
000000000000
000000000000
000000000000
000000000000
000000000000
000000000000
0000003C0003
000007FFFC3F
00003FFFFFFE
0000FFFFFFFE
0003FFFFFFFE
0007FFFFFFFE
001FFFFFFFFE
003FFFC1FFFC
007FFC001FFC
00FFF00007FC
00FFC00007FC
01FF800007FC
03FF000007F8
03FE000007F8
07FC00000FF8
07FC00000FF8
0FF800000FF8
0FF800000FF0
1FF000000FF0
1FF000001FF0
1FE000001FF0
3FE000001FF0
3FE000001FE0
3FC000003FE0
7FC000003FE0
7FC000003FE0
7FC000007FE0
7FC000007FC0
7F800000FFC0
7F800000FFC0
7F800001FFC0
7F800001FFC0
7F800003FFC0
FF800003FFC0
FF800007FF80
7F80000FFF80
7F80001FFF80
7F80001FFF80
7FC0003FFF80
7FC0007F7F80
7FC001FF7F80
7FE003FE7F80
3FF00FFC7F80
3FFFFFFCFF00
1FFFFFF8FF00
1FFFFFF0FF00
0FFFFFC0FF00
07FFFF80FF00
03FFFE00FF00
00FFF800FF00
001FC0000000
ENDCHAR
STARTCHAR 00E5
ENCODING 229
SWIDTH 550 0
DWIDTH 55 0
BBX 48 74 4 -1
BITMAP
0000001FF000
0000007FFC00
000000FFFE00
000001FFFF00
000003FFFF00
000003F83F80
000007F01F80
000007E00F80
000007C00FC0
000007C00FC0
000007C00F80
000007C00F80
000007E01F80
000007F03F80
000003FCFF00
000003FFFF00
000001FFFE00
000000FFFC00
0000007FF000
0000000FC000
000000000000
000000000000
000000000000
0000003C0003
000007FFFC3F
00003FFFFFFE
0000FFFFFFFE
0003FFFFFFFE
0007FFFFFFFE
001FFFFFFFFE
003FFFC1FFFC
007FFC001FFC
00FFF00007FC
00FFC00007FC
01FF800007FC
03FF000007F8
03FE000007F8
07FC00000FF8
07FC00000FF8
0FF800000FF8
0FF800000FF0
1FF000000FF0
1FF000001FF0
1FE000001FF0
3FE000001FF0
3FE000001FE0
3FC000003FE0
7FC000003FE0
7FC000003FE0
7FC000007FE0
7FC000007FC0
7F800000FFC0
7F800000FFC0
7F800001FFC0
7F800001FFC0
7F800003FFC0
FF800003FFC0
FF800007FF80
7F80000FFF80
7F80001FFF80
7F80001FFF80
7FC0003FFF80
7FC0007F7F80
7FC001FF7F80
7FE003FE7F80
3FF00FFC7F80
3FFFFFFCFF00
1FFFFFF8FF00
1FFFFFF0FF00
0FFFFFC0FF00
07FFFF80FF00
03FFFE00FF00
00FFF800FF00
001FC0000000
ENDCHAR
STARTCHAR 00E6
ENCODING 230
SWIDTH 550 0
DWIDTH 55 0
BBX 56 51 -1 -1
BITMAP
00003FC0007F00
0007FFF803FFC0
003FFFFC0FFFF0
007FFFFE1FFFF8
007FFFFF3FFFFC
007FFFFF7FFFFC
007FFFFFFFFFFE
007F00FFFF83FE
0078007FFE01FF
0060003FFC01FF
0000003FF800FF
0000001FF800FF
0000001FF000FF
0000001FE000FF
0000001FE000FF
0000003FE000FF
0000003FC001FF
0000003FC001FE
0000003FC003FE
0000003F8007FC
0000003F801FFC
00003FFFFFFFF8
000FFFFFFFFFF0
007FFFFFFFFFE0
01FFFFFFFFFF80
03FFFFFFFFFF00
07FFFFFFFFF800
0FFFFFFFFF0000
1FFC00FF000000
1FF000FE000000
3FE000FE000000
3FC001FE000000
7FC001FE000000
7F8001FE000000
7F8003FE000000
FF0003FE000000
FF0007FE000000
FF0007FE000000
FF000FFE000000
FF000FFE000000
FF001FFF000000
FF003FFF000000
FF807FFF800100
FFC1FEFFE01F00
FFFFFE7FFFFF00
7FFFFC7FFFFF00
7FFFF83FFFFF00
3FFFF01FFFFF00
1FFFE00FFFFF00
07FF8003FFFC00
01FC00007F8000
ENDCHAR
STARTCHAR 00E7
ENCODING 231
SWIDTH 550 0
DWIDTH 55 0
BBX 43 64 7 -14
BITMAP
0000003FC000
000007FFFF00
00003FFFFFE0
0000FFFFFFE0
0003FFFFFFE0
0007FFFFFFE0
001FFFFFFFE0
003FFFFFFFC0
007FFE0007C0
00FFF80000C0
01FFE0000000
01FFC0000000
03FF00000000
07FE00000000
0FFE00000000
0FFC00000000
1FF800000000
1FF000000000
1FF000000000
3FE000000000
3FE000000000
7FE000000000
7FC000000000
7FC000000000
7FC000000000
FF8000000000
FF8000000000
FF8000000000
FF8000000000
FF8000000000
FF8000000000
FF8000000000
FF8000000000
FF8000000000
FF8000000000
FF8000000000
FFC000000000
FFC000000000
7FC000000000
7FE000000000
7FF000000000
3FF800006000
3FFE0003E000
1FFFFFFFE000
0FFFFFFFE000
0FFFFFFFE000
03FFFFFFE000
01FFFFFFE000
007FFFFFC000
001FFFFC0000
0007FF000000
0007F8000000
000FF0000000
000FF0000000
001FE0000000
001FE0000000
003FC0000000
003FC0000000
003F80000000
007F80000000
007F80000000
00FF00000000
00FF00000000
00FE00000000
ENDCHAR
STARTCHAR 00E8
ENCODING 232
SWIDTH 550 0
DWIDTH 55 0
BBX 45 70 5 -1
BITMAP
001FFE000000
000FFF000000
0003FF800000
0001FFC00000
0000FFE00000
00007FF00000
00001FF80000
00000FFC0000
000007FE0000
000003FF0000
000000FF8000
0000007FC000
000000000000
000000000000
000000000000
000000000000
000000000000
000000000000
000000000000
000001FF8000
00000FFFF000
00007FFFFE00
0001FFFFFF00
0003FFFFFFC0
000FFFFFFFE0
001FFFFFFFE0
003FFE00FFF0
007FF0003FF0
00FFE0001FF8
01FF80000FF8
01FF00000FF8
03FE00000FF8
07FE00000FF8
07FC00000FF8
0FF800000FF8
0FF800000FF8
1FF000001FF8
1FF000003FF0
3FE00000FFF0
3FE00007FFE0
3FC001FFFFC0
7FFFFFFFFF80
7FFFFFFFFF00
7FFFFFFFFC00
7FFFFFFFF000
FFFFFFFF8000
FFFFFFF80000
FF8000000000
FF8000000000
FF8000000000
FF8000000000
FF8000000000
FF8000000000
FF8000000000
FF8000000000
FF8000000000
FF8000000000
7FC000000000
7FC000000000
7FE000000000
3FF000000000
3FFC00003C00
1FFFC01FFC00
1FFFFFFFFC00
0FFFFFFFFC00
07FFFFFFFC00
03FFFFFFFC00
00FFFFFFFC00
003FFFFFC000
0001FFE00000
ENDCHAR
STARTCHAR 00E9
ENCODING 233
SWIDTH 550 0
DWIDTH 55 0
BBX 48 70 5 -1
BITMAP
000000000FFF
000000001FFE
000000003FF8
000000007FF0
00000000FFE0
00000001FF80
00000003FF00
00000007FE00
0000000FF800
0000001FF000
0000003FE000
0000007F8000
000000000000
000000000000
000000000000
000000000000
000000000000
000000000000
000000000000
000001FF8000
00000FFFF000
00007FFFFE00
0001FFFFFF00
0003FFFFFFC0
000FFFFFFFE0
001FFFFFFFE0
003FFE00FFF0
007FF0003FF0
00FFE0001FF8
01FF80000FF8
01FF00000FF8
03FE00000FF8
07FE00000FF8
07FC00000FF8
0FF800000FF8
0FF800000FF8
1FF000001FF8
1FF000003FF0
3FE00000FFF0
3FE00007FFE0
3FC001FFFFC0
7FFFFFFFFF80
7FFFFFFFFF00
7FFFFFFFFC00
7FFFFFFFF000
FFFFFFFF8000
FFFFFFF80000
FF8000000000
FF8000000000
FF8000000000
FF8000000000
FF8000000000
FF8000000000
FF8000000000
FF8000000000
FF8000000000
FF8000000000
7FC000000000
7FC000000000
7FE000000000
3FF000000000
3FFC00003C00
1FFFC01FFC00
1FFFFFFFFC00
0FFFFFFFFC00
07FFFFFFFC00
03FFFFFFFC00
00FFFFFFFC00
003FFFFFC000
0001FFE00000
ENDCHAR
STARTCHAR 00EA
ENCODING 234
SWIDTH 550 0
DWIDTH 55 0
BBX 45 70 5 -1
BITMAP
0000001FE000
0000003FF000
0000007FF800
000000FFFC00
000003FFFC00
000007FFFE00
00000FF9FF00
00001FF0FF80
00003FE07FC0
0000FF803FC0
0001FF001FE0
0003FE000FF0
000000000000
000000000000
000000000000
000000000000
000000000000
000000000000
000000000000
000001FF8000
00000FFFF000
00007FFFFE00
0001FFFFFF00
0003FFFFFFC0
000FFFFFFFE0
001FFFFFFFE0
003FFE00FFF0
007FF0003FF0
00FFE0001FF8
01FF80000FF8
01FF00000FF8
03FE00000FF8
07FE00000FF8
07FC00000FF8
0FF800000FF8
0FF800000FF8
1FF000001FF8
1FF000003FF0
3FE00000FFF0
3FE00007FFE0
3FC001FFFFC0
7FFFFFFFFF80
7FFFFFFFFF00
7FFFFFFFFC00
7FFFFFFFF000
FFFFFFFF8000
FFFFFFF80000
FF8000000000
FF8000000000
FF8000000000
FF8000000000
FF8000000000
FF8000000000
FF8000000000
FF8000000000
FF8000000000
FF8000000000
7FC000000000
7FC000000000
7FE000000000
3FF000000000
3FFC00003C00
1FFFC01FFC00
1FFFFFFFFC00
0FFFFFFFFC00
07FFFFFFFC00
03FFFFFFFC00
00FFFFFFFC00
003FFFFFC000
0001FFE00000
ENDCHAR
STARTCHAR 00EB
ENCODING 235
SWIDTH 550 0
DWIDTH 55 0
BBX 46 70 5 -1
BITMAP
000010000080
0000FE0007F0
0001FF000FF8
0001FF800FFC
0003FF801FFC
0003FF801FFC
0003FF801FFC
0003FF801FFC
0001FF000FF8
0001FF000FF8
0000FC0007E0
000000000000
000000000000
000000000000
000000000000
000000000000
000000000000
000000000000
000000000000
000001FF8000
00000FFFF000
00007FFFFE00
0001FFFFFF00
0003FFFFFFC0
000FFFFFFFE0
001FFFFFFFE0
003FFE00FFF0
007FF0003FF0
00FFE0001FF8
01FF80000FF8
01FF00000FF8
03FE00000FF8
07FE00000FF8
07FC00000FF8
0FF800000FF8
0FF800000FF8
1FF000001FF8
1FF000003FF0
3FE00000FFF0
3FE00007FFE0
3FC001FFFFC0
7FFFFFFFFF80
7FFFFFFFFF00
7FFFFFFFFC00
7FFFFFFFF000
FFFFFFFF8000
FFFFFFF80000
FF8000000000
FF8000000000
FF8000000000
FF8000000000
FF8000000000
FF8000000000
FF8000000000
FF8000000000
FF8000000000
FF8000000000
7FC000000000
7FC000000000
7FE000000000
3FF000000000
3FFC00003C00
1FFFC01FFC00
1FFFFFFFFC00
0FFFFFFFFC00
07FFFFFFFC00
03FFFFFFFC00
00FFFFFFFC00
003FFFFFC000
0001FFE00000
ENDCHAR
STARTCHAR 00EC
ENCODING 236
SWIDTH 550 0
DWIDTH 55 0
BBX 39 70 8 -1
BITMAP
07FF800000
03FFC00000
00FFE00000
007FF00000
003FF80000
001FFC0000
0007FE0000
0003FF0000
0001FF8000
0000FFC000
00003FE000
00001FF000
0000000000
0000000000
0000000000
0000000000
0000000000
0000000000
0000000000
003FE00000
03FFFC0000
0FFFFE0000
7FFFFF0000
FFFFFF8000
FFFFFF8000
FFFFFFC000
FFC1FFC000
FE007FC000
F0007FC000
C0007FC000
00007FC000
00007FC000
00007FC000
00007FC000
00007FC000
00007FC000
00007F8000
00007F8000
0000FF8000
0000FF8000
0000FF8000
0000FF0000
0000FF0000
0001FF0000
0001FF0000
0001FF0000
0001FE0000
0001FE0000
0003FE0000
0003FE0000
0003FE0000
0003FC0000
0003FC0000
0007FC0000
0007FC0000
0007FC0000
0007F80000
0007F80000
0007F80002
0007FC0006
0007FC001E
0007FC00FE
0007FF07FE
0007FFFFFE
0003FFFFFE
0003FFFFFE
0001FFFFFC
0000FFFFE0
00007FFF80
00000FF000
ENDCHAR
STARTCHAR 00ED
ENCODING 237
SWIDTH 550 0
DWIDTH 55 0
BBX 43 70 8 -1
BITMAP
00000001FFE0
00000003FFC0
00000007FF00
0000000FFE00
0000001FFC00
0000003FF000
0000007FE000
000000FFC000
000001FF0000
000003FE0000
000007FC0000
00000FF00000
000000000000
000000000000
000000000000
000000000000
000000000000
000000000000
000000000000
003FE0000000
03FFFC000000
0FFFFE000000
7FFFFF000000
FFFFFF800000
FFFFFF800000
FFFFFFC00000
FFC1FFC00000
FE007FC00000
F0007FC00000
C0007FC00000
00007FC00000
00007FC00000
00007FC00000
00007FC00000
00007FC00000
00007FC00000
00007F800000
00007F800000
0000FF800000
0000FF800000
0000FF800000
0000FF000000
0000FF000000
0001FF000000
0001FF000000
0001FF000000
0001FE000000
0001FE000000
0003FE000000
0003FE000000
0003FE000000
0003FC000000
0003FC000000
0007FC000000
0007FC000000
0007FC000000
0007F8000000
0007F8000000
0007F8000200
0007FC000600
0007FC001E00
0007FC00FE00
0007FF07FE00
0007FFFFFE00
0003FFFFFE00
0003FFFFFE00
0001FFFFFC00
0000FFFFE000
00007FFF8000
00000FF00000
ENDCHAR
STARTCHAR 00EE
ENCODING 238
SWIDTH 550 0
DWIDTH 55 0
BBX 40 70 8 -1
BITMAP
000001FE00
000003FF00
000007FF80
00000FFFC0
00003FFFC0
00007FFFE0
0000FF9FF0
0001FF0FF8
0003FE07FC
000FF803FC
001FF001FE
003FE000FF
0000000000
0000000000
0000000000
0000000000
0000000000
0000000000
0000000000
003FE00000
03FFFC0000
0FFFFE0000
7FFFFF0000
FFFFFF8000
FFFFFF8000
FFFFFFC000
FFC1FFC000
FE007FC000
F0007FC000
C0007FC000
00007FC000
00007FC000
00007FC000
00007FC000
00007FC000
00007FC000
00007F8000
00007F8000
0000FF8000
0000FF8000
0000FF8000
0000FF0000
0000FF0000
0001FF0000
0001FF0000
0001FF0000
0001FE0000
0001FE0000
0003FE0000
0003FE0000
0003FE0000
0003FC0000
0003FC0000
0007FC0000
0007FC0000
0007FC0000
0007F80000
0007F80000
0007F80002
0007FC0006
0007FC001E
0007FC00FE
0007FF07FE
0007FFFFFE
0003FFFFFE
0003FFFFFE
0001FFFFFC
0000FFFFE0
00007FFF80
00000FF000
ENDCHAR
STARTCHAR 00EF
ENCODING 239
SWIDTH 550 0
DWIDTH 55 0
BBX 42 70 8 -1
BITMAP
000100000800
000FE0007F00
001FF000FF80
001FF800FFC0
003FF801FFC0
003FF801FFC0
003FF801FFC0
003FF801FFC0
001FF000FF80
001FF000FF80
000FC0007E00
000000000000
000000000000
000000000000
000000000000
000000000000
000000000000
000000000000
000000000000
003FE0000000
03FFFC000000
0FFFFE000000
7FFFFF000000
FFFFFF800000
FFFFFF800000
FFFFFFC00000
FFC1FFC00000
FE007FC00000
F0007FC00000
C0007FC00000
00007FC00000
00007FC00000
00007FC00000
00007FC00000
00007FC00000
00007FC00000
00007F800000
00007F800000
0000FF800000
0000FF800000
0000FF800000
0000FF000000
0000FF000000
0001FF000000
0001FF000000
0001FF000000
0001FE000000
0001FE000000
0003FE000000
0003FE000000
0003FE000000
0003FC000000
0003FC000000
0007FC000000
0007FC000000
0007FC000000
0007F8000000
0007F8000000
0007F8000200
0007FC000600
0007FC001E00
0007FC00FE00
0007FF07FE00
0007FFFFFE00
0003FFFFFE00
0003FFFFFE00
0001FFFFFC00
0000FFFFE000
00007FFF8000
00000FF00000
ENDCHAR
STARTCHAR 00F0
ENCODING 240
SWIDTH 550 0
DWIDTH 55 0
BBX 48 70 4 -1
BITMAP
000007FC0000
000007FE0000
000003FF0003
000003FF007F
000001FF8FFF
000000FFFFFF
000000FFFFFF
000003FFFFFF
00007FFFFFFF
0003FFFFFFFC
0003FFFFFF80
0003FFFFF800
0003FFFFF800
0003FFCFFC00
0003FC07FC00
00038007FE00
00000003FE00
00000003FF00
00000001FF00
00000001FF00
000007FFFF80
00003FFFFF80
0000FFFFFFC0
0003FFFFFFC0
0007FFFFFFC0
001FFFFFFFE0
003FFFFFFFE0
007FFC001FE0
00FFF0001FF0
00FFC0001FF0
01FF80001FF0
03FF00000FF0
07FE00000FF8
07FC00000FF8
0FF800000FF8
0FF800000FF8
1FF0000007F8
1FF0000007F8
3FE0000007F8
3FE0000007F8
3FE0000007F8
7FC0000007F8
7FC000000FF8
7FC000000FF8
7F8000000FF8
7F8000000FF8
FF8000000FF8
FF8000000FF0
FF8000001FF0
FF8000001FF0
FF8000001FF0
FF8000003FE0
FF8000003FE0
FF8000007FC0
FF8000007FC0
FF800000FFC0
FFC00001FF80
7FC00001FF00
7FE00003FF00
7FE0000FFE00
3FF0001FFC00
3FFC007FF800
1FFF87FFF800
1FFFFFFFE000
0FFFFFFFC000
07FFFFFF8000
03FFFFFE0000
00FFFFFC0000
003FFFE00000
0003FE000000
ENDCHAR
STARTCHAR 00F1
ENCODING 241
SWIDTH 550 0
DWIDTH 55 0
BBX 50 69 3 0
BITMAP
000001FC000000
00000FFF000600
00001FFFC00700
00003FFFE00F80
00007FFFF83FC0
0000FFFFFFFFC0
0001FFFFFFFF80
0001FC07FFFF00
0000F803FFFE00
00007000FFFC00
000020007FF000
000000000F8000
00000000000000
00000000000000
00000000000000
00000000000000
00000000000000
00000000000000
00000000000000
00000007F80000
00FF003FFF0000
00FF00FFFFC000
00FF03FFFFE000
01FE07FFFFF000
01FE0FFFFFF800
01FE1FFFFFF800
01FE3FFEFFF800
01FE7FE01FFC00
01FEFF800FFC00
01FEFF0007FC00
01FFFE0007FC00
01FFFC0007FC00
03FFF80003FC00
03FFF00003FC00
03FFE00007FC00
03FFE00007FC00
03FFC00007FC00
03FF800007FC00
03FF800007F800
03FF000007F800
07FF00000FF800
07FE00000FF800
07FE00000FF800
07FC00000FF000
07FC00000FF000
0FF800001FF000
0FF800001FF000
0FF800001FF000
0FF000001FE000
0FF000001FE000
1FF000003FE000
1FF000003FE000
1FF000003FE000
1FE000003FC000
1FE000003FC000
3FE000007FC000
3FE000007FC000
3FE000007FC000
3FC000007F8000
3FC000007F8000
7FC00000FF8000
7FC00000FF8000
7FC00000FF8000
7F800000FF0000
7F800000FF0000
FF800001FF0000
FF800001FF0000
FF800001FF0000
FF000001FE0000
ENDCHAR
STARTCHAR 00F2
ENCODING 242
SWIDTH 550 0
DWIDTH 55 0
BBX 47 70 4 -1
BITMAP
001FFE000000
000FFF000000
0003FF800000
0001FFC00000
0000FFE00000
00007FF00000
00001FF80000
00000FFC0000
000007FE0000
000003FF0000
000000FF8000
0000007FC000
000000000000
000000000000
000000000000
000000000000
000000000000
000000000000
000000000000
000000FF8000
00000FFFF800
00007FFFFE00
0001FFFFFF80
0003FFFFFFC0
000FFFFFFFE0
001FFFFFFFF0
003FFF83FFF0
007FF8007FF8
00FFE0001FF8
01FFC0000FFC
01FF80000FFC
03FF000007FC
07FE000007FC
07FC000003FE
0FF8000003FE
0FF8000003FE
1FF0000003FE
1FF0000003FE
3FE0000003FE
3FE0000003FE
3FC0000003FE
7FC0000003FE
7FC0000003FC
7F80000003FC
7F80000007FC
FF80000007FC
FF80000007FC
FF80000007F8
FF8000000FF8
FF8000000FF8
FF8000000FF0
FF8000001FF0
FF8000001FF0
FF8000003FE0
FF8000007FE0
FF8000007FC0
FF800000FFC0
FFC00001FF80
7FC00003FF00
7FE00007FE00
7FF0001FFE00
3FFC007FFC00
3FFF83FFF800
1FFFFFFFF000
0FFFFFFFC000
07FFFFFF8000
03FFFFFF0000
00FFFFFC0000
003FFFE00000
0003FE000000
ENDCHAR
STARTCHAR 00F3
ENCODING 243
SWIDTH 550 0
DWIDTH 55 0
BBX 49 70 4 -1
BITMAP
0000000007FF80
000000000FFF00
000000001FFC00
000000003FF800
000000007FF000
00000000FFC000
00000001FF8000
00000003FF0000
00000007FC0000
0000000FF80000
0000001FF00000
0000003FC00000
00000000000000
00000000000000
00000000000000
00000000000000
00000000000000
00000000000000
00000000000000
000000FF800000
00000FFFF80000
00007FFFFE0000
0001FFFFFF8000
0003FFFFFFC000
000FFFFFFFE000
001FFFFFFFF000
003FFF83FFF000
007FF8007FF800
00FFE0001FF800
01FFC0000FFC00
01FF80000FFC00
03FF000007FC00
07FE000007FC00
07FC000003FE00
0FF8000003FE00
0FF8000003FE00
1FF0000003FE00
1FF0000003FE00
3FE0000003FE00
3FE0000003FE00
3FC0000003FE00
7FC0000003FE00
7FC0000003FC00
7F80000003FC00
7F80000007FC00
FF80000007FC00
FF80000007FC00
FF80000007F800
FF8000000FF800
FF8000000FF800
FF8000000FF000
FF8000001FF000
FF8000001FF000
FF8000003FE000
FF8000007FE000
FF8000007FC000
FF800000FFC000
FFC00001FF8000
7FC00003FF0000
7FE00007FE0000
7FF0001FFE0000
3FFC007FFC0000
3FFF83FFF80000
1FFFFFFFF00000
0FFFFFFFC00000
07FFFFFF800000
03FFFFFF000000
00FFFFFC000000
003FFFE0000000
0003FE00000000
ENDCHAR
STARTCHAR 00F4
ENCODING 244
SWIDTH 550 0
DWIDTH 55 0
BBX 47 70 4 -1
BITMAP
0000000FF000
0000001FF800
0000003FFC00
0000007FFE00
000001FFFE00
000003FFFF00
000007FCFF80
00000FF87FC0
00001FF03FE0
00007FC01FE0
0000FF800FF0
0001FF0007F8
000000000000
000000000000
000000000000
000000000000
000000000000
000000000000
000000000000
000000FF8000
00000FFFF800
00007FFFFE00
0001FFFFFF80
0003FFFFFFC0
000FFFFFFFE0
001FFFFFFFF0
003FFF83FFF0
007FF8007FF8
00FFE0001FF8
01FFC0000FFC
01FF80000FFC
03FF000007FC
07FE000007FC
07FC000003FE
0FF8000003FE
0FF8000003FE
1FF0000003FE
1FF0000003FE
3FE0000003FE
3FE0000003FE
3FC0000003FE
7FC0000003FE
7FC0000003FC
7F80000003FC
7F80000007FC
FF80000007FC
FF80000007FC
FF80000007F8
FF8000000FF8
FF8000000FF8
FF8000000FF0
FF8000001FF0
FF8000001FF0
FF8000003FE0
FF8000007FE0
FF8000007FC0
FF800000FFC0
FFC00001FF80
7FC00003FF00
7FE00007FE00
7FF0001FFE00
3FFC007FFC00
3FFF83FFF800
1FFFFFFFF000
0FFFFFFFC000
07FFFFFF8000
03FFFFFF0000
00FFFFFC0000
003FFFE00000
0003FE000000
ENDCHAR
STARTCHAR 00F5
ENCODING 245
SWIDTH 550 0
DWIDTH 55 0
BBX 49 70 4 -1
BITMAP
000003F8000000
00001FFE000C00
00003FFF800E00
00007FFFC01F00
0000FFFFF07F80
0001FFFFFFFF80
0003FFFFFFFF00
0003F80FFFFE00
0001F007FFFC00
0000E001FFF800
00004000FFE000
000000001F0000
00000000000000
00000000000000
00000000000000
00000000000000
00000000000000
00000000000000
00000000000000
000000FF800000
00000FFFF80000
00007FFFFE0000
0001FFFFFF8000
0003FFFFFFC000
000FFFFFFFE000
001FFFFFFFF000
003FFF83FFF000
007FF8007FF800
00FFE0001FF800
01FFC0000FFC00
01FF80000FFC00
03FF000007FC00
07FE000007FC00
07FC000003FE00
0FF8000003FE00
0FF8000003FE00
1FF0000003FE00
1FF0000003FE00
3FE0000003FE00
3FE0000003FE00
3FC0000003FE00
7FC0000003FE00
7FC0000003FC00
7F80000003FC00
7F80000007FC00
FF80000007FC00
FF80000007FC00
FF80000007F800
FF8000000FF800
FF8000000FF800
FF8000000FF000
FF8000001FF000
FF8000001FF000
FF8000003FE000
FF8000007FE000
FF8000007FC000
FF800000FFC000
FFC00001FF8000
7FC00003FF0000
7FE00007FE0000
7FF0001FFE0000
3FFC007FFC0000
3FFF83FFF80000
1FFFFFFFF00000
0FFFFFFFC00000
07FFFFFF800000
03FFFFFF000000
00FFFFFC000000
003FFFE0000000
0003FE00000000
ENDCHAR
STARTCHAR 00F6
ENCODING 246
SWIDTH 550 0
DWIDTH 55 0
BBX 47 70 4 -1
BITMAP
000008000040
00007F0003F8
0000FF8007FC
0000FFC007FE
0001FFC00FFE
0001FFC00FFE
0001FFC00FFE
0001FFC00FFE
0000FF8007FC
0000FF8007FC
00007E0003F0
000000000000
000000000000
000000000000
000000000000
000000000000
000000000000
000000000000
000000000000
000000FF8000
00000FFFF800
00007FFFFE00
0001FFFFFF80
0003FFFFFFC0
000FFFFFFFE0
001FFFFFFFF0
003FFF83FFF0
007FF8007FF8
00FFE0001FF8
01FFC0000FFC
01FF80000FFC
03FF000007FC
07FE000007FC
07FC000003FE
0FF8000003FE
0FF8000003FE
1FF0000003FE
1FF0000003FE
3FE0000003FE
3FE0000003FE
3FC0000003FE
7FC0000003FE
7FC0000003FC
7F80000003FC
7F80000007FC
FF80000007FC
FF80000007FC
FF80000007F8
FF8000000FF8
FF8000000FF8
FF8000000FF0
FF8000001FF0
FF8000001FF0
FF8000003FE0
FF8000007FE0
FF8000007FC0
FF800000FFC0
FFC00001FF80
7FC00003FF00
7FE00007FE00
7FF0001FFE00
3FFC007FFC00
3FFF83FFF800
1FFFFFFFF000
0FFFFFFFC000
07FFFFFF8000
03FFFFFF0000
00FFFFFC0000
003FFFE00000
0003FE000000
ENDCHAR
STARTCHAR 00F7
ENCODING 247
SWIDTH 550 0
DWIDTH 55 0
BBX 48 51 4 1
BITMAP
0000007C0000
000001FF0000
000003FF8000
000003FF8000
000007FFC000
000007FFC000
000007FFC000
000007FFC000
000007FF8000
000003FF8000
000003FF0000
000001FE0000
000000780000
000000000000
000000000000
000000000000
000000000000
000000000000
000000000000
000000000000
000000000000
000000000000
7FFFFFFFFFFF
7FFFFFFFFFFF
7FFFFFFFFFFE
FFFFFFFFFFFE
FFFFFFFFFFFE
FFFFFFFFFFFE
FFFFFFFFFFFE
000000000000
000000000000
000000000000
000000000000
000000000000
000000000000
000000000000
000000000000
000000000000
00003E000000
0000FF000000
0001FF800000
0003FFC00000
0003FFC00000
0007FFC00000
0007FFC00000
0007FFC00000
0003FFC00000
0003FF800000
0001FF800000
0000FF000000
00003C000000
ENDCHAR
STARTCHAR 00F8
ENCODING 248
SWIDTH 550 0
DWIDTH 55 0
BBX 47 70 4 -10
BITMAP
0000000003FC
0000000003F8
0000000007F8
0000000007F0
000000000FF0
000000000FE0
000000001FE0
000000001FC0
000000003FC0
000000007F80
000001FFFF80
00001FFFFF00
00007FFFFF00
0001FFFFFF80
0007FFFFFFC0
000FFFFFFFE0
001FFFFFFFF0
003FFF87FFF0
007FF807FFF8
00FFE00FFFFC
01FFC00FEFFC
03FF001FE7FC
03FE003FC7FE
07FE003FC3FE
0FFC007F83FE
0FF8007F83FE
1FF000FF03FE
1FF000FE01FE
3FE001FE01FE
3FE001FC01FE
3FC003FC01FE
7FC003F803FE
7FC007F803FE
7F8007F003FE
FF800FF003FE
FF801FE003FE
FF801FE003FC
FF803FC007FC
FF003FC007FC
FF007F8007FC
FF007F800FF8
FF00FF000FF8
FF00FE001FF0
FF01FE001FF0
FF01FC003FF0
FF03FC003FE0
FF83F8007FE0
FF87F800FFC0
FF87F001FF80
FFCFF003FF80
7FFFE007FF00
7FFFE00FFE00
3FFFC03FFC00
3FFFC3FFF800
1FFFFFFFF000
0FFFFFFFE000
07FFFFFF8000
03FFFFFF0000
01FFFFFC0000
01FFFFE00000
03FFFE000000
03F800000000
07F800000000
0FF000000000
0FF000000000
1FE000000000
1FE000000000
3FC000000000
3FC000000000
7F8000000000
ENDCHAR
STARTCHAR 00F9
ENCODING 249
SWIDTH 550 0
DWIDTH 55 0
BBX 46 70 6 -1
BITMAP
00FFF0000000
007FF8000000
001FFC000000
000FFE000000
0007FF000000
0003FF800000
0000FFC00000
00007FE00000
00003FF00000
00001FF80000
000007FC0000
000003FE0000
000000000000
000000000000
000000000000
000000000000
000000000000
000000000000
000000000000
000000000000
03FE000007FC
03FE000007FC
03FE000007FC
03FC000007F8
03FC000007F8
07FC00000FF8
07FC00000FF8
07FC00000FF8
07F800000FF0
07F800000FF0
0FF800001FF0
0FF800001FF0
0FF800001FF0
0FF000001FE0
0FF000001FE0
1FF000003FE0
1FF000003FE0
1FF000003FE0
1FE000003FC0
1FE000003FC0
3FE000007FC0
3FE000007FC0
3FE000007F80
3FC00000FF80
3FC00000FF80
7FC00000FF80
7FC00001FF80
7FC00001FF00
7F800003FF00
7F800003FF00
FF800007FF00
FF800007FF00
FF80000FFF00
FF00001FFF00
FF00001FFF00
FF00003FFE00
FF00007FFE00
FF0000FFFE00
FF0001FFFE00
FF8003FDFE00
FF800FF9FE00
FFC01FF9FE00
FFF9FFF1FE00
7FFFFFE1FE00
7FFFFFC3FC00
3FFFFF83FC00
1FFFFE03FC00
0FFFFC03FC00
03FFF003FC00
007F00000000
ENDCHAR
STARTCHAR 00FA
ENCODING 250
SWIDTH 550 0
DWIDTH 55 0
BBX 46 70 6 -1
BITMAP
000000003FFC
000000007FF8
00000000FFE0
00000001FFC0
00000003FF80
00000007FE00
0000000FFC00
0000001FF800
0000003FE000
0000007FC000
000000FF8000
000001FE0000
000000000000
000000000000
000000000000
000000000000
000000000000
000000000000
000000000000
000000000000
03FE000007FC
03FE000007FC
03FE000007FC
03FC000007F8
03FC000007F8
07FC00000FF8
07FC00000FF8
07FC00000FF8
07F800000FF0
07F800000FF0
0FF800001FF0
0FF800001FF0
0FF800001FF0
0FF000001FE0
0FF000001FE0
1FF000003FE0
1FF000003FE0
1FF000003FE0
1FE000003FC0
1FE000003FC0
3FE000007FC0
3FE000007FC0
3FE000007F80
3FC00000FF80
3FC00000FF80
7FC00000FF80
7FC00001FF80
7FC00001FF00
7F800003FF00
7F800003FF00
FF800007FF00
FF800007FF00
FF80000FFF00
FF00001FFF00
FF00001FFF00
FF00003FFE00
FF00007FFE00
FF0000FFFE00
FF0001FFFE00
FF8003FDFE00
FF800FF9FE00
FFC01FF9FE00
FFF9FFF1FE00
7FFFFFE1FE00
7FFFFFC3FC00
3FFFFF83FC00
1FFFFE03FC00
0FFFFC03FC00
03FFF003FC00
007F00000000
ENDCHAR
STARTCHAR 00FB
ENCODING 251
SWIDTH 550 0
DWIDTH 55 0
BBX 46 70 6 -1
BITMAP
0000007F8000
000000FFC000
000001FFE000
000003FFF000
00000FFFF000
00001FFFF800
00003FE7FC00
00007FC3FE00
0000FF81FF00
0003FE00FF00
0007FC007F80
000FF8003FC0
000000000000
000000000000
000000000000
000000000000
000000000000
000000000000
000000000000
000000000000
03FE000007FC
03FE000007FC
03FE000007FC
03FC000007F8
03FC000007F8
07FC00000FF8
07FC00000FF8
07FC00000FF8
07F800000FF0
07F800000FF0
0FF800001FF0
0FF800001FF0
0FF800001FF0
0FF000001FE0
0FF000001FE0
1FF000003FE0
1FF000003FE0
1FF000003FE0
1FE000003FC0
1FE000003FC0
3FE000007FC0
3FE000007FC0
3FE000007F80
3FC00000FF80
3FC00000FF80
7FC00000FF80
7FC00001FF80
7FC00001FF00
7F800003FF00
7F800003FF00
FF800007FF00
FF800007FF00
FF80000FFF00
FF00001FFF00
FF00001FFF00
FF00003FFE00
FF00007FFE00
FF0000FFFE00
FF0001FFFE00
FF8003FDFE00
FF800FF9FE00
FFC01FF9FE00
FFF9FFF1FE00
7FFFFFE1FE00
7FFFFFC3FC00
3FFFFF83FC00
1FFFFE03FC00
0FFFFC03FC00
03FFF003FC00
007F00000000
ENDCHAR
STARTCHAR 00FC
ENCODING 252
SWIDTH 550 0
DWIDTH 55 0
BBX 46 70 6 -1
BITMAP
000040000200
0003F8001FC0
0007FC003FE0
0007FE003FF0
000FFE007FF0
000FFE007FF0
000FFE007FF0
000FFE007FF0
0007FC003FE0
0007FC003FE0
0003F0001F80
000000000000
000000000000
000000000000
000000000000
000000000000
000000000000
000000000000
000000000000
000000000000
03FE000007FC
03FE000007FC
03FE000007FC
03FC000007F8
03FC000007F8
07FC00000FF8
07FC00000FF8
07FC00000FF8
07F800000FF0
07F800000FF0
0FF800001FF0
0FF800001FF0
0FF800001FF0
0FF000001FE0
0FF000001FE0
1FF000003FE0
1FF000003FE0
1FF000003FE0
1FE000003FC0
1FE000003FC0
3FE000007FC0
3FE000007FC0
3FE000007F80
3FC00000FF80
3FC00000FF80
7FC00000FF80
7FC00001FF80
7FC00001FF00
7F800003FF00
7F800003FF00
FF800007FF00
FF800007FF00
FF80000FFF00
FF00001FFF00
FF00001FFF00
FF00003FFE00
FF00007FFE00
FF0000FFFE00
FF0001FFFE00
FF8003FDFE00
FF800FF9FE00
FFC01FF9FE00
FFF9FFF1FE00
7FFFFFE1FE00
7FFFFFC3FC00
3FFFFF83FC00
1FFFFE03FC00
0FFFFC03FC00
03FFF003FC00
007F00000000
ENDCHAR
STARTCHAR 00FD
ENCODING 253
SWIDTH 550 0
DWIDTH 55 0
BBX 57 89 -5 -20
BITMAP
00000000000FFF00
00000000001FFE00
00000000003FF800
00000000007FF000
0000000000FFE000
0000000001FF8000
0000000003FF0000
0000000007FE0000
000000000FF80000
000000001FF00000
000000003FE00000
000000007F800000
0000000000000000
0000000000000000
0000000000000000
0000000000000000
0000000000000000
0000000000000000
0000000000000000
0000000000000000
0007FC000001FF80
0007FC000001FF00
0003FE000001FF00
0003FE000001FF00
0003FE000001FF00
0003FE000001FF00
0003FE000003FF00
0001FF000003FE00
0001FF000003FE00
0001FF000003FE00
0001FF000003FE00
0001FF000007FC00
0000FF800007FC00
0000FF800007FC00
0000FF80000FF800
0000FF80000FF800
0000FF80000FF800
00007FC0001FF000
00007FC0001FF000
00007FC0003FF000
00007FC0003FE000
00007FC0007FE000
00003FE0007FC000
00003FE000FFC000
00003FE000FF8000
00003FE001FF8000
00003FE001FF0000
00001FF003FF0000
00001FF003FE0000
00001FF007FC0000
00001FF007FC0000
00001FF00FF80000
00000FF81FF80000
00000FF81FF00000
00000FF83FE00000
00000FF87FE00000
00000FF87FC00000
000007F8FF800000
000007F9FF800000
000007FDFF000000
000007FFFE000000
000007FFFC000000
000003FFFC000000
000003FFF8000000
000003FFF0000000
000003FFF0000000
000003FFE0000000
000001FFC0000000
000001FF80000000
000001FF80000000
000003FF00000000
000007FE00000000
00000FFC00000000
00001FF800000000
00001FF800000000
00003FF000000000
00007FE000000000
0000FFC000000000
0003FF8000000000
0007FF0000000000
001FFE0000000000
80FFFC0000000000
FFFFF80000000000
FFFFF00000000000
FFFFE00000000000
FFFF800000000000
FFFF000000000000
FFFC000000000000
FFE0000000000000
ENDCHAR
STARTCHAR 00FE
ENCODING 254
SWIDTH 550 0
DWIDTH 55 0
BBX 51 89 -1 -20
BITMAP
00007FC0000000
00007FC0000000
00007FC0000000
00007F80000000
00007F80000000
0000FF80000000
0000FF80000000
0000FF80000000
0000FF00000000
0000FF00000000
0001FF00000000
0001FF00000000
0001FF00000000
0001FE00000000
0001FE00000000
0003FE00000000
0003FE00000000
0003FE00000000
0003FC00000000
0003FC007F8000
0007FC03FFF000
0007FC0FFFF800
0007F83FFFFE00
0007F87FFFFE00
0007F8FFFFFF00
000FF9FFFFFF80
000FF3FFFFFF80
000FF7FE01FFC0
000FF7FC00FFC0
000FEFF0007FC0
001FFFE0007FE0
001FFFC0003FE0
001FFF80003FE0
001FFF00003FE0
001FFE00003FE0
003FFE00003FE0
003FFC00003FE0
003FF800003FE0
003FF800003FE0
003FF000003FE0
007FF000003FE0
007FE000003FE0
007FE000003FE0
007FC000003FC0
007FC000003FC0
00FF8000007FC0
00FF8000007FC0
00FF8000007FC0
00FF000000FF80
00FF000000FF80
01FF000000FF80
01FF000001FF00
01FF000001FF00
01FE000003FE00
01FE000003FE00
03FE000007FC00
03FE00000FFC00
03FE00000FF800
03FC00001FF800
03FC00007FF000
07FC0000FFE000
07FF0003FFC000
07FFF83FFF8000
07FFFFFFFF0000
07FFFFFFFE0000
0FFFFFFFF80000
0FFFFFFFF00000
0FFFFFFFC00000
0FF7FFFE000000
0FF00780000000
1FF00000000000
1FF00000000000
1FF00000000000
1FE00000000000
1FE00000000000
3FE00000000000
3FE00000000000
3FE00000000000
3FC00000000000
3FC00000000000
7FC00000000000
7FC00000000000
7FC00000000000
7F800000000000
7F800000000000
FF800000000000
FF800000000000
FF800000000000
FF000000000000
ENDCHAR
STARTCHAR 00FF
ENCODING 255
SWIDTH 550 0
DWIDTH 55 0
BBX 57 89 -5 -20
BITMAP
0000001000008000
000000FE0007F000
000001FF000FF800
000001FF800FFC00
000003FF801FFC00
000003FF801FFC00
000003FF801FFC00
000003FF801FFC00
000001FF000FF800
000001FF000FF800
000000FC0007E000
0000000000000000
0000000000000000
0000000000000000
0000000000000000
0000000000000000
0000000000000000
0000000000000000
0000000000000000
0000000000000000
0007FC000001FF80
0007FC000001FF00
0003FE000001FF00
0003FE000001FF00
0003FE000001FF00
0003FE000001FF00
0003FE000003FF00
0001FF000003FE00
0001FF000003FE00
0001FF000003FE00
0001FF000003FE00
0001FF000007FC00
0000FF800007FC00
0000FF800007FC00
0000FF80000FF800
0000FF80000FF800
0000FF80000FF800
00007FC0001FF000
00007FC0001FF000
00007FC0003FF000
00007FC0003FE000
00007FC0007FE000
00003FE0007FC000
00003FE000FFC000
00003FE000FF8000
00003FE001FF8000
00003FE001FF0000
00001FF003FF0000
00001FF003FE0000
00001FF007FC0000
00001FF007FC0000
00001FF00FF80000
00000FF81FF80000
00000FF81FF00000
00000FF83FE00000
00000FF87FE00000
00000FF87FC00000
000007F8FF800000
000007F9FF800000
000007FDFF000000
000007FFFE000000
000007FFFC000000
000003FFFC000000
000003FFF8000000
000003FFF0000000
000003FFF0000000
000003FFE0000000
000001FFC0000000
000001FF80000000
000001FF80000000
000003FF00000000
000007FE00000000
00000FFC00000000
00001FF800000000
00001FF800000000
00003FF000000000
00007FE000000000
0000FFC000000000
0003FF8000000000
0007FF0000000000
001FFE0000000000
80FFFC0000000000
FFFFF80000000000
FFFFF00000000000
FFFFE00000000000
FFFF800000000000
FFFF000000000000
FFFC000000000000
FFE0000000000000
ENDCHAR
STARTCHAR 0100
ENCODING 256
SWIDTH 550 0
DWIDTH 55 0
BBX 55 79 -4 0
BITMAP
0000001FFFFFFE
0000001FFFFFFE
0000001FFFFFFE
0000001FFFFFFC
0000001FFFFFFC
0000003FFFFFFC
0000003FFFFFFC
00000000000000
00000000000000
00000000000000
00000000000000
00000000000000
00000000000000
00000000000000
00000000000000
000000007FF800
000000007FFC00
00000000FFFC00
00000000FFFC00
00000001FFFC00
00000001FFFC00
00000003FFFC00
00000003FFFC00
00000007FFFC00
00000007FBFE00
0000000FFBFE00
0000001FF3FE00
0000001FF3FE00
0000003FE3FE00
0000003FE1FE00
0000007FC1FE00
0000007FC1FE00
000000FF81FF00
000000FF01FF00
000001FF01FF00
000001FE01FF00
000003FE01FF00
000003FC01FF00
000007FC00FF00
000007F800FF80
00000FF800FF80
00001FF000FF80
00001FF000FF80
00003FE000FF80
00003FE000FF80
00007FC000FF80
00007FC000FF80
0000FF80007FC0
0000FF80007FC0
0001FF00007FC0
0001FF00007FC0
0003FE00007FC0
0003FE00007FC0
0007FC00007FC0
0007FC00007FC0
000FF800007FE0
001FF800003FE0
001FFFFFFFFFE0
003FFFFFFFFFE0
003FFFFFFFFFE0
007FFFFFFFFFE0
007FFFFFFFFFE0
00FFFFFFFFFFE0
00FFFFFFFFFFF0
01FFFFFFFFFFF0
01FF0000001FF0
03FE0000001FF0
03FE0000001FF0
07FC0000001FF0
07FC0000001FF0
0FF80000001FF0
1FF80000001FF8
1FF00000000FF8
3FF00000000FF8
3FE00000000FF8
7FE00000000FF8
7FC00000000FF8
FFC00000000FF8
FF800000000FF8
ENDCHAR
STARTCHAR 0101
ENCODING 257
SWIDTH 550 0
DWIDTH 55 0
BBX 48 67 4 -1
BITMAP
00001FFFFFF0
00001FFFFFF0
00003FFFFFF0
00003FFFFFF0
00003FFFFFF0
00003FFFFFE0
000000000000
000000000000
000000000000
000000000000
000000000000
000000000000
000000000000
000000000000
000000000000
000000000000
0000003C0003
000007FFFC3F
00003FFFFFFE
0000FFFFFFFE
0003FFFFFFFE
0007FFFFFFFE
001FFFFFFFFE
003FFFC1FFFC
007FFC001FFC
00FFF00007FC
00FFC00007FC
01FF800007FC
03FF000007F8
03FE000007F8
07FC00000FF8
07FC00000FF8
0FF800000FF8
0FF800000FF0
1FF000000FF0
1FF000001FF0
1FE000001FF0
3FE000001FF0
3FE000001FE0
3FC000003FE0
7FC000003FE0
7FC000003FE0
7FC000007FE0
7FC000007FC0
7F800000FFC0
7F800000FFC0
7F800001FFC0
7F800001FFC0
7F800003FFC0
FF800003FFC0
FF800007FF80
7F80000FFF80
7F80001FFF80
7F80001FFF80
7FC0003FFF80
7FC0007F7F80
7FC001FF7F80
7FE003FE7F80
3FF00FFC7F80
3FFFFFFCFF00
1FFFFFF8FF00
1FFFFFF0FF00
0FFFFFC0FF00
07FFFF80FF00
03FFFE00FF00
00FFF800FF00
001FC0000000
ENDCHAR
STARTCHAR 0102
ENCODING 258
SWIDTH 550 0
DWIDTH 55 0
BBX 55 81 -4 0
BITMAP
00000007E000FE
00000007E001FC
00000007F001FC
00000007F007FC
00000007FE3FF8
00000007FFFFF0
00000003FFFFF0
00000003FFFFE0
00000001FFFF80
000000007FFE00
000000000FF000
00000000000000
00000000000000
00000000000000
00000000000000
00000000000000
00000000000000
000000007FF800
000000007FFC00
00000000FFFC00
00000000FFFC00
00000001FFFC00
00000001FFFC00
00000003FFFC00
00000003FFFC00
00000007FFFC00
00000007FBFE00
0000000FFBFE00
0000001FF3FE00
0000001FF3FE00
0000003FE3FE00
0000003FE1FE00
0000007FC1FE00
0000007FC1FE00
000000FF81FF00
000000FF01FF00
000001FF01FF00
000001FE01FF00
000003FE01FF00
000003FC01FF00
000007FC00FF00
000007F800FF80
00000FF800FF80
00001FF000FF80
00001FF000FF80
00003FE000FF80
00003FE000FF80
00007FC000FF80
00007FC000FF80
0000FF80007FC0
0000FF80007FC0
0001FF00007FC0
0001FF00007FC0
0003FE00007FC0
0003FE00007FC0
0007FC00007FC0
0007FC00007FC0
000FF800007FE0
001FF800003FE0
001FFFFFFFFFE0
003FFFFFFFFFE0
003FFFFFFFFFE0
007FFFFFFFFFE0
007FFFFFFFFFE0
00FFFFFFFFFFE0
00FFFFFFFFFFF0
01FFFFFFFFFFF0
01FF0000001FF0
03FE0000001FF0
03FE0000001FF0
07FC0000001FF0
07FC0000001FF0
0FF80000001FF0
1FF80000001FF8
1FF00000000FF8
3FF00000000FF8
3FE00000000FF8
7FE00000000FF8
7FC00000000FF8
FFC00000000FF8
FF800000000FF8
ENDCHAR
STARTCHAR 0103
ENCODING 259
SWIDTH 550 0
DWIDTH 55 0
BBX 48 70 4 -1
BITMAP
00000FE007F0
00000FC007F0
00000FC007F0
00000FE00FE0
00000FE01FE0
00000FFFFFC0
00000FFFFF80
000007FFFF80
000003FFFF00
000001FFFC00
000000FFF800
0000001FC000
000000000000
000000000000
000000000000
000000000000
000000000000
000000000000
000000000000
0000003C0003
000007FFFC3F
00003FFFFFFE
0000FFFFFFFE
0003FFFFFFFE
0007FFFFFFFE
001FFFFFFFFE
003FFFC1FFFC
007FFC001FFC
00FFF00007FC
00FFC00007FC
01FF800007FC
03FF000007F8
03FE000007F8
07FC00000FF8
07FC00000FF8
0FF800000FF8
0FF800000FF0
1FF000000FF0
1FF000001FF0
1FE000001FF0
3FE000001FF0
3FE000001FE0
3FC000003FE0
7FC000003FE0
7FC000003FE0
7FC000007FE0
7FC000007FC0
7F800000FFC0
7F800000FFC0
7F800001FFC0
7F800001FFC0
7F800003FFC0
FF800003FFC0
FF800007FF80
7F80000FFF80
7F80001FFF80
7F80001FFF80
7FC0003FFF80
7FC0007F7F80
7FC001FF7F80
7FE003FE7F80
3FF00FFC7F80
3FFFFFFCFF00
1FFFFFF8FF00
1FFFFFF0FF00
0FFFFFC0FF00
07FFFF80FF00
03FFFE00FF00
00FFF800FF00
001FC0000000
ENDCHAR
STARTCHAR 0104
ENCODING 260
SWIDTH 550 0
DWIDTH 55 0
BBX 53 83 -4 -19
BITMAP
000000007FF800
000000007FFC00
00000000FFFC00
00000000FFFC00
00000001FFFC00
00000001FFFC00
00000003FFFC00
00000003FFFC00
00000007FFFC00
00000007FBFE00
0000000FFBFE00
0000001FF3FE00
0000001FF3FE00
0000003FE3FE00
0000003FE1FE00
0000007FC1FE00
0000007FC1FE00
000000FF81FF00
000000FF01FF00
000001FF01FF00
000001FE01FF00
000003FE01FF00
000003FC01FF00
000007FC00FF00
000007F800FF80
00000FF800FF80
00001FF000FF80
00001FF000FF80
00003FE000FF80
00003FE000FF80
00007FC000FF80
00007FC000FF80
0000FF80007FC0
0000FF80007FC0
0001FF00007FC0
0001FF00007FC0
0003FE00007FC0
0003FE00007FC0
0007FC00007FC0
0007FC00007FC0
000FF800007FE0
001FF800003FE0
001FFFFFFFFFE0
003FFFFFFFFFE0
003FFFFFFFFFE0
007FFFFFFFFFE0
007FFFFFFFFFE0
00FFFFFFFFFFE0
00FFFFFFFFFFF0
01FFFFFFFFFFF0
01FF0000001FF0
03FE0000001FF0
03FE0000001FF0
07FC0000001FF0
07FC0000001FF0
0FF80000001FF0
1FF80000001FF8
1FF00000000FF8
3FF00000000FF8
3FE00000000FF8
7FE00000000FF8
7FC00000000FF8
FFC00000000FF8
FF800000000FF8
00000000000FF0
00000000001FE0
00000000007FC0
0000000000FF80
0000000000FF00
0000000001FE00
0000000003FC00
0000000007F800
0000000007F800
0000000007F800
000000000FF800
000000000FF800
000000000FFC00
0000000007FFF0
0000000007FFF0
0000000003FFF0
0000000001FFF0
0000000000FFF0
00000000001FC0
ENDCHAR
STARTCHAR 0105
ENCODING 261
SWIDTH 550 0
DWIDTH 55 0
BBX 47 69 5 -19
BITMAP
000000780006
00000FFFF87E
00007FFFFFFC
0001FFFFFFFC
0007FFFFFFFC
000FFFFFFFFC
003FFFFFFFFC
007FFF83FFF8
00FFF8003FF8
01FFE0000FF8
01FF80000FF8
03FF00000FF8
07FE00000FF0
07FC00000FF0
0FF800001FF0
0FF800001FF0
1FF000001FF0
1FF000001FE0
3FE000001FE0
3FE000003FE0
3FC000003FE0
7FC000003FE0
7FC000003FC0
7F8000007FC0
FF8000007FC0
FF8000007FC0
FF800000FFC0
FF800000FF80
FF000001FF80
FF000001FF80
FF000003FF80
FF000003FF80
FF000007FF80
FF000007FF80
FF00000FFF00
FF00001FFF00
FF00003FFF00
FF00003FFF00
FF80007FFF00
FF8000FEFF00
FF8003FEFF00
FFC007FCFF00
7FE01FF8FF00
7FFFFFF9FE00
3FFFFFF1FE00
3FFFFFE1FE00
1FFFFF81FE00
0FFFFF01FE00
07FFFC01FE00
01FFF001FE00
003F8003FC00
00000007F800
0000000FF000
0000001FE000
0000003FC000
0000007F8000
000000FF0000
000000FF0000
000001FE0000
000001FE0000
000001FE0000
000001FE0000
000001FF0000
000001FFFC00
000001FFFC00
000000FFFC00
0000007FFC00
0000003FFC00
00000007F800
ENDCHAR
STARTCHAR 0106
ENCODING 262
SWIDTH 550 0
DWIDTH 55 0
BBX 51 82 5 -1
BITMAP
0000000007FF80
000000000FFF00
000000001FFC00
000000003FF800
000000007FF000
00000000FFC000
00000001FF8000
00000003FF0000
00000007FC0000
0000000FF80000
00000010000000
00000000000000
00000000000000
00000000000000
00000000000000
00000000000000
000000003C0000
0000001FFFF800
000000FFFFFF80
000007FFFFFFE0
00001FFFFFFFE0
00003FFFFFFFE0
0000FFFFFFFFC0
0001FFFFFFFFC0
0003FFFE00FFC0
0007FFE0000FC0
000FFF800003C0
001FFE00000080
003FFC00000000
007FF000000000
007FE000000000
00FFC000000000
01FFC000000000
01FF8000000000
03FF0000000000
03FE0000000000
07FE0000000000
07FC0000000000
0FFC0000000000
0FF80000000000
1FF80000000000
1FF00000000000
3FF00000000000
3FF00000000000
3FE00000000000
3FE00000000000
7FE00000000000
7FC00000000000
7FC00000000000
7FC00000000000
FFC00000000000
FFC00000000000
FF800000000000
FF800000000000
FF800000000000
FF800000000000
FF800000000000
FF800000000000
FF800000000000
FF800000000000
FF800000000000
FF800000000000
FF800000000000
FFC00000000000
FFC00000000000
FFC00000000000
FFE00000000000
7FE00000000000
7FF00000000000
7FF00000000000
3FF80000008000
3FFE0000038000
1FFF00001F0000
1FFFE001FF0000
0FFFFFFFFF0000
07FFFFFFFF0000
03FFFFFFFF0000
01FFFFFFFE0000
007FFFFFFE0000
001FFFFFF80000
0007FFFF800000
00003FF0000000
ENDCHAR
STARTCHAR 0107
ENCODING 263
SWIDTH 550 0
DWIDTH 55 0
BBX 46 70 7 -1
BITMAP
000000003FFC
000000007FF8
00000000FFE0
00000001FFC0
00000003FF80
00000007FE00
0000000FFC00
0000001FF800
0000003FE000
0000007FC000
000000FF8000
000001FE0000
000000000000
000000000000
000000000000
000000000000
000000000000
000000000000
000000000000
0000003FC000
000007FFFF00
00003FFFFFE0
0000FFFFFFE0
0003FFFFFFE0
0007FFFFFFE0
001FFFFFFFE0
003FFFFFFFC0
007FFE0007C0
00FFF80000C0
01FFE0000000
01FFC0000000
03FF00000000
07FE00000000
0FFE00000000
0FFC00000000
1FF800000000
1FF000000000
1FF000000000
3FE000000000
3FE000000000
7FE000000000
7FC000000000
7FC000000000
7FC000000000
FF8000000000
FF8000000000
FF8000000000
FF8000000000
FF8000000000
FF8000000000
FF8000000000
FF8000000000
FF8000000000
FF8000000000
FF8000000000
FFC000000000
FFC000000000
7FC000000000
7FE000000000
7FF000000000
3FF800006000
3FFE0003E000
1FFFFFFFE000
1FFFFFFFE000
0FFFFFFFE000
03FFFFFFE000
01FFFFFFE000
007FFFFFC000
001FFFFC0000
00007F000000
ENDCHAR
STARTCHAR 0108
ENCODING 264
SWIDTH 550 0
DWIDTH 55 0
BBX 51 82 5 -1
BITMAP
00000003FE0000
00000007FF0000
0000001FFF8000
0000003FFFC000
0000007FFFE000
000000FFFFF000
000003FF1FF800
000007FE0FF800
00000FF807FC00
00003FF003FE00
00000000000100
00000000000000
00000000000000
00000000000000
00000000000000
00000000000000
000000003C0000
0000001FFFF800
000000FFFFFF80
000007FFFFFFE0
00001FFFFFFFE0
00003FFFFFFFE0
0000FFFFFFFFC0
0001FFFFFFFFC0
0003FFFE00FFC0
0007FFE0000FC0
000FFF800003C0
001FFE00000080
003FFC00000000
007FF000000000
007FE000000000
00FFC000000000
01FFC000000000
01FF8000000000
03FF0000000000
03FE0000000000
07FE0000000000
07FC0000000000
0FFC0000000000
0FF80000000000
1FF80000000000
1FF00000000000
3FF00000000000
3FF00000000000
3FE00000000000
3FE00000000000
7FE00000000000
7FC00000000000
7FC00000000000
7FC00000000000
FFC00000000000
FFC00000000000
FF800000000000
FF800000000000
FF800000000000
FF800000000000
FF800000000000
FF800000000000
FF800000000000
FF800000000000
FF800000000000
FF800000000000
FF800000000000
FFC00000000000
FFC00000000000
FFC00000000000
FFE00000000000
7FE00000000000
7FF00000000000
7FF00000000000
3FF80000008000
3FFE0000038000
1FFF00001F0000
1FFFE001FF0000
0FFFFFFFFF0000
07FFFFFFFF0000
03FFFFFFFF0000
01FFFFFFFE0000
007FFFFFFE0000
001FFFFFF80000
0007FFFF800000
00003FF0000000
ENDCHAR
STARTCHAR 0109
ENCODING 265
SWIDTH 550 0
DWIDTH 55 0
BBX 43 70 7 -1
BITMAP
0000007F8000
000000FFC000
000001FFE000
000003FFF000
00000FFFF000
00001FFFF800
00003FE7FC00
00007FC3FE00
0000FF81FF00
0003FE00FF00
0007FC007F80
000FF8003FC0
000000000000
000000000000
000000000000
000000000000
000000000000
000000000000
000000000000
0000003FC000
000007FFFF00
00003FFFFFE0
0000FFFFFFE0
0003FFFFFFE0
0007FFFFFFE0
001FFFFFFFE0
003FFFFFFFC0
007FFE0007C0
00FFF80000C0
01FFE0000000
01FFC0000000
03FF00000000
07FE00000000
0FFE00000000
0FFC00000000
1FF800000000
1FF000000000
1FF000000000
3FE000000000
3FE000000000
7FE000000000
7FC000000000
7FC000000000
7FC000000000
FF8000000000
FF8000000000
FF8000000000
FF8000000000
FF8000000000
FF8000000000
FF8000000000
FF8000000000
FF8000000000
FF8000000000
FF8000000000
FFC000000000
FFC000000000
7FC000000000
7FE000000000
7FF000000000
3FF800006000
3FFE0003E000
1FFFFFFFE000
1FFFFFFFE000
0FFFFFFFE000
03FFFFFFE000
01FFFFFFE000
007FFFFFC000
001FFFFC0000
00007F000000
ENDCHAR
STARTCHAR 010A
ENCODING 266
SWIDTH 550 0
DWIDTH 55 0
BBX 51 83 5 -1
BITMAP
000000007C0000
00000000FF0000
00000001FF8000
00000003FF8000
00000003FFC000
00000003FFC000
00000007FFC000
00000003FFC000
00000003FF8000
00000003FF8000
00000001FF0000
00000000FE0000
00000000000000
00000000000000
00000000000000
00000000000000
00000000000000
000000003C0000
0000001FFFF800
000000FFFFFF80
000007FFFFFFE0
00001FFFFFFFE0
00003FFFFFFFE0
0000FFFFFFFFC0
0001FFFFFFFFC0
0003FFFE00FFC0
0007FFE0000FC0
000FFF800003C0
001FFE00000080
003FFC00000000
007FF000000000
007FE000000000
00FFC000000000
01FFC000000000
01FF8000000000
03FF0000000000
03FE0000000000
07FE0000000000
07FC0000000000
0FFC0000000000
0FF80000000000
1FF80000000000
1FF00000000000
3FF00000000000
3FF00000000000
3FE00000000000
3FE00000000000
7FE00000000000
7FC00000000000
7FC00000000000
7FC00000000000
FFC00000000000
FFC00000000000
FF800000000000
FF800000000000
FF800000000000
FF800000000000
FF800000000000
FF800000000000
FF800000000000
FF800000000000
FF800000000000
FF800000000000
FF800000000000
FFC00000000000
FFC00000000000
FFC00000000000
FFE00000000000
7FE00000000000
7FF00000000000
7FF00000000000
3FF80000008000
3FFE0000038000
1FFF00001F0000
1FFFE001FF0000
0FFFFFFFFF0000
07FFFFFFFF0000
03FFFFFFFF0000
01FFFFFFFE0000
007FFFFFFE0000
001FFFFFF80000
0007FFFF800000
00003FF0000000
ENDCHAR
STARTCHAR 010B
ENCODING 267
SWIDTH 550 0
DWIDTH 55 0
BBX 43 70 7 -1
BITMAP
0000007E0000
000000FF8000
000001FFC000
000003FFC000
000003FFC000
000003FFC000
000003FFC000
000003FFC000
000003FFC000
000003FF8000
000001FF8000
000000FF0000
000000180000
000000000000
000000000000
000000000000
000000000000
000000000000
000000000000
0000003FC000
000007FFFF00
00003FFFFFE0
0000FFFFFFE0
0003FFFFFFE0
0007FFFFFFE0
001FFFFFFFE0
003FFFFFFFC0
007FFE0007C0
00FFF80000C0
01FFE0000000
01FFC0000000
03FF00000000
07FE00000000
0FFE00000000
0FFC00000000
1FF800000000
1FF000000000
1FF000000000
3FE000000000
3FE000000000
7FE000000000
7FC000000000
7FC000000000
7FC000000000
FF8000000000
FF8000000000
FF8000000000
FF8000000000
FF8000000000
FF8000000000
FF8000000000
FF8000000000
FF8000000000
FF8000000000
FF8000000000
FFC000000000
FFC000000000
7FC000000000
7FE000000000
7FF000000000
3FF800006000
3FFE0003E000
1FFFFFFFE000
1FFFFFFFE000
0FFFFFFFE000
03FFFFFFE000
01FFFFFFE000
007FFFFFC000
001FFFFC0000
00007F000000
ENDCHAR
ENDFONT
